<svg xmlns="http://www.w3.org/2000/svg" xmlns:xlink="http://www.w3.org/1999/xlink" width="19" height="19" viewBox="0 0 19 19">
  <defs>
    <clipPath id="clip-path">
      <rect id="Rectangle_23879"  width="19" height="19" transform="translate(30 771)" fill="#231313"/>
    </clipPath>
  </defs>
  <g id="Mask_Group_152"  transform="translate(-30 -771)" clip-path="url(#clip-path)">
    <g id="svgexport-17_47_"  transform="translate(30 771)">
      <path id="Path_43048"  d="M13.446,16.95l-.265,1.085q-1.195.472-1.906.718A5.028,5.028,0,0,1,9.621,19a3.3,3.3,0,0,1-2.249-.705,2.283,2.283,0,0,1-.8-1.792,6.339,6.339,0,0,1,.06-.862q.061-.441.194-1l1-3.523q.133-.506.224-.959a4.169,4.169,0,0,0,.091-.826A1.277,1.277,0,0,0,7.855,8.4,1.573,1.573,0,0,0,6.79,8.13,2.79,2.79,0,0,0,6,8.251c-.271.08-.5.157-.7.229l.266-1.086Q6.547,7,7.44,6.712a5.6,5.6,0,0,1,1.692-.284,3.219,3.219,0,0,1,2.215.694,2.3,2.3,0,0,1,.778,1.8c0,.153-.017.423-.054.808a5.407,5.407,0,0,1-.2,1.062l-.991,3.509a9.32,9.32,0,0,0-.218.967,4.975,4.975,0,0,0-.1.82,1.182,1.182,0,0,0,.312.953,1.762,1.762,0,0,0,1.084.253,3.131,3.131,0,0,0,.82-.127,4.584,4.584,0,0,0,.663-.222ZM13.7,2.219A2.053,2.053,0,0,1,13,3.782a2.36,2.36,0,0,1-1.669.646,2.387,2.387,0,0,1-1.678-.646,2.049,2.049,0,0,1-.7-1.563,2.069,2.069,0,0,1,.7-1.568A2.477,2.477,0,0,1,13,.651,2.073,2.073,0,0,1,13.7,2.219Z" fill="#231313"/>
    </g>
  </g>
</svg>
