<svg xmlns="http://www.w3.org/2000/svg" xmlns:xlink="http://www.w3.org/1999/xlink" width="90"
    height="90" viewBox="0 0 90 90">
    <defs>
        <clipPath id="clip-path">
            <circle id="Ellipse_18" cx="27" cy="27" r="27" transform="translate(5590 2405)" />
        </clipPath>
    </defs>
    <g id="Group_44621" transform="translate(-99 -204)">
        <g id="Ellipse_17" transform="translate(99 204)" fill="#fff" stroke="#000" stroke-width="2">
            <circle cx="45" cy="45" r="45" stroke="none" />
            <circle cx="45" cy="45" r="44" fill="none" />
        </g>
        <g id="Mask_Group_6" transform="translate(-5473 -2183)" clip-path="url(#clip-path)">
            <g id="svgexport-17_34_" transform="translate(5598.512 2413.787)">
                <path id="Path_8"
                    d="M17.268,0a8.908,8.908,0,1,0,8.908,8.908A8.918,8.918,0,0,0,17.268,0ZM28.351,23.634a12.7,12.7,0,0,0-9.1-3.84H15.288a12.7,12.7,0,0,0-9.1,3.84,12.981,12.981,0,0,0-3.763,9.159.99.99,0,0,0,.99.99H31.124a.99.99,0,0,0,.99-.99A12.981,12.981,0,0,0,28.351,23.634Z"
                    transform="translate(1.066 1.213)" />
            </g>
        </g>
    </g>
</svg>
