<svg xmlns="http://www.w3.org/2000/svg" xmlns:xlink="http://www.w3.org/1999/xlink" width="18.019"
    height="19.016" viewBox="0 0 18.019 19.016">
    <defs>
        <clipPath id="clip-path">
            <rect id="Rectangle_24041" width="18.019" height="19.016" transform="translate(0 0)" />
        </clipPath>
    </defs>
    <g id="Group_44670" transform="translate(-313 -379)">
        <g id="Mask_Group_192" transform="translate(313 379)" clip-path="url(#clip-path)">
            <g id="svgexport-17_79_" transform="translate(1.815 0.455)">
                <path id="Path_43121"
                    d="M18.592,10.513l.683,10.239A1.922,1.922,0,0,1,17.359,22.8H7.3a1.921,1.921,0,0,1-1.915-2.048l.683-10.239A1.92,1.92,0,0,1,7.979,8.721h8.7a1.92,1.92,0,0,1,1.915,1.792Zm-1.277.085a.64.64,0,0,0-.638-.6h-8.7a.64.64,0,0,0-.638.6L6.658,20.837a.638.638,0,0,0,.638.683H17.359A.638.638,0,0,0,18,20.837Z"
                    transform="translate(-5.376 -4.455)" fill-rule="evenodd" />
                <path id="Path_43122"
                    d="M18.066,6.65a.64.64,0,1,1-1.28,0V5.37a2.346,2.346,0,0,0-4.693,0V6.65a.64.64,0,0,1-1.28,0V5.37a3.626,3.626,0,1,1,7.252,0ZM16.561,9.788a.64.64,0,1,1,1.156.549,3.626,3.626,0,0,1-6.554,0,.64.64,0,0,1,1.156-.549,2.349,2.349,0,0,0,4.242,0Z"
                    transform="translate(-7.489 -1.744)" fill-rule="evenodd" />
            </g>
        </g>
        <path id="Path_43139"
            d="M4.038.008c3.362,0,8.211-.322,8.211,3.04l.59,7.531c0,3.362-2.635,2.6-6,2.6S0,13.623,0,10.261l.755-4.7C.755,2.2.676.008,4.038.008Z"
            transform="translate(315.289 384.088)" />
    </g>
</svg>
