<svg xmlns="http://www.w3.org/2000/svg" xmlns:xlink="http://www.w3.org/1999/xlink" width="27"
    height="27" viewBox="0 0 27 27">
    <defs>
        <clipPath id="clip-path">
            <rect id="Rectangle_23581" width="27" height="27" transform="translate(363 59)"
                fill="#822424" />
        </clipPath>
    </defs>
    <g id="Mask_Group_195" transform="translate(-363 -59)" clip-path="url(#clip-path)">
        <g id="svgexport-19_-_2023-05-28T124740.498" transform="translate(363 59)">
            <path id="Path_42783"
                d="M11.25,27a4.224,4.224,0,0,1-4.219-4.219.844.844,0,1,1,1.687,0,2.531,2.531,0,1,0,5.063,0,.844.844,0,0,1,1.688,0A4.224,4.224,0,0,1,11.25,27Zm0,0"
                fill="#676767" />
            <path id="Path_42784"
                d="M20.531,23.625H1.969A1.969,1.969,0,0,1,.688,20.16a.774.774,0,0,1,.09-.068,7.561,7.561,0,0,0,2.6-5.7V11.25A7.825,7.825,0,0,1,9.413,3.6.844.844,0,0,1,9.8,5.243a6.143,6.143,0,0,0-4.74,6.007v3.139A9.253,9.253,0,0,1,1.8,21.443c-.017.014-.031.026-.05.038a.278.278,0,0,0-.06.174.284.284,0,0,0,.281.281H20.531a.284.284,0,0,0,.281-.281.269.269,0,0,0-.061-.174c-.017-.012-.033-.025-.048-.038A9.174,9.174,0,0,1,18.34,18.36a.843.843,0,1,1,1.524-.721A7.52,7.52,0,0,0,21.724,20.1a.978.978,0,0,1,.085.064,1.968,1.968,0,0,1-1.278,3.465Zm0,0"
                fill="#676767" />
        </g>
    </g>
</svg>
