<svg xmlns="http://www.w3.org/2000/svg" xmlns:xlink="http://www.w3.org/1999/xlink" width="39" height="39" viewBox="0 0 39 39">
  <defs>
    <clipPath id="clip-path">
      <circle id="Ellipse_141" data-name="Ellipse 141" cx="13" cy="13" r="13" transform="translate(222.844 513.844)" fill="#515151"/>
    </clipPath>
  </defs>
  <g id="Group_4948" data-name="Group 4948" transform="translate(-125 -878)">
    <circle id="Ellipse_140" data-name="Ellipse 140" cx="19.5" cy="19.5" r="19.5" transform="translate(125 878)" fill="#f9f9f9"/>
    <g id="Mask_Group_257" data-name="Mask Group 257" transform="translate(-90.844 370.156)" clip-path="url(#clip-path)">
      <g id="svgexport-19_14_" data-name="svgexport-19 (14)" transform="translate(225.423 516.408)">
        <path id="Path_42938" data-name="Path 42938" d="M16.5,12.929a2.053,2.053,0,0,0-1.489-.683,2.123,2.123,0,0,0-1.507.678l-1.392,1.388c-.115-.062-.229-.119-.339-.176-.159-.079-.308-.154-.436-.233a15.129,15.129,0,0,1-3.625-3.3A8.926,8.926,0,0,1,6.521,8.722c.361-.33.7-.674,1.022-1,.123-.123.247-.251.37-.374a2.021,2.021,0,0,0,0-3.048l-1.2-1.2c-.137-.137-.278-.278-.41-.418-.264-.273-.542-.555-.828-.819A2.085,2.085,0,0,0,4,1.207a2.158,2.158,0,0,0-1.5.648l-.009.009L.993,3.375A3.223,3.223,0,0,0,.037,5.423,7.722,7.722,0,0,0,.6,8.692a18.967,18.967,0,0,0,3.37,5.621,20.73,20.73,0,0,0,6.9,5.405,10.755,10.755,0,0,0,3.877,1.145c.093,0,.189.009.278.009a3.319,3.319,0,0,0,2.542-1.092c0-.009.013-.013.018-.022a10.015,10.015,0,0,1,.771-.8c.189-.181.383-.37.573-.568a2.2,2.2,0,0,0,.665-1.524,2.117,2.117,0,0,0-.678-1.511L16.5,12.929Zm1.577,4.639s0,0,0,0c-.172.185-.348.352-.537.537a11.583,11.583,0,0,0-.85.881,2.124,2.124,0,0,1-1.656.7c-.066,0-.137,0-.2,0a9.554,9.554,0,0,1-3.436-1.031,19.568,19.568,0,0,1-6.5-5.092A17.884,17.884,0,0,1,1.72,8.278,6.29,6.29,0,0,1,1.226,5.52a2.022,2.022,0,0,1,.608-1.308l1.5-1.5a1,1,0,0,1,.67-.313.942.942,0,0,1,.643.308l.013.013c.269.251.524.511.793.789.137.141.278.282.418.427l1.2,1.2a.841.841,0,0,1,0,1.366c-.128.128-.251.255-.379.379-.37.379-.722.731-1.106,1.075-.009.009-.018.013-.022.022a.9.9,0,0,0-.229,1l.013.04a9.655,9.655,0,0,0,1.423,2.322l0,0A16.168,16.168,0,0,0,10.693,14.9a6.014,6.014,0,0,0,.542.3c.159.079.308.154.436.233.018.009.035.022.053.031a.955.955,0,0,0,.436.11.942.942,0,0,0,.67-.3l1.507-1.507a1,1,0,0,1,.665-.33.9.9,0,0,1,.634.322l.009.009,2.427,2.427A.871.871,0,0,1,18.076,17.568Z" transform="translate(-0.019 0)" fill="#515151"/>
      </g>
    </g>
  </g>
</svg>
