<svg xmlns="http://www.w3.org/2000/svg" xmlns:xlink="http://www.w3.org/1999/xlink" width="27" height="27" viewBox="0 0 27 27">
  <defs>
    <clipPath id="clip-path">
      <rect id="Rectangle_23580" data-name="Rectangle 23580" width="27" height="27" transform="translate(273 884)" fill="#fff"/>
    </clipPath>
  </defs>
  <g id="Mask_Group_193" data-name="Mask Group 193" transform="translate(-273 -884)" clip-path="url(#clip-path)">
    <g id="svgexport-19_-_2023-05-28T124138.961" data-name="svgexport-19 - 2023-05-28T124138.961" transform="translate(273 884)">
      <path id="Path_42778" data-name="Path 42778" d="M8.613,21a2.819,2.819,0,1,0,2.819,2.819A2.819,2.819,0,0,0,8.613,21Zm0,4.385a1.566,1.566,0,1,1,1.566-1.566A1.566,1.566,0,0,1,8.613,25.386ZM20.514,21a2.819,2.819,0,1,0,2.819,2.819A2.819,2.819,0,0,0,20.514,21Zm0,4.385A1.566,1.566,0,1,1,22.08,23.82,1.566,1.566,0,0,1,20.514,25.386ZM26.872,4.558a.783.783,0,0,0-.5-.251L5.982,4.026,5.418,2.3A2.881,2.881,0,0,0,2.725.361H.626a.626.626,0,1,0,0,1.253h2.1a1.629,1.629,0,0,1,1.5,1.1l3.978,12-.313.72a3.007,3.007,0,0,0,.282,2.725,2.913,2.913,0,0,0,2.349,1.315H22.707a.626.626,0,0,0,0-1.253H10.523a1.6,1.6,0,0,1-1.315-.752,1.722,1.722,0,0,1-.157-1.5l.251-.564,13.186-1.378a3.445,3.445,0,0,0,2.975-2.631l1.5-6.3a.532.532,0,0,0-.094-.532ZM24.241,11.1a2.13,2.13,0,0,1-1.91,1.66L9.3,14.111,6.389,5.279l19.2.282Z" fill="#fff"/>
    </g>
  </g>
</svg>
