<svg xmlns="http://www.w3.org/2000/svg" xmlns:xlink="http://www.w3.org/1999/xlink" width="25" height="25" viewBox="0 0 25 25">
  <defs>
    <clipPath id="clip-path">
      <rect id="Rectangle_23457" data-name="Rectangle 23457" width="25" height="25" transform="translate(4709 4210)" fill="#fff"/>
    </clipPath>
  </defs>
  <g id="Mask_Group_134" data-name="Mask Group 134" transform="translate(-4709 -4210)" clip-path="url(#clip-path)">
    <g id="svgexport-17_40_" data-name="svgexport-17 (40)" transform="translate(4709 4210)">
      <path id="Path_42811" data-name="Path 42811" d="M21.484,18.848H9.326a.367.367,0,0,1-.342-.244l-.83-3.076L5.615,5.615c-.488-2-.977-2.734-3.76-2.734H.342a.342.342,0,0,1,0-.684H1.855a5.035,5.035,0,0,1,3.223.781A4.437,4.437,0,0,1,6.3,5.42l2.539,9.912.781,2.832H21.484a.342.342,0,0,1,0,.684Z" fill="#fff" fill-rule="evenodd"/>
      <path id="Path_42812" data-name="Path 42812" d="M21.631,16.406H9.814l-.342-1.221L6.934,5.273a1.426,1.426,0,0,1-.1-.439H23.73a1.4,1.4,0,0,1,1.074.488.853.853,0,0,1,.146.83L22.9,15.186v.049C22.656,15.967,22.217,16.406,21.631,16.406Zm-2.393-3.125H12.6a.342.342,0,0,1,0-.684h6.641a.342.342,0,0,1,0,.684Zm.684-2.344H11.865a.342.342,0,0,1,0-.684h8.057a.342.342,0,0,1,0,.684Zm.732-2.344H11.133a.342.342,0,0,1,0-.684h9.521a.342.342,0,0,1,0,.684ZM12.3,22.8a2.292,2.292,0,0,1-2.295-2.295A2.367,2.367,0,0,1,12.3,18.164,2.334,2.334,0,0,1,14.6,20.508,2.292,2.292,0,0,1,12.3,22.8Zm9.18,0a2.292,2.292,0,0,1-2.295-2.295,2.367,2.367,0,0,1,2.295-2.344,2.334,2.334,0,0,1,2.295,2.344A2.292,2.292,0,0,1,21.484,22.8Z" fill="#fff" fill-rule="evenodd"/>
    </g>
  </g>
</svg>
