<svg xmlns="http://www.w3.org/2000/svg" xmlns:xlink="http://www.w3.org/1999/xlink" width="21" height="21" viewBox="0 0 21 21">
  <defs>
    <clipPath id="clip-path">
      <rect id="Rectangle_23637" data-name="Rectangle 23637" width="21" height="21" transform="translate(354 402)" fill="#6eb37b"/>
    </clipPath>
  </defs>
  <g id="Mask_Group_228" data-name="Mask Group 228" transform="translate(-354 -402)" clip-path="url(#clip-path)">
    <g id="svgexport-19_5_" data-name="svgexport-19 (5)" transform="translate(354 402)">
      <path id="Path_42883" data-name="Path 42883" d="M18.813,18.375H2.188A2.19,2.19,0,0,1,0,16.188V4.813A2.191,2.191,0,0,1,2.188,2.625H18.813A2.191,2.191,0,0,1,21,4.813V16.188A2.191,2.191,0,0,1,18.813,18.375ZM2.188,3.5A1.314,1.314,0,0,0,.875,4.813V16.188A1.314,1.314,0,0,0,2.188,17.5H18.813a1.314,1.314,0,0,0,1.313-1.312V4.813A1.314,1.314,0,0,0,18.813,3.5Z" fill="#6eb37b"/>
      <path id="Path_42884" data-name="Path 42884" d="M6.563,10.5A2.188,2.188,0,1,1,8.75,8.313,2.191,2.191,0,0,1,6.563,10.5Zm0-3.5A1.313,1.313,0,1,0,7.875,8.313,1.314,1.314,0,0,0,6.563,7Zm3.5,7.875a.437.437,0,0,1-.437-.437v-.875A1.314,1.314,0,0,0,8.313,12.25h-3.5A1.314,1.314,0,0,0,3.5,13.563v.875a.438.438,0,0,1-.875,0v-.875a2.191,2.191,0,0,1,2.188-2.187h3.5A2.191,2.191,0,0,1,10.5,13.563v.875A.437.437,0,0,1,10.063,14.875Zm7.875-7h-5.25a.438.438,0,0,1,0-.875h5.25a.438.438,0,0,1,0,.875Zm0,3.5h-5.25a.438.438,0,0,1,0-.875h5.25a.438.438,0,0,1,0,.875Zm0,3.5h-5.25a.438.438,0,0,1,0-.875h5.25a.438.438,0,0,1,0,.875Z" fill="#6eb37b"/>
    </g>
  </g>
</svg>
