<svg xmlns="http://www.w3.org/2000/svg" xmlns:xlink="http://www.w3.org/1999/xlink" width="21" height="21" viewBox="0 0 21 21">
  <defs>
    <clipPath id="clip-path">
      <rect id="Rectangle_23641" data-name="Rectangle 23641" width="21" height="21" transform="translate(354 630)" fill="#6eb37b"/>
    </clipPath>
  </defs>
  <g id="Mask_Group_231" data-name="Mask Group 231" transform="translate(-354 -630)" clip-path="url(#clip-path)">
    <g id="svgexport-19_8_" data-name="svgexport-19 (8)" transform="translate(354 630)">
      <path id="Path_42889" data-name="Path 42889" d="M20.449,16.2,16.2,13.366a1.241,1.241,0,0,0-1.661.27L13.3,15.228a.529.529,0,0,1-.679.143l-.236-.13a14.233,14.233,0,0,1-3.709-2.913A14.291,14.291,0,0,1,5.762,8.618l-.129-.236a.53.53,0,0,1,.14-.681L7.364,6.463A1.241,1.241,0,0,0,7.634,4.8L4.8.552A1.234,1.234,0,0,0,3.136.177L1.358,1.245A2.507,2.507,0,0,0,.215,2.729c-.64,2.332-.159,6.357,5.77,12.286C10.7,19.731,14.213,21,16.626,21a6.2,6.2,0,0,0,1.645-.215,2.5,2.5,0,0,0,1.484-1.143l1.069-1.776a1.234,1.234,0,0,0-.374-1.664Zm-.229,1.305-1.066,1.777a1.809,1.809,0,0,1-1.067.827c-2.153.591-5.914.1-11.606-5.59S.3,5.067.89,2.914a1.811,1.811,0,0,1,.828-1.069L3.5.779a.535.535,0,0,1,.722.162l1.54,2.312L7.05,5.191a.539.539,0,0,1-.117.721L5.342,7.15a1.225,1.225,0,0,0-.324,1.572l.126.23a14.846,14.846,0,0,0,3.033,3.87,14.861,14.861,0,0,0,3.87,3.033l.23.127a1.225,1.225,0,0,0,1.572-.324l1.238-1.591a.539.539,0,0,1,.721-.117l4.25,2.835A.535.535,0,0,1,20.22,17.506ZM11.9,3.5a5.956,5.956,0,0,1,5.949,5.949.35.35,0,1,0,.7,0A6.656,6.656,0,0,0,11.9,2.8a.35.35,0,0,0,0,.7Z" fill="#6eb37b"/>
      <path id="Path_42890" data-name="Path 42890" d="M11.9,5.6a3.854,3.854,0,0,1,3.849,3.849.35.35,0,1,0,.7,0A4.555,4.555,0,0,0,11.9,4.9a.35.35,0,0,0,0,.7Z" fill="#6eb37b"/>
      <path id="Path_42891" data-name="Path 42891" d="M11.9,7.7a1.752,1.752,0,0,1,1.75,1.75.35.35,0,0,0,.7,0A2.452,2.452,0,0,0,11.9,7a.35.35,0,0,0,0,.7Z" fill="#6eb37b"/>
    </g>
  </g>
</svg>
