<svg xmlns="http://www.w3.org/2000/svg" xmlns:xlink="http://www.w3.org/1999/xlink" width="21" height="21" viewBox="0 0 21 21">
  <defs>
    <clipPath id="clip-path">
      <rect id="Rectangle_23639" data-name="Rectangle 23639" width="21" height="21" transform="translate(354 554)" fill="none" stroke="#6eb37b" stroke-width="0.7"/>
    </clipPath>
  </defs>
  <g id="Mask_Group_230" data-name="Mask Group 230" transform="translate(-354 -554)" clip-path="url(#clip-path)">
    <g id="svgexport-19_7_" data-name="svgexport-19 (7)" transform="translate(354.225 554.224)">
      <path id="Path_42887" data-name="Path 42887" d="M8.774,18.994a8.848,8.848,0,0,1,0-17.438m0,0-.907,1.61m.907-1.61L7.191.6m4.586.955a8.848,8.848,0,0,1,0,17.438m0,0,.907-1.61m-.907,1.61,1.582.955" fill="none" stroke="#6eb37b" stroke-linecap="round" stroke-linejoin="round" stroke-miterlimit="10" stroke-width="0.7"/>
      <path id="Path_42888" data-name="Path 42888" d="M13.25,14.972H7.3a1.053,1.053,0,0,1-1.053-1.053v-3.8A1.053,1.053,0,0,1,7.3,9.061H13.25A1.053,1.053,0,0,1,14.3,10.115v3.8A1.053,1.053,0,0,1,13.25,14.972Zm.117-5.91V8.108a3.091,3.091,0,0,0-3.091-3.091h0A3.091,3.091,0,0,0,7.185,8.108v.953M10.276,11.6v.833" fill="none" stroke="#6eb37b" stroke-linecap="round" stroke-linejoin="round" stroke-miterlimit="10" stroke-width="0.7"/>
    </g>
  </g>
</svg>
