<svg xmlns="http://www.w3.org/2000/svg" xmlns:xlink="http://www.w3.org/1999/xlink" width="20"
    height="20" viewBox="0 0 20 20">
    <defs>
        <clipPath id="clip-path">
            <rect id="Rectangle_23917" width="20" height="20" transform="translate(325 218)"
                fill="#231313" />
        </clipPath>
    </defs>
    <g id="Mask_Group_171" transform="translate(-325 -218)" clip-path="url(#clip-path)">
        <g id="svgexport-17_67_" transform="translate(325 218)">
            <path id="Path_43081"
                d="M14.727.625H1.758A1.76,1.76,0,0,0,0,2.382v9.375a1.759,1.759,0,0,0,1.758,1.758H3.516v2.93a.586.586,0,0,0,1,.414l3.172-3.172a.585.585,0,0,1,.414-.172h6.624a1.76,1.76,0,0,0,1.758-1.758V2.382A1.76,1.76,0,0,0,14.727.625ZM2.93,4.14h8.281a.586.586,0,0,1,0,1.172H2.93a.586.586,0,1,1,0-1.172ZM8.867,10H2.93a.586.586,0,0,1,0-1.172H8.867a.586.586,0,0,1,0,1.172Zm4.688-2.344H2.93a.586.586,0,1,1,0-1.172H13.555a.586.586,0,0,1,0,1.172Z"
                fill="#231313" />
            <path id="Path_43082"
                d="M18.242,2.968h-.578v8.789a2.94,2.94,0,0,1-2.938,2.93h-6.3l-1.25,1.164H12.14L15.484,19.2a.586.586,0,0,0,1-.414V15.851h1.758A1.753,1.753,0,0,0,20,14.1V4.726A1.76,1.76,0,0,0,18.242,2.968Z"
                fill="#231313" />
        </g>
    </g>
</svg>
