<svg xmlns="http://www.w3.org/2000/svg" width="146" height="146" viewBox="0 0 146 146">
    <g id="Group_4947" transform="translate(-151 -217)">
        <circle id="Ellipse_2" cx="73" cy="73" r="73" transform="translate(151 217)"
            fill="#6eb37b" />
        <g id="svgexport-6_1_" transform="translate(182 198.009)">
            <path id="Path_2504"
                d="M163.734,62.437a8.351,8.351,0,0,1,0,11.811l-47.243,47.245a8.352,8.352,0,0,1-11.812,0l-5.906-5.905,53.15-53.15A8.35,8.35,0,0,1,163.734,62.437Z"
                transform="translate(-82.662 0)" fill="#fff" />
            <path id="Path_2505"
                d="M2.446,232.081a8.346,8.346,0,0,1,11.811,0l25.476,25.473-5.906,5.906a8.35,8.35,0,0,1-11.811,0L2.446,243.888a8.347,8.347,0,0,1,0-11.807Z"
                transform="translate(0 -141.971)" fill="#fff" />
        </g>
    </g>
</svg>
