<svg id="svgexport-19_-_2023-05-27T173837.509" data-name="svgexport-19 - 2023-05-27T173837.509" xmlns="http://www.w3.org/2000/svg" width="18.352" height="15.872" viewBox="0 0 18.352 15.872">
  <path id="Path_42684" data-name="Path 42684" d="M9.176,50.466a.537.537,0,0,1-.269-.072,32.106,32.106,0,0,1-4.413-3.175,18.2,18.2,0,0,1-3.061-3.28A6.918,6.918,0,0,1,0,40,5.682,5.682,0,0,1,1.45,36.2a4.75,4.75,0,0,1,3.537-1.6,4.908,4.908,0,0,1,4.19,2.485,4.908,4.908,0,0,1,4.19-2.485,4.778,4.778,0,0,1,3.4,1.447,5.6,5.6,0,0,1,1.586,3.969,7.053,7.053,0,0,1-1.46,3.929,18.439,18.439,0,0,1-3.057,3.279,32.216,32.216,0,0,1-4.389,3.175A.538.538,0,0,1,9.176,50.466Z" transform="translate(0 -34.594)" fill="#d2d2d2"/>
</svg>
