<svg xmlns="http://www.w3.org/2000/svg" xmlns:xlink="http://www.w3.org/1999/xlink" width="29"
    height="29" viewBox="0 0 29 29">
    <defs>
        <clipPath id="clip-path">
            <rect id="Rectangle_23577" width="29" height="29" transform="translate(201 883)"
                fill="#fff" stroke="#6eb37b" stroke-width="0.5" />
        </clipPath>
    </defs>
    <g id="Group_4935" transform="translate(-144 -1362)">
        <g id="Group_4932" transform="translate(-57 479)">
            <g id="Mask_Group_192" clip-path="url(#clip-path)">
                <g id="svgexport-19_-_2023-05-28T124054.114" transform="translate(201.102 883.1)">
                    <path id="Path_42777"
                        d="M23.4,27.9a.9.9,0,0,1-.558-.2L14.4,20.95,5.966,27.7A.9.9,0,0,1,4.5,27V1.8A.9.9,0,0,1,5.4.9h18a.9.9,0,0,1,.9.9V27a.9.9,0,0,1-.513.81.819.819,0,0,1-.387.09Zm-9-9a.9.9,0,0,1,.567.2L22.5,25.125V2.7H6.3V25.125L13.84,19.1A.9.9,0,0,1,14.4,18.9Z"
                        fill="#fff" stroke="#6eb37b" stroke-width="0.5" />
                </g>
            </g>
            <g id="svgexport-19_-_2023-05-28T124528.233" transform="translate(209.406 887.027)">
                <path id="Path_42782"
                    d="M9.2,11.646a.81.81,0,0,1-.379-.094L6.649,10.41a.116.116,0,0,0-.109,0L4.368,11.552a.815.815,0,0,1-1.182-.859L3.6,8.275a.117.117,0,0,0-.035-.1L1.81,6.457a.815.815,0,0,1,.453-1.39l2.426-.352a.117.117,0,0,0,.089-.064l1.085-2.2a.814.814,0,0,1,1.461,0l1.085,2.2a.118.118,0,0,0,.089.064l2.428.353a.815.815,0,0,1,.453,1.39L9.621,8.169a.118.118,0,0,0-.035.1L10,10.692a.816.816,0,0,1-.8.953ZM6.594,9.7a.81.81,0,0,1,.379.094l2.171,1.141a.112.112,0,0,0,.124-.009.113.113,0,0,0,.047-.115L8.9,8.393a.816.816,0,0,1,.234-.721l1.757-1.713a.118.118,0,0,0-.066-.2L8.4,5.405a.814.814,0,0,1-.613-.446L6.7,2.76a.118.118,0,0,0-.211,0L5.4,4.959a.814.814,0,0,1-.614.446l-2.428.354a.117.117,0,0,0-.065.2L4.053,7.672a.816.816,0,0,1,.234.721l-.415,2.418a.118.118,0,0,0,.171.124L6.215,9.793A.814.814,0,0,1,6.594,9.7Z"
                    fill="#fff" />
            </g>
        </g>
    </g>
</svg>
