<svg xmlns="http://www.w3.org/2000/svg" xmlns:xlink="http://www.w3.org/1999/xlink" width="25" height="25" viewBox="0 0 25 25">
  <defs>
    <clipPath id="clip-path">
      <rect id="Rectangle_24053"  width="25" height="25" transform="translate(4756 4210)" fill="#a8a8a8"/>
    </clipPath>
  </defs>
  <g id="Mask_Group_193"  transform="translate(-4756 -4210)" clip-path="url(#clip-path)">
    <g id="svgexport-17_39_"  transform="translate(4756 4210)">
      <path id="Path_78723"  d="M18.359,1.465a5.919,5.919,0,0,0-3.7,1.278,8.421,8.421,0,0,0-2.163,2.6,8.42,8.42,0,0,0-2.163-2.6,5.919,5.919,0,0,0-3.7-1.278C2.855,1.465,0,4.561,0,8.668,0,13.1,3.562,16.139,8.954,20.734c.916.78,1.953,1.665,3.032,2.608a.782.782,0,0,0,1.029,0c1.079-.943,2.117-1.828,3.033-2.609C21.438,16.139,25,13.1,25,8.668,25,4.561,22.145,1.465,18.359,1.465Z" fill="#a8a8a8"/>
    </g>
  </g>
</svg>
