<svg xmlns="http://www.w3.org/2000/svg" xmlns:xlink="http://www.w3.org/1999/xlink" width="27" height="27" viewBox="0 0 27 27">
  <defs>
    <clipPath id="clip-path">
      <rect id="Rectangle_23634"  width="27" height="27" transform="translate(363 884)" fill="#fff"/>
    </clipPath>
  </defs>
  <g id="Mask_Group_225"  transform="translate(-363 -884)" clip-path="url(#clip-path)">
    <g id="svgexport-19_-_2023-05-28T123646.290"  transform="translate(362.975 884)">
      <path id="Path_42874"  d="M26.3,11.744l0,0L15.283.728a2.485,2.485,0,0,0-3.515,0L.759,11.736l-.011.011A2.485,2.485,0,0,0,2.4,15.982q.038,0,.077,0h.439v8.105A2.912,2.912,0,0,0,5.827,27h4.309a.791.791,0,0,0,.791-.791V19.854a1.329,1.329,0,0,1,1.327-1.327H14.8a1.329,1.329,0,0,1,1.327,1.327v6.354a.791.791,0,0,0,.791.791h4.309a2.912,2.912,0,0,0,2.909-2.909V15.986h.407A2.486,2.486,0,0,0,26.3,11.744Zm-1.12,2.4a.9.9,0,0,1-.639.265h-1.2a.791.791,0,0,0-.791.791v8.9a1.329,1.329,0,0,1-1.327,1.327H17.705V19.854A2.913,2.913,0,0,0,14.8,16.945H12.254a2.913,2.913,0,0,0-2.909,2.909v5.563H5.827A1.329,1.329,0,0,1,4.5,24.091v-8.9a.791.791,0,0,0-.791-.791H2.531l-.037,0a.9.9,0,0,1-.622-1.541h0L12.886,1.847a.9.9,0,0,1,1.278,0L25.175,12.857l.005,0A.906.906,0,0,1,25.178,14.139Zm0,0" fill="#fff"/>
    </g>
  </g>
</svg>
