<svg xmlns="http://www.w3.org/2000/svg" xmlns:xlink="http://www.w3.org/1999/xlink" width="25" height="25" viewBox="0 0 25 25">
  <defs>
    <clipPath id="clip-path">
      <rect id="Rectangle_23455" data-name="Rectangle 23455" width="25" height="25" transform="translate(101 873)" fill="#a8a8a8"/>
    </clipPath>
  </defs>
  <g id="Mask_Group_132" data-name="Mask Group 132" transform="translate(-101 -873)" clip-path="url(#clip-path)">
    <g id="svgexport-19_-_2023-05-24T004314.243" data-name="svgexport-19 - 2023-05-24T004314.243" transform="translate(101.001 873)">
      <path id="Path_42809" data-name="Path 42809" d="M24.326,10.874l0,0L14.126.674a2.3,2.3,0,0,0-3.255,0L.679,10.867l-.01.01A2.3,2.3,0,0,0,2.2,14.8q.035,0,.071,0h.406v7.5A2.7,2.7,0,0,0,5.371,25h3.99a.732.732,0,0,0,.732-.732V18.384a1.23,1.23,0,0,1,1.229-1.229h2.353A1.23,1.23,0,0,1,14.9,18.384v5.884a.732.732,0,0,0,.732.732h3.99a2.7,2.7,0,0,0,2.694-2.693V14.8H22.7a2.3,2.3,0,0,0,1.629-3.928Zm0,0" fill="#a8a8a8"/>
    </g>
  </g>
</svg>
