<svg xmlns="http://www.w3.org/2000/svg" xmlns:xlink="http://www.w3.org/1999/xlink" width="25" height="25" viewBox="0 0 25 25">
  <defs>
    <linearGradient id="linear-gradient" x1="0.5" x2="0.5" y2="1" gradientUnits="objectBoundingBox">
      <stop offset="0" stop-color="#98eca8"/>
      <stop offset="1" stop-color="#6eb37b"/>
    </linearGradient>
    <clipPath id="clip-path">
      <rect id="Rectangle_23620" data-name="Rectangle 23620" width="25" height="25" transform="translate(-2 -2)" fill="url(#linear-gradient)"/>
    </clipPath>
  </defs>
  <g id="Mask_Group_202" data-name="Mask Group 202" transform="translate(2 2)" clip-path="url(#clip-path)">
    <g id="svgexport-19" transform="translate(0.345)">
      <path id="Path_42838" data-name="Path 42838" d="M11.9,14.8a1.021,1.021,0,0,1-.616-.138.64.64,0,0,1-.177-.525,2.727,2.727,0,0,1,.057-.477,5.256,5.256,0,0,1,.124-.535l.563-1.938a2.934,2.934,0,0,0,.115-.587c0-.215.029-.363.029-.449a1.255,1.255,0,0,0-.444-1,1.866,1.866,0,0,0-1.26-.382,3.27,3.27,0,0,0-.955.157q-.506.157-1.064.377l-.162.63c.11-.038.243-.081.4-.129a1.623,1.623,0,0,1,.449-.067.916.916,0,0,1,.606.148.692.692,0,0,1,.157.52,2.264,2.264,0,0,1-.052.477q-.05.251-.129.53l-.568,1.947a5.564,5.564,0,0,0-.11.549,3.409,3.409,0,0,0-.033.477,1.246,1.246,0,0,0,.477.988,1.909,1.909,0,0,0,1.279.391,2.944,2.944,0,0,0,.955-.138q.406-.138,1.083-.4l.153-.6a2.637,2.637,0,0,1-.377.124,1.812,1.812,0,0,1-.5.043Zm.6-9.187a1.452,1.452,0,0,0-1.909,0,1.141,1.141,0,0,0,0,1.728,1.432,1.432,0,0,0,1.909,0,1.146,1.146,0,0,0,0-1.728Z" fill="url(#linear-gradient)"/>
      <path id="Path_42839" data-name="Path 42839" d="M10.5,0A10.5,10.5,0,1,0,21,10.5,10.5,10.5,0,0,0,10.5,0Zm0,20.045A9.545,9.545,0,1,1,20.045,10.5,9.545,9.545,0,0,1,10.5,20.045Z" fill="url(#linear-gradient)"/>
    </g>
  </g>
</svg>
