<svg xmlns="http://www.w3.org/2000/svg" xmlns:xlink="http://www.w3.org/1999/xlink" width="90"
    height="90" viewBox="0 0 90 90">
    <defs>
        <clipPath id="clip-path">
            <circle id="Ellipse_18" cx="20" cy="20" r="20" transform="translate(47.324 221.324)" />
        </clipPath>
    </defs>
    <g id="Group_44519" transform="translate(-30 -204)">
        <g id="Ellipse_17" transform="translate(30 204)" fill="#fff" stroke="#000" stroke-width="2">
            <circle cx="45" cy="45" r="45" stroke="none" />
            <circle cx="45" cy="45" r="44" fill="none" />
        </g>
        <g id="Mask_Group_5" transform="translate(7.676 7.676)" clip-path="url(#clip-path)">
            <g id="svgexport-17_32_" transform="translate(53.121 226.807)">
                <path id="Path_6"
                    d="M28.838,9.157a9.157,9.157,0,1,0-17.185,4.407L.691,24.515a.9.9,0,0,0-.177,1,.64.64,0,0,0,.142.2l2.455,2.455a.7.7,0,0,0,.2.142.891.891,0,0,0,1-.177l1.517-1.517,2.184,2.184a.7.7,0,0,0,.2.142.891.891,0,0,0,1-.177l2.42-2.42a.7.7,0,0,0,.142-.2.891.891,0,0,0-.177-1L9.465,23l5.806-5.809A9.158,9.158,0,0,0,28.838,9.157ZM22.89,12.369a4.548,4.548,0,1,1,1.326-3.212A4.47,4.47,0,0,1,22.89,12.369Z"
                    transform="translate(-0.434 0)" />
            </g>
        </g>
    </g>
</svg>
