<svg xmlns="http://www.w3.org/2000/svg" xmlns:xlink="http://www.w3.org/1999/xlink" width="19"
    height="19" viewBox="0 0 19 19">
    <defs>
        <clipPath id="clip-path">
            <rect id="Rectangle_23706" width="19" height="19" fill="#848484" stroke="#707070"
                stroke-width="1" />
        </clipPath>
    </defs>
    <g id="Mask_Group_72" clip-path="url(#clip-path)">
        <g id="svgexport-17_21_">
            <path id="Path_42924"
                d="M7.263,9.948,6.149,4.381A.557.557,0,0,0,5.6,3.934H4.49a.557.557,0,0,0-.546.447L2.831,9.947a.557.557,0,1,0,1.092.218l.356-1.779H5.815l.356,1.779a.557.557,0,0,0,1.092-.218ZM4.5,7.273l.445-2.227h.2l.445,2.227ZM16.18,8.387H14.51V7.83a.557.557,0,0,0-1.113,0v.557h-1.67a.557.557,0,0,0,0,1.113h.135a6.964,6.964,0,0,0,1.32,2.441c-.428.391-.86.712-1.246,1.02a.557.557,0,1,0,.7.869c.388-.31.852-.655,1.322-1.086.47.432.936.777,1.322,1.086a.557.557,0,1,0,.7-.869c-.384-.308-.818-.629-1.246-1.02A6.964,6.964,0,0,0,16.045,9.5h.135a.557.557,0,0,0,0-1.113Zm-2.227,2.737A5.864,5.864,0,0,1,13.037,9.5h1.832a5.863,5.863,0,0,1-.916,1.627Z"
                fill="#848484" />
            <path id="Path_42925"
                d="M17.33,3.377H9.3L9.061,1.463A1.673,1.673,0,0,0,7.4,0H1.67A1.672,1.672,0,0,0,0,1.67V13.953a1.672,1.672,0,0,0,1.67,1.67H6.364L6.6,17.537A1.674,1.674,0,0,0,8.256,19H17.33A1.672,1.672,0,0,0,19,17.33V5.047A1.672,1.672,0,0,0,17.33,3.377ZM1.67,14.51a.557.557,0,0,1-.557-.557V1.67a.557.557,0,0,1,.557-.557H7.4a.557.557,0,0,1,.552.487L9.565,14.51Zm6,2.625-.186-1.512H8.979Zm10.215.195a.557.557,0,0,1-.557.557H8.493l2.119-2.451a.556.556,0,0,0,.135-.446L9.438,4.49H17.33a.557.557,0,0,1,.557.557Z"
                fill="#848484" />
        </g>
    </g>
</svg>
