<svg xmlns="http://www.w3.org/2000/svg" xmlns:xlink="http://www.w3.org/1999/xlink" width="19" height="19" viewBox="0 0 19 19">
  <defs>
    <clipPath id="clip-path">
      <rect id="Rectangle_23883" data-name="Rectangle 23883" width="19" height="19" transform="translate(40 208)" fill="#231313"/>
    </clipPath>
  </defs>
  <g id="Mask_Group_159" data-name="Mask Group 159" transform="translate(-40 -208)" clip-path="url(#clip-path)">
    <g id="svgexport-19_-_2023-05-17T170659.907" data-name="svgexport-19 - 2023-05-17T170659.907" transform="translate(40 208)">
      <path id="Subtraction_1" data-name="Subtraction 1" d="M-6605.875-3193a.591.591,0,0,1-.421-.174,37.055,37.055,0,0,1-3.455-4.1c-2.157-2.986-3.25-5.543-3.25-7.6a7.133,7.133,0,0,1,7.125-7.125,7.133,7.133,0,0,1,7.125,7.125c0,2.056-1.093,4.613-3.25,7.6a37.445,37.445,0,0,1-3.454,4.1A.591.591,0,0,1-6605.875-3193Zm0-14.437a2.565,2.565,0,0,0-2.562,2.563,2.565,2.565,0,0,0,2.563,2.563,2.565,2.565,0,0,0,2.563-2.562A2.565,2.565,0,0,0-6605.875-3207.437Z" transform="translate(6615.375 3212)" fill="#231313"/>
    </g>
  </g>
</svg>
