<svg xmlns="http://www.w3.org/2000/svg" xmlns:xlink="http://www.w3.org/1999/xlink" width="19" height="19" viewBox="0 0 19 19">
  <defs>
    <clipPath id="clip-path">
      <rect id="Rectangle_23890" data-name="Rectangle 23890" width="19" height="19" transform="translate(30 699)" fill="#3b4854"/>
    </clipPath>
  </defs>
  <g id="Mask_Group_162" data-name="Mask Group 162" transform="translate(-30 -699)" clip-path="url(#clip-path)">
    <g id="svgexport-17_49_" data-name="svgexport-17 (49)" transform="translate(30 699)">
      <path id="Path_43061" data-name="Path 43061" d="M14.844,7.125H14.25V4.75a4.75,4.75,0,0,0-9.5,0V7.125H4.156A1.784,1.784,0,0,0,2.375,8.906v8.313A1.783,1.783,0,0,0,4.156,19H14.844a1.783,1.783,0,0,0,1.781-1.781V8.906A1.783,1.783,0,0,0,14.844,7.125ZM6.333,4.75a3.167,3.167,0,0,1,6.333,0V7.125H6.333Zm3.958,8.488v1.8a.792.792,0,1,1-1.583,0v-1.8a1.583,1.583,0,1,1,1.583,0Z" fill="#3b4854"/>
    </g>
  </g>
</svg>
