<svg xmlns="http://www.w3.org/2000/svg" width="16.981" height="19" viewBox="0 0 16.981 19">
    <g id="svgexport-17_44_" transform="translate(-27.204)">
        <path id="Path_43047"
            d="M35.558,15.974v.947a2.027,2.027,0,0,1-1.036,1.794,2.027,2.027,0,0,1-2.072,0l-4.21-2.431A2.027,2.027,0,0,1,27.2,14.49V2.072A2.074,2.074,0,0,1,29.276,0h9.273a2.074,2.074,0,0,1,2.072,2.072V4.69a.68.68,0,1,1-1.361,0V2.072a.712.712,0,0,0-.712-.712H30.423l4.1,2.367a2.027,2.027,0,0,1,1.036,1.794v9.092h2.991a.712.712,0,0,0,.712-.711V11.607a.68.68,0,1,1,1.361,0V13.9a2.074,2.074,0,0,1-2.072,2.072Zm6.3-7.307-.749.749a.68.68,0,0,0,.962.962l1.91-1.911a.68.68,0,0,0,0-.962L42.075,5.6a.68.68,0,1,0-.962.962l.749.749H36.843a.68.68,0,0,0,0,1.361h5.019Z"
            fill-rule="evenodd" />
    </g>
</svg>
