<svg xmlns="http://www.w3.org/2000/svg" width="33.235" height="12.515" viewBox="0 0 33.235 12.515">
    <g id="svgexport-19_70_" transform="translate(0)">
        <path id="Path_1"
            d="M31.159,6.564A1.564,1.564,0,0,0,29.595,5H-.511A1.564,1.564,0,0,0-2.076,6.564,1.564,1.564,0,0,0-.511,8.129H29.595A1.564,1.564,0,0,0,31.159,6.564Zm0,9.386a1.564,1.564,0,0,0-1.564-1.564H16.715a1.564,1.564,0,1,0,0,3.129h12.88A1.564,1.564,0,0,0,31.159,15.951Z"
            transform="translate(2.076 -5)" fill="#fff" fill-rule="evenodd" />
    </g>
</svg>
