<svg xmlns="http://www.w3.org/2000/svg" xmlns:xlink="http://www.w3.org/1999/xlink" width="19" height="19" viewBox="0 0 19 19">
  <defs>
    <clipPath id="clip-path">
      <rect id="Rectangle_2308" data-name="Rectangle 2308" width="19" height="19" transform="translate(40 492)" fill="#231313"/>
    </clipPath>
  </defs>
  <g id="Mask_Group_55" data-name="Mask Group 55" transform="translate(-40 -492)" clip-path="url(#clip-path)">
    <g id="svgexport-19_-_2023-05-15T215747.581" data-name="svgexport-19 - 2023-05-15T215747.581" transform="translate(40 492)">
      <path id="Path_3701" data-name="Path 3701" d="M5.938,4.75h7.125a.594.594,0,0,0,.594-.594V2.375a.594.594,0,0,0-.594-.594H11.8a2.375,2.375,0,0,0-4.6,0H5.938a.594.594,0,0,0-.594.594V4.156A.594.594,0,0,0,5.938,4.75Z" fill="#231313"/>
      <path id="Path_3702" data-name="Path 3702" d="M16.031,2.969H14.844V4.156a1.783,1.783,0,0,1-1.781,1.781H5.938A1.783,1.783,0,0,1,4.156,4.156V2.969H2.969a.594.594,0,0,0-.594.594V18.406A.594.594,0,0,0,2.969,19H16.031a.594.594,0,0,0,.594-.594V3.563A.594.594,0,0,0,16.031,2.969Zm-9.5,13.063H5.938a.594.594,0,0,1,0-1.187h.594a.594.594,0,0,1,0,1.188Zm0-2.375H5.938a.594.594,0,0,1,0-1.187h.594a.594.594,0,0,1,0,1.188Zm0-2.375H5.938a.594.594,0,0,1,0-1.187h.594a.594.594,0,0,1,0,1.188Zm0-2.375H5.938a.594.594,0,0,1,0-1.187h.594a.594.594,0,0,1,0,1.188Zm6.531,7.125H8.906a.594.594,0,0,1,0-1.187h4.156a.594.594,0,0,1,0,1.188Zm0-2.375H8.906a.594.594,0,0,1,0-1.187h4.156a.594.594,0,0,1,0,1.188Zm0-2.375H8.906a.594.594,0,0,1,0-1.187h4.156a.594.594,0,0,1,0,1.188Zm0-2.375H8.906a.594.594,0,0,1,0-1.187h4.156a.594.594,0,0,1,0,1.188Z" fill="#231313"/>
    </g>
  </g>
</svg>
