<svg xmlns="http://www.w3.org/2000/svg" width="300.793" height="290.493"
    viewBox="0 0 300.793 290.493">
    <g id="Group_44678" transform="translate(-114.952 -79.661)">
        <g id="Group_5" transform="translate(115.458 79.661)">
            <path id="Path_78724"
                d="M105.959.053c56.693-1.8,101.195,42.7,99.4,99.4S156.143,203.559,99.45,205.357s-101.195-42.7-99.4-99.4S49.266,1.85,105.959.053Z"
                transform="translate(9.795 145.246) rotate(-45)" fill="#eaeaea" />
            <g id="Group_4" transform="translate(0 12.393)">
                <path id="Path_1"
                    d="M247.217,253.122c1.87-.2,3.5-.37,5.134-.563a72.769,72.769,0,0,1,13.682-.254,124.808,124.808,0,0,1,19.075,2.9c.182.041.368.07.548.12.457.124.663-.052.8-.509.344-1.186.743-2.355,1.126-3.529,3.188-9.771,9.667-16.5,18.952-20.729a38.287,38.287,0,0,1,18.832-3.2,29.913,29.913,0,0,1,3.707.506c.146-1.541.324-3.023.421-4.51a49.13,49.13,0,0,1,4.923-18.09c.66-1.384,1.276-2.79,1.8-4.235a19.8,19.8,0,0,0-.258-14.482,20.737,20.737,0,0,0-5.366-7.261c-3.609-3.414-8.068-5.221-12.713-6.661a65.893,65.893,0,0,0-11.786-2.224c-3.753-.448-7.5-.909-11.271-1.256q-4.421-.409-8.854-.539-10.109-.3-20.22.006a54.285,54.285,0,0,0-13.663,1.767,22.953,22.953,0,0,0-9.342,4.713,20.519,20.519,0,0,0-7.009,16.265,50.393,50.393,0,0,0,2.913,14.475c1.011,3.133,2.211,6.206,2.91,9.434a42.906,42.906,0,0,1,1.052,6.873,8.244,8.244,0,0,1-.007,1.121.892.892,0,0,1-.845.893.876.876,0,0,1-1.008-.83c-.138-.887-.172-1.789-.307-2.677a62.56,62.56,0,0,0-2.942-11.395,75.224,75.224,0,0,1-3.56-13.206c-1.025-6.439-.243-12.535,3.429-18.088a21.557,21.557,0,0,1,9.171-7.853,39.281,39.281,0,0,1,13.444-3.313,245.688,245.688,0,0,1,27.058-.309,215.611,215.611,0,0,1,25.012,2.565,46.738,46.738,0,0,1,13.761,4.327,26.369,26.369,0,0,1,10.617,9.446,20.654,20.654,0,0,1,3.121,13.086,25.6,25.6,0,0,1-2.441,8.709c-.721,1.6-1.406,3.225-2.122,4.831a45.008,45.008,0,0,0-3.392,14.7c-.1,1.231-.154,2.465-.27,3.695a.919.919,0,0,0,.684,1.093,18.79,18.79,0,0,1,3.349,1.818,11.957,11.957,0,0,1,4.424,14.3,19.949,19.949,0,0,1-3.811,6.05,3.607,3.607,0,0,0-.744,1.346c-1.454,4.367-2.947,8.721-4.411,13.083-2.119,6.315-4.367,12.586-6.058,19.037-.978,3.73-1.817,7.489-2.544,11.276a29.683,29.683,0,0,0,.234,11.7,83.707,83.707,0,0,1,1.714,12.335,10.564,10.564,0,0,1-.22,3.238c-.305,1.176-.809,2.227-2.114,2.516a3.124,3.124,0,0,1-3.144-1.318,7.623,7.623,0,0,1-1.318-2.46,55.027,55.027,0,0,1-1.962-8.408,18.326,18.326,0,0,0-.737-3.052c-.439-1.182-.958-1.445-2.166-1.128a9.588,9.588,0,0,0-2.352,1.047,105.892,105.892,0,0,1-13.01,6.334,2.449,2.449,0,0,1-.961.28.9.9,0,0,1-.881-.577.837.837,0,0,1,.237-1.019,2.921,2.921,0,0,1,.763-.461c4.591-2.03,9.033-4.351,13.416-6.792a9.78,9.78,0,0,1,2.495-1,3.454,3.454,0,0,1,4.313,2.1,18.393,18.393,0,0,1,1.117,4.338,57.511,57.511,0,0,0,1.578,7,8.263,8.263,0,0,0,.891,2.054,2.144,2.144,0,0,0,.782.787.488.488,0,0,0,.745-.234,3.783,3.783,0,0,0,.315-1.417,31.389,31.389,0,0,0-.363-5.932c-.424-3.306-.994-6.587-1.641-9.855a27.091,27.091,0,0,1,.044-9.936,167.426,167.426,0,0,1,7.187-26.515c1.509-4.348,2.969-8.712,4.449-13.07.116-.339.224-.68.334-1.016a.453.453,0,0,0-.491.111,59.721,59.721,0,0,1-13.988,7.306,40.09,40.09,0,0,1-5.448,1.739,1.555,1.555,0,0,0-1.3,1.284c-2.708,10.007-5.807,19.9-8.835,29.813a64.752,64.752,0,0,1-2.3,6.329,21.382,21.382,0,0,1-7.568,9.55,15.76,15.76,0,0,0-2.276,1.824,6.158,6.158,0,0,0-1.492,2.22c-.233.645-.144.778.545.864a10.294,10.294,0,0,1,2.712.676,4.833,4.833,0,0,1,3.263,4.767c.008,1.573.015,3.147,0,4.719a93.249,93.249,0,0,1-.934,12.535,8.913,8.913,0,0,1-.7,2.59c-.838,1.754-2.6,1.884-3.711.279a5.689,5.689,0,0,1-.793-2.086,49.765,49.765,0,0,1-.841-7.357c-.287-4.409-.7-8.805-1.2-13.2-.089-.795-.1-.813-.9-.737-2.313.218-4.589.681-6.879,1.058a73.365,73.365,0,0,1-14.884.9c-2.1-.083-4.191-.175-6.286-.248a91.228,91.228,0,0,1-11.041-1.229c-5.1-.809-10.2-1.612-15.224-2.838a138.677,138.677,0,0,1-15.592-4.621c-1.016-.378-.885-.525-1.418.535-1.565,3.11-3.08,6.244-4.633,9.358q-1.478,2.967-3.2,5.8a12.568,12.568,0,0,1-2.1,2.763,2.4,2.4,0,0,1-2.732.78,2.433,2.433,0,0,1-1.349-2.609,12.911,12.911,0,0,1,.769-3.839c1.374-4.042,3.05-7.967,4.64-11.925.67-1.667,1.347-3.329,1.94-5.027a17.311,17.311,0,0,0,.378-9.953c-.855-3.573-2.089-7.029-3.144-10.54a91.392,91.392,0,0,1-3.13-13.665,56.849,56.849,0,0,1-.524-6.039,20.274,20.274,0,0,0-1.988-8.339,34.934,34.934,0,0,1-2.881-7.3,20.79,20.79,0,0,1-.394-7.357,10.65,10.65,0,0,1,9.837-9.353,3.705,3.705,0,0,0,1.845-.677,45.178,45.178,0,0,1,19.283-7.814,34.147,34.147,0,0,1,9.179-.318c5.5.634,9.313,3.592,11.643,8.551a20.636,20.636,0,0,1,1.653,10.969A18.792,18.792,0,0,1,247.217,253.122Zm64.581,9.158a1.953,1.953,0,0,0,.876-.1,42.9,42.9,0,0,0,5.5-1.931c5.569-2.289,10.909-4.945,15.173-9.365a20.787,20.787,0,0,0,4.342-6.361,9.811,9.811,0,0,0-3.728-12.14,16.225,16.225,0,0,0-6.507-2.637,38.641,38.641,0,0,0-11.192.065,34.111,34.111,0,0,0-11.395,3.952,30.134,30.134,0,0,0-14.007,14.94,67.5,67.5,0,0,0-3.761,12.212c-1.412,6.471-2.8,12.947-4.694,19.3a45.383,45.383,0,0,1-3.023,7.725,18.883,18.883,0,0,1-13.439,10.429,36.542,36.542,0,0,1-7.142.7,102.674,102.674,0,0,1-21.318-1.969,36.3,36.3,0,0,1-10.358-3.573c-4.211-2.288-7.354-5.527-8.715-10.227a37.519,37.519,0,0,1-1.474-8.728c-.225-4.9-.529-9.8-.478-14.706,0-.246.09-.525-.166-.768-.3,0-.5.25-.744.4a6.708,6.708,0,0,1-2.593,1.015,8.485,8.485,0,0,1-6.447-1.7c-6.766-4.962-7.381-14.584-3.35-20.315.134-.19.4-.338.29-.756a7.963,7.963,0,0,0-4.9,5.216,16.018,16.018,0,0,0-.1,7.782,29.485,29.485,0,0,0,2.747,7.1,22.669,22.669,0,0,1,2.289,9.639,50.425,50.425,0,0,0,.568,6.147,92.755,92.755,0,0,0,3.118,13.208c1.091,3.577,2.384,7.1,3.149,10.769a19.734,19.734,0,0,1,.435,6.132,27.133,27.133,0,0,1-1.976,7.116c-1.636,4.141-3.3,8.271-4.941,12.411a21.161,21.161,0,0,0-1.148,3.752,2.888,2.888,0,0,0-.029,1.609,2.23,2.23,0,0,0,.96-.9,27.074,27.074,0,0,0,2.157-3.415c2.024-3.547,3.724-7.258,5.518-10.922.543-1.11,1.116-2.2,1.711-3.286s1.114-1.242,2.317-.795c.772.287,1.543.574,2.324.831,4.161,1.364,8.368,2.6,12.626,3.59,10.475,2.437,21.036,4.339,31.834,4.623a83.439,83.439,0,0,0,12.9-.357c3.525-.454,7.032-1.048,10.55-1.56a.656.656,0,0,0,.631-.637,7.936,7.936,0,0,1,2.59-4.362,25.606,25.606,0,0,1,2.54-2.037,18.676,18.676,0,0,0,5.911-7.365,52.925,52.925,0,0,0,2.6-6.931c2.622-8.588,5.313-17.157,7.731-25.807.352-1.257.71-2.513,1.074-3.8a3.476,3.476,0,0,0-1.613.033,16.179,16.179,0,0,1-6.143-.127c-5-1.289-7.7-4.135-8.274-8.635a19.41,19.41,0,0,1,1.629-11.078c1.835-3.8,4.768-6.173,9.155-6.433,6.006-.356,8.989,3.278,9.908,7.23a16.062,16.062,0,0,1,.37,3.343,42.381,42.381,0,0,1-1.537,10.751A5.536,5.536,0,0,0,311.8,262.281Zm-26.1-4.916c-.449-.1-.808-.192-1.17-.262-3.71-.72-7.441-1.3-11.176-1.875a84.389,84.389,0,0,0-26.054.079,1.687,1.687,0,0,0-1.2.709,40.071,40.071,0,0,1-8.674,8.57,32.779,32.779,0,0,1-8.758,4.721,7.35,7.35,0,0,1-2.87.4,2.638,2.638,0,0,1-2.516-3.6,5.567,5.567,0,0,1,.938-1.778,14.161,14.161,0,0,1,2.994-2.858,47.462,47.462,0,0,1,16-7.39,3.153,3.153,0,0,0,2.145-1.731,19.812,19.812,0,0,0,2-10.011,16.405,16.405,0,0,0-1.587-6.838,11.725,11.725,0,0,0-9.063-7.09,26.443,26.443,0,0,0-6.606-.13,42.419,42.419,0,0,0-19.263,6.514c-.2.126-.459.206-.53.462.07.069.092.106.124.118.243.1.488.184.731.277a12.446,12.446,0,0,1,6.279,5.048,15.065,15.065,0,0,1,1.661,13.746,11.869,11.869,0,0,0-.586,4.282c.041,4.492.249,8.978.414,13.467a56.437,56.437,0,0,0,1.082,8.9,14.75,14.75,0,0,0,7.436,10.184,27.847,27.847,0,0,0,7.027,2.918,82.712,82.712,0,0,0,13.821,2.323,77.929,77.929,0,0,0,14.8.138A17.127,17.127,0,0,0,277.7,286.543a44.423,44.423,0,0,0,2.564-6.582C282.494,272.575,284.007,265.016,285.7,257.365Zm25.864-6.886a14.347,14.347,0,0,0-.272-3.124,6.708,6.708,0,0,0-4.03-5.429c-2.453-1.006-6.753-.939-9.3,2a11.706,11.706,0,0,0-2.188,3.493,19.731,19.731,0,0,0-1.184,8.044c.21,4.228,2.475,7.022,7.383,7.977a20.331,20.331,0,0,0,6.8-.312c.459-.065.6-.376.7-.758.218-.87.452-1.736.662-2.607A44.621,44.621,0,0,0,311.564,250.479Zm-93.687-.936a13.885,13.885,0,0,0-1.743-6.812,10.538,10.538,0,0,0-7.51-5.524,1.97,1.97,0,0,0-1.913.567c-3.523,3.276-4.434,7.351-3.565,11.9a11.718,11.718,0,0,0,4.59,7.356,6.926,6.926,0,0,0,3.625,1.388,4.959,4.959,0,0,0,4.923-2.89A13.144,13.144,0,0,0,217.878,249.543Zm24.98,6.978a.445.445,0,0,0-.428-.032,45.379,45.379,0,0,0-14.266,6.925,11.661,11.661,0,0,0-2.1,2.016,3.933,3.933,0,0,0-.685,1.154c-.225.634-.053.923.613,1a3.555,3.555,0,0,0,.892-.039,10.133,10.133,0,0,0,2.773-.882,37.256,37.256,0,0,0,12.937-9.673A.752.752,0,0,0,242.858,256.521Zm48.371,83.948a7.425,7.425,0,0,0,.566-2.426,105.281,105.281,0,0,0,.827-10.958c.07-1.756.086-3.515.092-5.273a2.005,2.005,0,0,0-.515-1.653,5.6,5.6,0,0,0-2.641-1.4c-.761-.152-.833-.1-.744.7.534,4.758.937,9.525,1.256,14.3a39.9,39.9,0,0,0,.605,5.234A2.586,2.586,0,0,0,291.229,340.469Z"
                    transform="translate(-110.645 -68.458)" fill="#0f0f0f" stroke="#000"
                    stroke-width="1" />
                <path id="Path_2"
                    d="M159.164,241.771a3.353,3.353,0,0,0-1.7-2.1,6.947,6.947,0,0,0-2.331-.773,51.016,51.016,0,0,0-5.689-.623c-4.18-.323-8.362-.607-12.541-.939a23.366,23.366,0,0,1-5.078-.885,9.309,9.309,0,0,1-3.428-1.861,4.619,4.619,0,0,1-1.479-5.262,9.924,9.924,0,0,1,4.53-5.514,30.076,30.076,0,0,1,10.257-3.792,83.967,83.967,0,0,1,16.435-1.208,96.733,96.733,0,0,1,24.757,3.247,25.964,25.964,0,0,1,5.773,2.142,13.241,13.241,0,0,1,2.416,1.627,7.166,7.166,0,0,1,.985,10,13.957,13.957,0,0,1-4.316,3.535,26.442,26.442,0,0,1-7.825,2.685,108.159,108.159,0,0,1-16.815,2.006,3.249,3.249,0,0,1-.337.006c-.47-.029-.68.119-.595.65.1.626.092,1.269.157,1.9a54.989,54.989,0,0,1-.148,9.086c-.208,3.212-.458,6.422-.624,9.637-.383,7.37-.336,14.747-.406,22.123a6,6,0,0,1-.044,1.007,1.072,1.072,0,0,1-1.1.926,1.03,1.03,0,0,1-.944-.95,3.181,3.181,0,0,1-.028-.56c.079-7.263-.036-14.531.342-21.788.2-3.888.535-7.768.759-11.653a52.964,52.964,0,0,0-.093-9.535c-.058-.481-.11-.852-.754-.864a47.083,47.083,0,0,0-9.737.5,13.914,13.914,0,0,0-8.189,4.954,45.349,45.349,0,0,0-5.907,9.647c-2.819,5.79-5.113,11.812-7.775,17.672-1.223,2.69-2.377,5.412-3.566,8.119-.279.635-.7.872-1.205.7a1.036,1.036,0,0,1-.59-1.3,10.248,10.248,0,0,1,.46-1.263c2.261-5.788,4.916-11.408,7.3-17.144,1.565-3.77,3.259-7.478,5.189-11.077a42.742,42.742,0,0,1,3.964-6.118,16.9,16.9,0,0,1,12.591-6.68,56.753,56.753,0,0,1,6.4-.184A1.8,1.8,0,0,0,159.164,241.771Zm-1.711-20.827a72.973,72.973,0,0,0-16.128,1.338,26.108,26.108,0,0,0-8.76,3.342,7.918,7.918,0,0,0-3.45,3.868c-.69,1.787-.353,2.858,1.251,3.945a9.927,9.927,0,0,0,4.1,1.444c3.221.52,6.481.62,9.725.887,3.468.285,6.948.421,10.4.88,3.131.415,5.7,1.56,6.833,4.795a.692.692,0,0,0,.785.479c.373-.017.748-.018,1.122-.027a102.9,102.9,0,0,0,11.064-1.041,50.54,50.54,0,0,0,9.1-1.948,15.144,15.144,0,0,0,6.4-3.808,5.118,5.118,0,0,0,1.287-5.582,5.882,5.882,0,0,0-2.663-2.941,20.489,20.489,0,0,0-5.479-2.26A93.54,93.54,0,0,0,157.453,220.943Z"
                    transform="translate(-115.049 -70.328)" stroke="#000" stroke-width="1" />
                <path id="Path_3"
                    d="M190.062,282.538a1.085,1.085,0,0,1-.724,1.205,1.006,1.006,0,0,1-1.215-.562,3.416,3.416,0,0,1-.256-.738c-2.446-9.379-5.258-18.659-7.6-28.064-.807-3.23-1.574-6.472-2.358-9.708a2.852,2.852,0,0,1-.082-.441.949.949,0,0,1,.687-1.128.912.912,0,0,1,1.081.6,6.387,6.387,0,0,1,.3.962c2.117,7.761,4.018,15.58,6.227,23.318,1.294,4.534,2.489,9.1,3.725,13.646C189.931,281.951,190,282.281,190.062,282.538Z"
                    transform="translate(-111.725 -68.535)" stroke="#707070" stroke-width="1" />
                <g id="Group_2" transform="translate(128.532)">
                    <path id="Path_4"
                        d="M288.9,109.163a1.491,1.491,0,0,0-.015.342,51.918,51.918,0,0,1,.792,8.032,48.19,48.19,0,0,1-.734,10.389,13.562,13.562,0,0,1-3.528,7.386,4.142,4.142,0,0,1-.547.56,11.847,11.847,0,0,1-5.956,2.376,21.541,21.541,0,0,1-9.958-1.732,55.9,55.9,0,0,1-11.023-6.207c-1.153-.819-2.164-1.839-3.259-2.782a7.827,7.827,0,0,0-1.722,1.237c-1.472,1.275-3.087,2.36-4.644,3.518-1.8,1.338-3.576,2.7-5.464,3.928-1.375.892-2.783,1.752-4.089,2.755a1.646,1.646,0,0,1-1.025.4.909.909,0,0,1-.884-1.375,1.753,1.753,0,0,1,.8-.754,59.456,59.456,0,0,0,6.2-4.424c1.051-.84,2.206-1.534,3.281-2.345,1.82-1.376,3.542-2.883,5.449-4.144a2.747,2.747,0,0,0,.417-.37.361.361,0,0,0,.022-.571,12.1,12.1,0,0,1-1.825-3.454,7.63,7.63,0,0,1,.082-5.694,11.833,11.833,0,0,1,2.628-4.011,24.74,24.74,0,0,1,6.158-4.444c1.843-.99,3.771-1.8,5.679-2.661,1.889-.849,3.871-1.378,5.812-2.037a5.877,5.877,0,0,1,3.326-.187,2.3,2.3,0,0,1,1.816,3.123,11.493,11.493,0,0,1-2.424,3.873,25.56,25.56,0,0,1-2.3,2.442c-2.146,2.086-4.308,4.157-6.574,6.113q-3.82,3.3-7.674,6.556c-.4.337-.833.625-1.282.96a23.355,23.355,0,0,0,5.525,4.388c1.408.848,2.809,1.712,4.277,2.465a36.376,36.376,0,0,0,7.3,2.856,13.137,13.137,0,0,0,6.987.038,7.834,7.834,0,0,0,4.99-4.368,17.665,17.665,0,0,0,1.636-6.039A47.43,47.43,0,0,0,287.26,114c-.178-1.41-.216-2.837-.518-4.232-.142-.657-.321-1.306-.455-1.964a.99.99,0,0,0-.548-.663c-1.642-.976-3.185-2.1-4.726-3.223A16.476,16.476,0,0,1,277.919,101c-1.934-2.391-1.746-5.115.621-7.3a7.569,7.569,0,0,1,7.762-1.969,6.154,6.154,0,0,1,4.608,4.737,7.75,7.75,0,0,1-.271,3.77,21.087,21.087,0,0,1-2.131,4.563c-.563.993-.569,1,.434,1.623,2.7,1.678,5.551,3.1,8.356,4.6,2.508,1.339,5.051,2.613,7.535,3.994,4.708,2.618,9.376,5.307,14.076,7.937,4.505,2.521,9.045,4.981,13.542,7.516,2.248,1.267,4.451,2.616,6.65,3.969,5.642,3.473,11.379,6.78,17.293,9.767a80.038,80.038,0,0,0,13.067,5.351c2.117.635,2.064.83,2.189-1.584a9.979,9.979,0,0,1,2.126-6.045,4.4,4.4,0,0,1,7.281.229c3.131,4.251-.05,8.856-3.427,9.844a11.423,11.423,0,0,1-3.411.537c-.537-.008-.731.194-.712.724.069,1.983.112,3.967.17,5.951.007.261.05.521.052.783.034,4.191.03,8.382.1,12.572.092,5.2.1,10.4.164,15.605.023,1.83.016,3.663.054,5.493.064,2.994.014,5.994.187,8.98.138,2.394.038,4.793.214,7.176s.06,4.792.22,7.177c.143,2.137.006,4.261,0,6.39-.015,3.032-.2,6.061-.2,9.088,0,2.7-.234,5.381-.208,8.07.028,2.734-.227,5.457-.224,8.184,0,2.024-.218,4.03-.27,6.044-.1,4.005-.515,7.988-.833,11.976a68.779,68.779,0,0,1-1.4,8.867c-.362,1.7-.732,1.477,1.165,1.993a32.384,32.384,0,0,1,9.064,3.824c1.2.764,2.342,1.612,3.465,2.483a53.293,53.293,0,0,1,4.929,4.245,12.4,12.4,0,0,1,3.016,4.14c.476,1.206.172,1.693-1.1,2.022a52.885,52.885,0,0,1-5.844,1.048c-5.23.753-10.5.988-15.76,1.371-.821.06-1.646.069-2.47.092-3.254.092-6.5.248-9.759.315-2.513.051-5.007-.151-7.508-.2-4.025-.083-7.949-.906-11.915-1.42a5.306,5.306,0,0,1-1.717-.5,1.007,1.007,0,0,1-.547-1.217.94.94,0,0,1,.971-.772,3.757,3.757,0,0,1,.889.1,77.052,77.052,0,0,0,14.351,1.77,149.335,149.335,0,0,0,15.7-.315c.747-.047,1.5-.087,2.245-.091,3.034-.019,6.056-.329,9.066-.615,3.2-.3,6.424-.442,9.59-1.063.429-.085.855-.182,1.383-.3a10.361,10.361,0,0,0-1.607-2.238,41.512,41.512,0,0,0-11.247-8.453,32.991,32.991,0,0,0-6.522-2.386c-.663-.174-.83.087-1.031.606a23.158,23.158,0,0,1-2.971,5.643,21.088,21.088,0,0,1-5.294,4.946,13.615,13.615,0,0,1-5.908,1.945,8.151,8.151,0,0,1-5.857-1.525,4.661,4.661,0,0,1-2.054-5.082,7.98,7.98,0,0,1,1.411-3.151,13.7,13.7,0,0,1,4.086-3.6,22.669,22.669,0,0,1,12.078-2.776c.783.019,1.564.153,2.347.227.87.083.882.082,1.1-.8a41.85,41.85,0,0,0,.961-5.634c.268-2.493.726-4.974.842-7.473.165-3.587.607-7.155.615-10.751,0-1.87.284-3.74.257-5.608-.047-3.143.315-6.271.193-9.414-.036-.932.1-1.869.122-2.8.1-3.592.208-7.184.258-10.777.038-2.732.1-5.472-.049-8.2-.133-2.393-.025-4.792-.215-7.175-.185-2.318-.081-4.637-.2-6.951-.253-4.936-.172-9.875-.25-14.812-.04-2.469.071-4.938-.023-7.4-.19-4.938-.09-9.879-.228-14.814-.1-3.666.007-7.331-.124-11-.024-.663-.229-.9-.847-1.033a62.316,62.316,0,0,1-13.531-5.033c-4.4-2.073-8.637-4.468-12.833-6.926-4.067-2.382-8.075-4.865-12.153-7.226-3.432-1.987-6.93-3.856-10.393-5.789q-4.213-2.351-8.411-4.73c-5.365-3.052-10.724-6.119-16.213-8.944-2.528-1.3-5.02-2.668-7.537-3.988A1.014,1.014,0,0,0,288.9,109.163Zm-33.918,15.155a5.378,5.378,0,0,0,.454-.309c1.888-1.646,3.84-3.212,5.751-4.829,2.142-1.809,4.192-3.726,6.3-5.578a52.087,52.087,0,0,0,4.688-4.667,15.044,15.044,0,0,0,2.166-2.991c.371-.72.219-.977-.571-.936a10.808,10.808,0,0,0-2.862.529,76.922,76.922,0,0,0-8.391,3.43,25.182,25.182,0,0,0-7.478,5.257,6.665,6.665,0,0,0-2.072,4.355A7.881,7.881,0,0,0,254.985,124.318ZM368.377,279a20.091,20.091,0,0,0-8.58.192,16.177,16.177,0,0,0-5.929,2.544,8.122,8.122,0,0,0-3.333,4.374,2.812,2.812,0,0,0,1.666,3.481c3.888,1.736,7.242.417,10.332-1.919a16.088,16.088,0,0,0,3.57-4.005A25.207,25.207,0,0,0,368.377,279ZM288.918,98.119a4.4,4.4,0,0,0-2.78-4.218,5.99,5.99,0,0,0-4.457.233,4.761,4.761,0,0,0-2.644,2.6,2.091,2.091,0,0,0,.1,2.137,9.934,9.934,0,0,0,1.434,1.857,28.6,28.6,0,0,0,5.021,3.731c.474.287.756.2.991-.243a20.123,20.123,0,0,0,1.92-4.035A9.619,9.619,0,0,0,288.918,98.119Zm85.9,52.155c.256-.028.666-.072,1.075-.113a4.712,4.712,0,0,0,3.787-2.657,3.582,3.582,0,0,0-1.666-5.028,1.721,1.721,0,0,0-1.406-.012,3.512,3.512,0,0,0-1.815,2.042,13.639,13.639,0,0,0-1.095,4.788C373.627,150.25,373.679,150.3,374.814,150.274Z"
                        transform="translate(-236.73 -91.354)" fill="#0f0f0f" stroke="#000"
                        stroke-width="1" />
                    <path id="Path_5"
                        d="M253.38,148.669a2.06,2.06,0,0,1,.279-1.181c2.051-4.316,4.155-8.606,6.476-12.786a6.58,6.58,0,0,1,.328-.586.879.879,0,0,1,1.172-.349,1.021,1.021,0,0,1,.557,1.205,22.29,22.29,0,0,1-.989,2.13c-1.819,3.474-3.446,7.042-5.145,10.574a4.512,4.512,0,0,1-.856,1.435,1.128,1.128,0,0,1-1.23.309A.894.894,0,0,1,253.38,148.669Z"
                        transform="translate(-235.733 -88.82)" stroke="#000" stroke-width="1" />
                    <path id="Path_6"
                        d="M269.937,151.513a92.982,92.982,0,0,1,1.493-12.538,4.994,4.994,0,0,1,.112-.549c.209-.624.649-.926,1.161-.811s.778.549.685,1.222c-.117.852-.325,1.7-.38,2.551-.217,3.359-.746,6.689-.889,10.054a2.887,2.887,0,0,1-.062.666,1.055,1.055,0,0,1-1.109.772,1.008,1.008,0,0,1-1-.885A1.993,1.993,0,0,1,269.937,151.513Z"
                        transform="translate(-234.743 -88.586)" stroke="#000" stroke-width="1" />
                </g>
                <g id="Group_3" transform="translate(0 51.469)">
                    <path id="Path_7"
                        d="M210.525,205.457a18.929,18.929,0,0,0-4.279-4.284,38.422,38.422,0,0,0-15.271-6.769,26.633,26.633,0,0,0-12.346.141,3.161,3.161,0,0,1-.766.154.945.945,0,0,1-.977-.618,1,1,0,0,1,.273-1.131,1.962,1.962,0,0,1,.892-.447,25.16,25.16,0,0,1,8.562-.85,40.529,40.529,0,0,1,20.6,7.587,26.676,26.676,0,0,1,5.668,5.723,3.053,3.053,0,0,1,.3.472,1.331,1.331,0,0,1-.988,2.111c-.989.2-2,.316-3,.429a62.353,62.353,0,0,1-12.78.047,36.787,36.787,0,0,1-11.4-2.809,26.073,26.073,0,0,1-11.707-9.473.989.989,0,0,0-.973-.578,26.533,26.533,0,0,0-6.051,1.153c-.482.145-.475.493-.514.873-.2,1.9-.393,3.8-.614,5.693-.1.854-.237,1.705-.393,2.551-.1.52.033.734.6.774a40.9,40.9,0,0,1,6.752,1.092,14.825,14.825,0,0,1,2.659.884,7.075,7.075,0,0,1,4.614,7.029,36.5,36.5,0,0,1-.748,6.124,88.671,88.671,0,0,1-2.262,10.071,14.434,14.434,0,0,1-1.393,3.3,5.442,5.442,0,0,1-4.671,2.881,84.84,84.84,0,0,1-14.568-.632,11.058,11.058,0,0,1-2.585-.738,4.933,4.933,0,0,1-3.08-3.733c-.36-1.724-.534-3.476-.777-5.219-.623-4.486-1.211-8.977-1.486-13.5a13.651,13.651,0,0,1-.031-1.572c.037-.682.393-1.055.922-1.052s.883.36.934,1.053c.156,2.129.39,4.249.67,6.365.576,4.341,1.1,8.689,1.753,13.019a3.294,3.294,0,0,0,2.559,2.918,19.613,19.613,0,0,0,3.75.68c3.586.315,7.184.255,10.777.324.15,0,.3-.007.449,0a3.939,3.939,0,0,0,3.944-2.6,30.723,30.723,0,0,0,1.862-6.227,98.673,98.673,0,0,0,1.738-9.722,16.462,16.462,0,0,0,.121-1.678,5.071,5.071,0,0,0-3.383-5.168,22.5,22.5,0,0,0-4.431-1.205c-1.469-.3-2.963-.418-4.447-.613-.606-.079-.778.172-.885.691a21,21,0,0,1-.574,2.168,7.148,7.148,0,0,1-1.428,2.525,5.056,5.056,0,0,1-3.482,1.835,9.755,9.755,0,0,1-3.884-.4,4.458,4.458,0,0,1-2.738-2.183,3.41,3.41,0,0,1,.869-4.357,8.262,8.262,0,0,1,2.76-1.468,19.413,19.413,0,0,1,6.159-1.116c.475,0,.764-.091.847-.635.383-2.516.731-5.038.92-7.577a3.7,3.7,0,0,0-.028-.481,2.48,2.48,0,0,0-1.289.283,40.874,40.874,0,0,1-9.088,1.941,35.638,35.638,0,0,1-8.607-.554,42.514,42.514,0,0,1-12.049-3.806,31.939,31.939,0,0,1-8.69-6.485,69.4,69.4,0,0,1-7.21-8.745,7.346,7.346,0,0,1-1.029-1.861,1.508,1.508,0,0,1,1.438-2.2,95.844,95.844,0,0,1,16.268.109,41.284,41.284,0,0,1,11.531,2.742,29.178,29.178,0,0,1,14,11.659c.1.159.214.309.3.477a.978.978,0,0,0,1.281.561,23.126,23.126,0,0,1,2.649-.483c.619-.078.808-.361.781-.961a14.4,14.4,0,0,0-1.644-6.356,36.058,36.058,0,0,0-4.137-5.728,101.987,101.987,0,0,1-8.8-12.466,39.851,39.851,0,0,1-5.471-16.022,98.888,98.888,0,0,1-.857-11.3,3.2,3.2,0,0,1,.092-1.113,1.213,1.213,0,0,1,1.806-.714,3.324,3.324,0,0,1,.544.4,41.459,41.459,0,0,1,12.021,16.55,52.614,52.614,0,0,1,3.055,11.821,4.18,4.18,0,0,0,.349,1.408c.34-1.471.637-2.852.979-4.22a49.1,49.1,0,0,1,9.908-20.06,30.2,30.2,0,0,1,8.341-6.92c.2-.11.391-.223.6-.315a1.474,1.474,0,0,1,2.237.92,15.862,15.862,0,0,1,.612,3.078,33.318,33.318,0,0,1-2.816,19.382,29.875,29.875,0,0,1-5.678,8.17c-1.614,1.672-3.342,3.223-5.051,4.795a38.2,38.2,0,0,0-4.479,4.565c-.275.355-.512.738-.781,1.1a.79.79,0,0,0,0,1.017c1.041,1.645,2.048,3.311,3.07,4.968.075.122.131.271.352.312.312-.116.406-.465.572-.737a50.094,50.094,0,0,1,11.4-12.748,35.845,35.845,0,0,1,15.92-7.145c3.639-.72,7.328-1.1,11.006-1.553,2.528-.309,5.034-.743,7.536-1.211a4.23,4.23,0,0,1,.774-.124,1.167,1.167,0,0,1,1.1,1.841,9.525,9.525,0,0,1-.712,1.008,46.908,46.908,0,0,0-2.785,4.349,42.716,42.716,0,0,1-23.036,19.073A170.725,170.725,0,0,1,170,191.588c-1.092.259-2.191.49-3.282.747a1.181,1.181,0,0,0-.742,1.558c.132.271.38.182.589.132.691-.164,1.376-.36,2.069-.513a29.4,29.4,0,0,1,4.232-.525,1.807,1.807,0,0,1,1.864.966,21.6,21.6,0,0,0,7.424,7.36A31.045,31.045,0,0,0,194.9,205.7a55.807,55.807,0,0,0,14.9.043A.9.9,0,0,0,210.525,205.457Zm2.493-43.035a1.271,1.271,0,0,0-.874.014c-1.987.376-4,.592-6,.856-3.524.464-7.067.8-10.547,1.561a33.406,33.406,0,0,0-13.885,6.3,47.582,47.582,0,0,0-11.405,12.733c-.309.513-.6,1.038-.941,1.53-.843,1.223-1.852,1.206-2.639-.03-.18-.284-.338-.582-.515-.869-1.18-1.911-2.319-3.849-3.561-5.719a2.144,2.144,0,0,1-.017-2.666,26.751,26.751,0,0,1,4.315-5.006c1.908-1.8,3.881-3.528,5.737-5.378,7.114-7.087,9.837-15.707,8.781-25.6a11.432,11.432,0,0,0-.482-2.855,1.952,1.952,0,0,0-1.025.463,27.484,27.484,0,0,0-6.3,5.372,46.724,46.724,0,0,0-9.628,18.832c-.918,3.4-1.422,6.888-2,10.356a4.028,4.028,0,0,1-.337,1.183,1.069,1.069,0,0,1-1.091.639.994.994,0,0,1-.909-.721,4.034,4.034,0,0,1-.169-.65c-.227-1.328-.465-2.654-.666-3.986a83.349,83.349,0,0,0-1.8-9.821c-2.008-7.3-5.467-13.749-11.147-18.881-.2-.179-.335-.526-.753-.392,0,.519-.021,1.042,0,1.562a89.221,89.221,0,0,0,1.2,10.706,31.559,31.559,0,0,0,3.292,9.742,86.111,86.111,0,0,0,5.664,9.165c2.106,2.963,4.493,5.707,6.7,8.59a17.394,17.394,0,0,1,3.719,8.068c.093.629.131,1.265.207,1.9.106.883.112.889.941.708s1.678-.38,2.515-.58a166.721,166.721,0,0,0,19.86-5.607,41.061,41.061,0,0,0,18.713-13.454c1.9-2.469,3.376-5.212,5.035-7.838C213.035,162.591,213.013,162.5,213.017,162.422Zm-94.985,15.485a1.97,1.97,0,0,0,.5,1.039,71.8,71.8,0,0,0,6.55,7.971,30.748,30.748,0,0,0,12.08,7.928,46.928,46.928,0,0,0,9.913,2.336,28.038,28.038,0,0,0,9.27-.236,61.154,61.154,0,0,0,6.481-1.791c.961-.308.969-.312.982-1.309,0-.28.116-.595-.173-.843-.875.153-1.759.3-2.64.463-2.218.406-2.535.269-3.774-1.657-.141-.22-.276-.445-.423-.662a28.753,28.753,0,0,0-4.216-5.085,29.946,29.946,0,0,0-12.851-6.824,56.5,56.5,0,0,0-12.781-1.551C124,177.589,121.052,177.836,118.032,177.907Zm39.661,35.475c1.768.215,2.864-.78,3.607-2.322a9.251,9.251,0,0,0,.65-2.023c.181-.822.108-.922-.738-.885a16.162,16.162,0,0,0-5.954,1.418,4.21,4.21,0,0,0-.858.524,1.411,1.411,0,0,0-.145,2.305,2.972,2.972,0,0,0,1.36.747A6.676,6.676,0,0,0,157.694,213.382Z"
                        transform="translate(-115.458 -134.71)" fill="#0f0f0f" stroke="#707070"
                        stroke-width="1" />
                </g>
            </g>
        </g>
    </g>
</svg>
