<svg id="Group_4457" data-name="Group 4457" xmlns="http://www.w3.org/2000/svg" width="281.066" height="290.762" viewBox="0 0 281.066 290.762">
  <g id="Group_4460" data-name="Group 4460">
    <path id="Path_42946" data-name="Path 42946" d="M757.238,438.968H699.265L670.32,474a10.715,10.715,0,0,1-16.745-.282l-26.8-34.751H569.4a46.616,46.616,0,0,1-46.616-46.616V294.316A46.616,46.616,0,0,1,569.4,247.7H757.238a46.616,46.616,0,0,1,46.616,46.616v98.037a46.616,46.616,0,0,1-46.616,46.616" transform="translate(-522.788 -247.7)"/>
    <path id="Path_42947" data-name="Path 42947" d="M1031.014,534.935l-44.622,39.542a9.79,9.79,0,0,1-12.985,0l-44.622-39.542c-44.724-39.536,10.97-97.61,51.114-51.114,34.875-49.406,91.735,11.972,51.114,51.114" transform="translate(-836.968 -423.335)" fill="#fff"/>
    <g id="Group_4455" data-name="Group 4455" transform="translate(72.455 270.451)">
      <g id="Group_4454" data-name="Group 4454">
        <g id="Group_44370" data-name="Group 44370">
          <path id="Path_42948" data-name="Path 42948" d="M1042.664,1657.353c0,5.609-32.447,10.155-72.473,10.155s-72.473-4.547-72.473-10.155,32.447-10.156,72.473-10.156,72.473,4.547,72.473,10.156" transform="translate(-897.719 -1647.198)" opacity="0.33"/>
        </g>
      </g>
    </g>
  </g>
</svg>
