<svg xmlns="http://www.w3.org/2000/svg" xmlns:xlink="http://www.w3.org/1999/xlink" width="306.361"
    height="245.089" viewBox="0 0 306.361 245.089">
    <defs>
        <clipPath id="clip-path">
            <path id="Path_43221" d="M0-2000H306.361v245.089H0Z" transform="translate(0 2000)"
                fill="none" />
        </clipPath>
        <clipPath id="clip-path-2">
            <rect id="Rectangle_23700" width="91.913" height="12.88" fill="#6eb37b" />
        </clipPath>
    </defs>
    <g id="Group_4750" transform="translate(0 2000)">
        <path id="Path_43217" d="M306.361-2000h0Z" fill="#ffeff1" />
        <g id="Group_4749" transform="translate(0 -2000)" clip-path="url(#clip-path)">
            <g id="Group_4743" transform="translate(64.065 30.354)">
                <path id="Path_43218"
                    d="M-1064.532-868.463h-36.763l-18.354,22.215a6.794,6.794,0,0,1-10.618-.179l-16.993-22.037h-36.382a29.56,29.56,0,0,1-29.56-29.56v-62.168a29.56,29.56,0,0,1,29.56-29.56h119.111a29.56,29.56,0,0,1,29.56,29.56v62.168a29.56,29.56,0,0,1-29.56,29.56"
                    transform="translate(1213.203 989.752)" fill="#98eca8" />
            </g>
            <g id="Group_4744" transform="translate(111.788 57.033)">
                <path id="Path_43219"
                    d="M-539.362-315.7l-28.3,25.075a6.208,6.208,0,0,1-8.234,0l-28.3-25.075c-28.361-25.071,6.957-61.9,32.413-32.413,22.115-31.33,58.171,7.592,32.413,32.413"
                    transform="translate(614.689 359.785)" fill="#fff" />
            </g>
            <g id="Group_4748" transform="translate(110.01 201.855)" opacity="0.16">
                <g id="Group_4747" transform="translate(0 0)">
                    <g id="Group_4746" clip-path="url(#clip-path-2)">
                        <g id="Group_4745" transform="translate(0 0)">
                            <path id="Path_43220"
                                d="M-658.131-46.111c0,3.557-20.576,6.44-45.957,6.44s-45.957-2.883-45.957-6.44,20.576-6.44,45.957-6.44,45.957,2.883,45.957,6.44"
                                transform="translate(750.045 52.551)" fill="#6eb37b" />
                        </g>
                    </g>
                </g>
            </g>
        </g>
    </g>
</svg>
