<svg xmlns="http://www.w3.org/2000/svg" width="390" height="290.635" viewBox="0 0 390 290.635">
  <g id="Group_44210"  transform="translate(0 -54.953)">
    <g id="Background_Complete"  transform="translate(0 54.953)">
      <g id="Group_44184" >
        <rect id="Rectangle_23931"  width="390" height="0.195" transform="translate(0 255.407)" fill="#ebebeb"/>
        <rect id="Rectangle_23932"  width="25.835" height="0.195" transform="translate(325.088 267.962)" fill="#ebebeb"/>
        <rect id="Rectangle_23933"  width="6.781" height="0.195" transform="translate(228.344 268.06)" fill="#ebebeb"/>
        <rect id="Rectangle_23934"  width="47.927" height="0.195" transform="translate(276.38 260.719)" fill="#ebebeb"/>
        <rect id="Rectangle_23935"  width="9.901" height="0.195" transform="translate(165.714 265.323)" fill="#ebebeb"/>
        <rect id="Rectangle_23936"  width="28.73" height="0.195" transform="translate(130.04 265.323)" fill="#ebebeb"/>
        <rect id="Rectangle_23937"  width="19.835" height="0.195" transform="translate(40.918 262.03)" fill="#ebebeb"/>
        <rect id="Rectangle_23938"  width="58.413" height="0.195" transform="translate(65.433 262.03)" fill="#ebebeb"/>
        <path id="Path_43265"  d="M193.276,275.574H42.659a4.458,4.458,0,0,1-4.452-4.452V59.4a4.457,4.457,0,0,1,4.452-4.451H193.276a4.457,4.457,0,0,1,4.451,4.451V271.121A4.457,4.457,0,0,1,193.276,275.574ZM42.659,55.148A4.261,4.261,0,0,0,38.4,59.4V271.121a4.262,4.262,0,0,0,4.257,4.257H193.276a4.261,4.261,0,0,0,4.256-4.257V59.4a4.261,4.261,0,0,0-4.256-4.256Z" transform="translate(-8.406 -54.953)" fill="#ebebeb"/>
        <path id="Path_43266"  d="M409.573,275.574H258.956a4.457,4.457,0,0,1-4.451-4.452V59.4a4.456,4.456,0,0,1,4.451-4.451H409.573a4.457,4.457,0,0,1,4.453,4.451V271.121A4.458,4.458,0,0,1,409.573,275.574ZM258.956,55.148A4.261,4.261,0,0,0,254.7,59.4V271.121a4.261,4.261,0,0,0,4.256,4.257H409.573a4.262,4.262,0,0,0,4.258-4.257V59.4a4.262,4.262,0,0,0-4.258-4.256Z" transform="translate(-55.991 -54.953)" fill="#ebebeb"/>
      </g>
      <g id="Group_44191"  transform="translate(45.629 13.275)">
        <g id="Group_44185"  transform="translate(94.798)">
          <rect id="Rectangle_23939"  width="189.571" height="138.475" transform="translate(197.952 138.475) rotate(180)" fill="#e6e6e6"/>
          <rect id="Rectangle_23940"  width="196.008" height="138.475" transform="translate(196.008 138.475) rotate(180)" fill="#f0f0f0"/>
          <rect id="Rectangle_23941"  width="115.009" height="172.541" transform="translate(184.275 11.733) rotate(90)" fill="#fafafa"/>
          <path id="Path_43267"  d="M340.854,202.024,301.574,87.015h-37.51l39.28,115.009Z" transform="translate(-198.52 -75.282)" fill="#fff"/>
          <path id="Path_43268"  d="M288.889,202.024,249.609,87.015H234.986l39.28,115.009Z" transform="translate(-192.123 -75.282)" fill="#fff"/>
          <rect id="Rectangle_23942"  width="115.009" height="1.49" transform="translate(13.223 11.733) rotate(90)" fill="#e6e6e6"/>
        </g>
        <g id="Group_44187"  transform="translate(0 5.906)">
          <g id="Group_44186" >
            <rect id="Rectangle_23943"  width="66.939" height="94.903" transform="translate(71.68 94.903) rotate(180)" fill="#e0e0e0"/>
            <rect id="Rectangle_23944"  width="69" height="94.903" transform="translate(69 94.903) rotate(180)" fill="#f5f5f5"/>
            <rect id="Rectangle_23945"  width="79.945" height="55.378" transform="translate(62.189 7.479) rotate(90)" fill="#fff"/>
          </g>
        </g>
        <g id="Group_44189"  transform="translate(3.402 83.898)">
          <path id="Path_43269"  d="M90.215,262.886c4.969-12.26,16.786-16.825,20.869-24.565,5.348-10.142,5.319-25.356.764-30.847-3.957-4.77-17.062,27.489-18.537,31.093a103.148,103.148,0,0,0-7.5,30.509c.108-7.576.212-14.532.3-19.9.278-17.506.624-23.136.782-24.869.548-.846,1.193-1.832,1.569-2.361,3.171-4.472,10.208-9.794,13.724-16.294,5.134-9.49,4.3-20.849.7-25.078-3.766-4.422-10.422,6.029-13.957,16.385S86.9,217.229,85.91,225.83c-.207,1.686-.42,8.094-.62,16.981-1.073-9.563-3.208-15.97-7.166-21.939-4.868-7.343-9.071-16.284-13.082-15.128s-1.852,12.986,1.321,21.292c2.826,7.4,16.768,14.775,18.821,20.721-.242,12.046-.458,27.309-.612,41.518-1.1-7.339-.343-7.956-4.847-19.193-2.678-6.681-13.655-14.918-14.964-10.329-1.285,4.5.681,13.265,4.825,19.341,3.343,4.9,10.76,4.9,12.476,7.937.4.71,1.725,3.43,2.481,4.994-.179,17.348-.26,32.661-.171,37.882l.719.053c-.034-1.349.053-10.174.194-21.852,1.8-6.214,13.926-9.841,17.672-16.3,3.919-6.763,6.737-14.654,5.056-19.939-1.4-4.405-12.451,1.586-16.936,8.887a40.255,40.255,0,0,0-5.663,17.025c.1-7.955.218-16.5.332-24.569C86.655,271.2,88.725,266.561,90.215,262.886Z" transform="translate(-62.859 -179.534)" fill="#e6e6e6"/>
          <g id="Group_44188"  transform="translate(1.13 140.414)">
            <path id="Path_43270"  d="M98.551,379.221H73.064a2.927,2.927,0,0,1-2.87-2.345l-1.809-8.92H103.23l-1.81,8.92A2.927,2.927,0,0,1,98.551,379.221Z" transform="translate(-65.205 -361.401)" fill="#f0f0f0"/>
            <path id="Path_43271"  d="M103.062,369.565H66.76a1.709,1.709,0,0,1-1.7-1.518l-.743-6.594a1.71,1.71,0,0,1,1.7-1.9H103.8a1.71,1.71,0,0,1,1.7,1.9l-.743,6.594A1.709,1.709,0,0,1,103.062,369.565Z" transform="translate(-64.308 -359.552)" fill="#f0f0f0"/>
          </g>
        </g>
        <g id="Group_44190"  transform="translate(106.894 147.318)">
          <rect id="Rectangle_23946"  width="7.792" height="83.844" transform="translate(171.666 89.129) rotate(180)" fill="#f0f0f0"/>
          <rect id="Rectangle_23947"  width="163.588" height="5.588" transform="translate(168.674 94.717) rotate(180)" fill="#f0f0f0"/>
          <rect id="Rectangle_23948"  width="161.781" height="83.844" transform="translate(2.094 5.285)" fill="#f5f5f5"/>
          <rect id="Rectangle_23949"  width="8.052" height="5.285" transform="translate(173.76 5.285) rotate(180)" fill="#e0e0e0"/>
          <rect id="Rectangle_23950"  width="165.708" height="5.285" transform="translate(0 0)" fill="#ebebeb"/>
          <path id="Path_43272"  d="M349.9,305.443H211.344a6.271,6.271,0,0,1-6.263-6.264V281.223a6.271,6.271,0,0,1,6.263-6.264H349.9a6.271,6.271,0,0,1,6.264,6.264v17.956A6.271,6.271,0,0,1,349.9,305.443ZM211.344,276.519a4.709,4.709,0,0,0-4.7,4.7v17.956a4.709,4.709,0,0,0,4.7,4.7H349.9a4.71,4.71,0,0,0,4.7-4.7V281.223a4.71,4.71,0,0,0-4.7-4.7Z" transform="translate(-197.64 -263.947)" fill="#fff"/>
          <path id="Path_43273"  d="M349.9,353.593H211.344a6.271,6.271,0,0,1-6.263-6.264V329.374a6.272,6.272,0,0,1,6.263-6.265H349.9a6.271,6.271,0,0,1,6.264,6.265v17.955A6.271,6.271,0,0,1,349.9,353.593ZM211.344,324.669a4.709,4.709,0,0,0-4.7,4.7v17.955a4.709,4.709,0,0,0,4.7,4.7H349.9a4.71,4.71,0,0,0,4.7-4.7V329.374a4.71,4.71,0,0,0-4.7-4.7Z" transform="translate(-197.64 -274.54)" fill="#fff"/>
          <path id="Path_43274"  d="M328.493,296.483H252.91a2.028,2.028,0,0,1-2.025-2.026v-1.475a2.028,2.028,0,0,1,2.025-2.026h75.583a2.028,2.028,0,0,1,2.026,2.026v1.475A2.028,2.028,0,0,1,328.493,296.483Zm-75.583-3.966a.471.471,0,0,0-.465.466v1.475a.471.471,0,0,0,.465.466h75.583a.472.472,0,0,0,.466-.466v-1.475a.472.472,0,0,0-.466-.466Z" transform="translate(-207.717 -267.467)" fill="#fff"/>
          <path id="Path_43275"  d="M328.493,344.633H252.91a2.028,2.028,0,0,1-2.025-2.025v-1.476a2.028,2.028,0,0,1,2.025-2.026h75.583a2.028,2.028,0,0,1,2.026,2.026v1.476A2.028,2.028,0,0,1,328.493,344.633Zm-75.583-3.966a.472.472,0,0,0-.465.466v1.476a.471.471,0,0,0,.465.465h75.583a.472.472,0,0,0,.466-.465v-1.476a.473.473,0,0,0-.466-.466Z" transform="translate(-207.717 -278.06)" fill="#fff"/>
        </g>
      </g>
    </g>
    <g id="Shadow" transform="translate(39.867 327.923)">
      <ellipse id="_Path_"  cx="151.234" cy="8.832" rx="151.234" ry="8.832" transform="translate(0 0)" fill="#f5f5f5"/>
    </g>
    <g id="Smartphone" transform="translate(136.871 102.364)">
      <g id="Group_44198" >
        <g id="Group_44192"  transform="translate(34.541)">
          <rect id="Rectangle_23951"  width="4.604" height="0.78" transform="translate(120.614 45.159) rotate(-86.302)"/>
          <rect id="Rectangle_23952"  width="15.127" height="0.78" transform="translate(121.143 37.02) rotate(-86.308)"/>
          <path id="Path_43276"  d="M332.61,115.736H240.918a9.48,9.48,0,0,0-9.3,8.733L219.778,307.378a8.108,8.108,0,0,0,8.167,8.732h91.693a9.481,9.481,0,0,0,9.3-8.732l11.842-182.909A8.108,8.108,0,0,0,332.61,115.736Z" transform="translate(-219.76 -115.736)"/>
          <path id="Path_43277"  d="M329.7,115.736H240.918a9.48,9.48,0,0,0-9.3,8.733L219.778,307.378a8.108,8.108,0,0,0,8.167,8.732h88.782a9.48,9.48,0,0,0,9.3-8.732l11.842-182.909A8.108,8.108,0,0,0,329.7,115.736Z" transform="translate(-219.76 -115.736)" opacity="0.7"/>
          <path id="Path_43278"  d="M322.813,307.111H225.152a2.671,2.671,0,0,1-2.664-2.843L233.2,138.759a2.671,2.671,0,0,1,2.665-2.5h97.661a2.67,2.67,0,0,1,2.664,2.843l-10.716,165.51A2.67,2.67,0,0,1,322.813,307.111Z" transform="translate(-220.358 -120.252)" fill="#fff"/>
          <path id="Path_43279"  d="M312.9,128.518h-35.5a1.31,1.31,0,0,1-1.324-1.415h0a1.532,1.532,0,0,1,1.507-1.415h35.5a1.311,1.311,0,0,1,1.324,1.415h0A1.532,1.532,0,0,1,312.9,128.518Z" transform="translate(-232.15 -117.925)" fill="#fff"/>
          <path id="Path_43280"  d="M285.805,363.234a3.7,3.7,0,0,1-3.657,3.476,3.268,3.268,0,0,1-3.3-3.476,3.7,3.7,0,0,1,3.657-3.477A3.269,3.269,0,0,1,285.805,363.234Z" transform="translate(-232.759 -169.421)" fill="#fff"/>
        </g>
        <path id="Path_43281"  d="M312.455,195.036H229.062l-5.3,81.827h88.691a8.758,8.758,0,0,0,8.733-8.732V203.769A8.758,8.758,0,0,0,312.455,195.036Z" transform="translate(-186.099 -133.182)" opacity="0.2"/>
        <g id="Group_44197"  transform="translate(0 47.995)">
          <path id="Path_43339"  d="M8.733,0h102.2a8.733,8.733,0,0,1,8.733,8.733V73.1a8.733,8.733,0,0,1-8.733,8.733H8.733A8.733,8.733,0,0,1,0,73.1V8.733A8.733,8.733,0,0,1,8.733,0Z" transform="translate(7.653 6.582)"/>
          <g id="Group_44193" >
            <path id="Path_43282"  d="M181.1,183.669a.775.775,0,0,1-.551-.229l-1.4-1.4a.78.78,0,0,1,1.1-1.1l1.4,1.4a.78.78,0,0,1-.551,1.331Z" transform="translate(-176.234 -178.026)"/>
            <path id="Path_43283"  d="M178.233,190.338h-1.977a.78.78,0,1,1,0-1.56h1.977a.78.78,0,1,1,0,1.56Z" transform="translate(-175.476 -179.8)"/>
            <path id="Path_43284"  d="M187.817,180.8a.78.78,0,0,1-.777-.725L186.9,178.1a.78.78,0,1,1,1.556-.111l.14,1.973a.779.779,0,0,1-.721.833Z" transform="translate(-177.989 -177.268)"/>
          </g>
          <path id="Path_43285"  d="M273.194,279.833l31.373,31.373V279.833Z" transform="translate(-196.974 -199.832)"/>
          <g id="Group_44194"  transform="translate(39.985 18.419)">
            <path id="Path_43286"  d="M271.572,248.717l-1.519-6.625a11.953,11.953,0,0,1-.013-5.282l2.115-9.436a18.5,18.5,0,0,0-9.784-20.517,4.638,4.638,0,0,0,.177-.533,4.465,4.465,0,1,0-8.713-1.952,4.268,4.268,0,0,0-.067.557,18.5,18.5,0,0,0-17.6,14.382l-2.114,9.436a11.961,11.961,0,0,1-2.266,4.772l-4.2,5.343a3.94,3.94,0,0,0,2.236,6.28l37.051,8.3A3.94,3.94,0,0,0,271.572,248.717Z" transform="translate(-226.738 -200.882)" fill="#fff"/>
            <path id="Path_43287"  d="M247.744,264.821a1.753,1.753,0,0,0-2.1,2.016,6.409,6.409,0,0,0,11.573,2.593,1.753,1.753,0,0,0-1.043-2.721Z" transform="translate(-230.891 -214.939)" fill="#fff"/>
          </g>
          <g id="Group_44195"  transform="translate(23.191 19.736)">
            <path id="Path_43288"  d="M210.4,237.991a1.169,1.169,0,0,1-.973-.519,25.021,25.021,0,0,1,6.915-34.7,1.17,1.17,0,0,1,1.3,1.946,22.681,22.681,0,0,0-6.27,31.457,1.17,1.17,0,0,1-.972,1.82Z" transform="translate(-205.208 -202.57)" fill="#fff"/>
            <path id="Path_43289"  d="M217.044,236.078a1.167,1.167,0,0,1-.973-.52,19.058,19.058,0,0,1,5.267-26.433,1.17,1.17,0,0,1,1.3,1.946,16.716,16.716,0,0,0-4.622,23.187,1.17,1.17,0,0,1-.972,1.82Z" transform="translate(-206.891 -203.969)" fill="#fff"/>
            <path id="Path_43290"  d="M223.685,234.167a1.168,1.168,0,0,1-.973-.52,13.1,13.1,0,0,1,3.619-18.163,1.17,1.17,0,0,1,1.3,1.946,10.757,10.757,0,0,0-2.973,14.917,1.17,1.17,0,0,1-.972,1.82Z" transform="translate(-208.573 -205.368)" fill="#fff"/>
          </g>
          <g id="Group_44196"  transform="translate(89.198 37.148)">
            <path id="Path_43291"  d="M298.018,259.369a1.17,1.17,0,0,1-.538-2.21,22.677,22.677,0,0,0,9.748-30.559,1.17,1.17,0,0,1,2.079-1.073,25.021,25.021,0,0,1-10.754,33.712A1.172,1.172,0,0,1,298.018,259.369Z" transform="translate(-291.376 -224.894)" fill="#fff"/>
            <path id="Path_43292"  d="M294.511,254.843a1.17,1.17,0,0,1-.538-2.21,16.717,16.717,0,0,0,7.185-22.526,1.17,1.17,0,0,1,2.079-1.073,19.058,19.058,0,0,1-8.191,25.678A1.17,1.17,0,0,1,294.511,254.843Z" transform="translate(-290.604 -225.666)" fill="#fff"/>
            <path id="Path_43293"  d="M291,250.316a1.17,1.17,0,0,1-.537-2.21,10.755,10.755,0,0,0,4.622-14.491,1.17,1.17,0,1,1,2.079-1.074,13.112,13.112,0,0,1-5.628,17.644A1.175,1.175,0,0,1,291,250.316Z" transform="translate(-289.833 -226.437)" fill="#fff"/>
          </g>
        </g>
      </g>
    </g>
    <g id="Character" transform="translate(70.542 78.91)">
      <g id="Group_44206" >
        <g id="Group_44199"  transform="translate(80.239 31.34)">
          <path id="Path_43294"  d="M201.148,125.847h-5.959a.648.648,0,0,0-.627.568l-1.25,11.886a.5.5,0,0,0,.507.568h5.959a.648.648,0,0,0,.627-.568l1.25-11.886A.5.5,0,0,0,201.148,125.847Z" transform="translate(-193.309 -125.847)"/>
          <path id="Path_43295"  d="M200.612,125.847h-5.423a.648.648,0,0,0-.627.568l-1.25,11.886a.5.5,0,0,0,.507.568h5.424a.648.648,0,0,0,.627-.568l1.25-11.886A.5.5,0,0,0,200.612,125.847Z" transform="translate(-193.309 -125.847)" opacity="0.4"/>
        </g>
        <path id="Path_43296"  d="M164.485,407.218c.81,0,1.588-.112,1.835-.476a.566.566,0,0,0-.041-.654.8.8,0,0,0-.49-.35c-1.063-.285-3.216.973-3.307,1.026a.144.144,0,0,0-.066.154.16.16,0,0,0,.124.122A11.214,11.214,0,0,0,164.485,407.218Zm.948-1.225a1.133,1.133,0,0,1,.291.034.478.478,0,0,1,.3.209c.114.186.08.278.044.331-.276.408-1.872.418-3.054.252A6.489,6.489,0,0,1,165.433,405.993Z" transform="translate(-106.273 -156.073)"/>
        <path id="Path_43297"  d="M162.57,406.617a.144.144,0,0,0,.06-.013c.748-.342,2.2-1.708,2.051-2.423-.034-.168-.162-.376-.576-.418a1.053,1.053,0,0,0-.818.257,4.107,4.107,0,0,0-.874,2.434.158.158,0,0,0,.157.164ZM164,404.057a.878.878,0,0,1,.09,0c.271.027.292.133.3.168.088.429-.892,1.5-1.649,1.969a3.36,3.36,0,0,1,.749-1.948A.764.764,0,0,1,164,404.057Z" transform="translate(-106.273 -155.647)"/>
        <rect id="Rectangle_23954"  width="6.316" height="14.627" transform="translate(49.339 236.194)" fill="#ff8b7b"/>
        <path id="Path_43298"  d="M94.948,394.289l6.309.683,4.116-14.2-6.309-.683Z" transform="translate(-91.431 -150.44)" fill="#ff8b7b"/>
        <path id="Path_43299"  d="M106.247,400.646c.795.2,1.585.285,1.916,0a.551.551,0,0,0,.121-.637.79.79,0,0,0-.392-.456c-.972-.536-3.392.138-3.494.167a.143.143,0,0,0-.1.131.159.159,0,0,0,.091.148A11.582,11.582,0,0,0,106.247,400.646Zm1.232-.94a1.2,1.2,0,0,1,.276.1.485.485,0,0,1,.245.275c.066.206.009.285-.04.328-.371.323-1.938-.062-3.054-.512A6.7,6.7,0,0,1,107.479,399.706Z" transform="translate(-93.487 -154.676)"/>
        <path id="Path_43300"  d="M104.413,399.509a.144.144,0,0,0,.063,0c.817-.144,2.576-1.094,2.608-1.815.008-.169-.066-.4-.46-.543a1.086,1.086,0,0,0-.866.044c-.922.441-1.436,2.048-1.458,2.117a.154.154,0,0,0,.033.147A.163.163,0,0,0,104.413,399.509Zm2.033-2.1c.029.007.059.016.087.027.258.093.253.2.251.236-.02.432-1.244,1.219-2.1,1.48a3.3,3.3,0,0,1,1.215-1.682A.784.784,0,0,1,106.447,397.408Z" transform="translate(-93.487 -154.179)"/>
        <path id="Path_43301"  d="M100.6,397.856l-6.9-1.98a.528.528,0,0,0-.625.264l-2.544,5.043a.963.963,0,0,0,.633,1.336c2.42.651,3.624.847,6.659,1.718,1.867.536,5.666,1.831,8.244,2.571,2.522.724,3.537-1.68,2.537-2.211-4.48-2.381-5.915-4.3-7.1-6.082A1.627,1.627,0,0,0,100.6,397.856Z" transform="translate(-90.439 -153.908)" fill="#263238"/>
        <path id="Path_43302"  d="M159.325,406.294h-6.9a.522.522,0,0,0-.519.431l-1,5.614a.965.965,0,0,0,.958,1.123c2.487-.042,6.075-.188,9.2-.188,3.657,0,5.657.2,9.946.2,2.593,0,3.2-2.622,2.1-2.859-4.988-1.081-7.862-1.2-12.247-3.83A3.03,3.03,0,0,0,159.325,406.294Z" transform="translate(-103.738 -156.205)" fill="#263238"/>
        <g id="Group_44200"  transform="translate(5.506 229.655)">
          <rect id="Rectangle_23955"  width="6.319" height="7.539" transform="translate(43.827 6.543)" opacity="0.2"/>
          <path id="Path_43303"  d="M99.622,380.1l6.312.683-2.287,7.876-6.15-1.241Z" transform="translate(-97.498 -380.096)" opacity="0.2"/>
        </g>
        <path id="Path_43304"  d="M136.748,202.029s-3.481,47.665-6.625,65.748c-3.443,19.8-23.454,80.437-23.454,80.437L95.2,346.123s14.452-56.944,16.053-76.55c1.739-21.28,3.829-65.144,3.829-65.144Z" transform="translate(-91.486 -111.267)"/>
        <path id="Path_43305"  d="M140.29,227.147c.631-2.626,2.065.674,3.732,6.393-1.261,14.151-2.912,30.539-4.483,39.566-.354,2.021-.881,4.475-1.538,7.248C138.58,260.165,138.6,234.231,140.29,227.147Z" transform="translate(-100.902 -116.591)" opacity="0.3"/>
        <path id="Path_43306"  d="M157.513,200.336s4.584,47.941,4.739,67.2c.161,20.034-3.968,85.633-3.968,85.633h-10.7s-3.21-64.428-4.547-84.1c-1.457-21.45-7.6-66.285-7.6-66.285Z" transform="translate(-100.339 -110.894)"/>
        <g id="Group_44201"  transform="translate(2.902 231.034)">
          <path id="Path_43307"  d="M108.859,383.921c.049.009-1.8,4.153-1.8,4.153l-12.9-2.354.783-3.856Z" transform="translate(-94.159 -381.864)" fill="#263238"/>
        </g>
        <g id="Group_44202"  transform="translate(45.867 238.015)">
          <path id="Path_43308"  d="M163.193,390.815c.05,0-.41,4.442-.41,4.442H149.769l-.526-3.965Z" transform="translate(-149.243 -390.815)" fill="#263238"/>
        </g>
        <path id="Path_43309"  d="M116.049,143.685c-.857,1.665-1.8,3.409-2.663,5.135l-2.62,5.192q-1.273,2.6-2.484,5.209c-.776,1.743-1.538,3.476-2.213,5.207l-.059-2.734a34.275,34.275,0,0,0,1.64,4.107c.3.683.689,1.338,1.028,2.018.385.656.757,1.325,1.18,1.969a44.066,44.066,0,0,0,2.68,3.827c.485.618.97,1.243,1.485,1.842.5.583,1.074,1.205,1.53,1.712l.157.174a2.25,2.25,0,0,1-2.767,3.469,25.56,25.56,0,0,1-2.361-1.486c-.739-.52-1.468-1.055-2.168-1.626a36.616,36.616,0,0,1-3.945-3.755,33.9,33.9,0,0,1-3.392-4.378,33.425,33.425,0,0,1-2.7-4.975,3.409,3.409,0,0,1-.167-2.364l.108-.37c.6-2.035,1.258-4.012,1.991-5.945s1.512-3.826,2.339-5.693,1.7-3.705,2.605-5.522c.934-1.817,1.833-3.6,2.891-5.413a4.524,4.524,0,0,1,7.937,4.337Z" transform="translate(-92.118 -96.969)" fill="#ff8b7b"/>
        <g id="Group_44203"  transform="translate(8.058 36.506)">
          <path id="Path_43310"  d="M121.122,139.918c.31,5.948-6.445,16.879-6.445,16.879l-13.908-6.95a41.006,41.006,0,0,1,7.7-13.436C115.835,128.267,120.834,134.409,121.122,139.918Z" transform="translate(-100.769 -132.47)" fill="#263238"/>
        </g>
        <path id="Path_43311"  d="M114.777,190.823l2.8,4.682,5.827-3.728a9.416,9.416,0,0,0-4.529-4.077,1.951,1.951,0,0,0-2.37.989Z" transform="translate(-95.793 -108.09)" fill="#ff8b7b"/>
        <path id="Path_43312"  d="M120.7,198.678l2.707-.507a1.755,1.755,0,0,0,1.4-2.063l-.617-3.15-5.827,3.728.395.943A1.755,1.755,0,0,0,120.7,198.678Z" transform="translate(-96.583 -109.271)" fill="#ff8b7b"/>
        <path id="Path_43313"  d="M142.422,103.386c.062.51.378.9.707.877s.547-.461.485-.971-.377-.9-.706-.878S142.361,102.875,142.422,103.386Z" transform="translate(-101.873 -89.351)" fill="#263238"/>
        <path id="Path_43314"  d="M142.85,104.823A19.44,19.44,0,0,0,145.777,109a2.825,2.825,0,0,1-2.351.648Z" transform="translate(-101.969 -89.881)" fill="#ff5652"/>
        <path id="Path_43315"  d="M139.55,99.85a.281.281,0,0,0,.225-.069,2.29,2.29,0,0,1,2.056-.557.285.285,0,0,0,.36-.2.315.315,0,0,0-.215-.373,2.869,2.869,0,0,0-2.6.675.3.3,0,0,0-.017.424A.313.313,0,0,0,139.55,99.85Z" transform="translate(-101.183 -88.505)" fill="#263238"/>
        <path id="Path_43316"  d="M122.271,110.9c1.491,4.512,3.472,12.841.644,16.173,0,0,1.856,4.547,10.411,3.827,9.408-.792,3.9-5.032,3.9-5.032-5.291-.789-5.646-4.6-5.209-8.236Z" transform="translate(-97.442 -91.219)" fill="#ff8b7b"/>
        <path id="Path_43317"  d="M120.2,132.4c-.887-1.412-1.869-3.029-.2-3.63,1.838-.661,12.128-1.738,15.793-.837s2.923,3.886,2.923,3.886Z" transform="translate(-96.743 -94.889)"/>
        <path id="Path_43318"  d="M157,135.837c1.342,1.234,2.793,2.594,4.235,3.846,1.441,1.279,2.9,2.527,4.369,3.76,1.478,1.213,2.966,2.394,4.468,3.525,1.516,1.1,3.033,2.157,4.566,3.085l-3.129-.292a11.551,11.551,0,0,0,3.625-1.68,23.166,23.166,0,0,0,3.565-3.026,40.932,40.932,0,0,0,3.285-3.8c.52-.677,1.044-1.363,1.536-2.072s.986-1.458,1.416-2.11l.085-.129a2.253,2.253,0,0,1,4.044,1.87,29.48,29.48,0,0,1-.967,2.789c-.356.9-.729,1.793-1.154,2.668a36.385,36.385,0,0,1-2.985,5.105,26.514,26.514,0,0,1-4.136,4.657,18.094,18.094,0,0,1-5.884,3.526,3.709,3.709,0,0,1-2.87-.165l-.259-.127a56.438,56.438,0,0,1-5.629-3.188c-1.778-1.147-3.487-2.358-5.144-3.618s-3.255-2.572-4.815-3.925c-1.557-1.384-3.058-2.714-4.577-4.263a4.524,4.524,0,0,1,6.284-6.5Z" transform="translate(-103.4 -96.429)" fill="#ff8b7b"/>
        <g id="Group_44204"  transform="translate(16.228 34.652)">
          <path id="Path_43319"  d="M143.856,130.806s7.859,7.63,8.767,54.817c-12.567,3.044-24.669,4.168-34.012,2.981-.448-5.919-1.107-26.461-7.115-48.125a6.849,6.849,0,0,1,5.295-8.571c1.195-.23,2.45-.444,3.7-.61a123.981,123.981,0,0,1,14.31-1.2A62.96,62.96,0,0,1,143.856,130.806Z" transform="translate(-111.243 -130.092)" fill="#263238"/>
        </g>
        <g id="Group_44205"  transform="translate(42.645 35.254)">
          <path id="Path_43320"  d="M145.2,139.191c.753,5.909,10.883,17.253,10.883,17.253l12.039-12.475A99.138,99.138,0,0,0,156.558,133.6C147.776,127.008,144.5,133.719,145.2,139.191Z" transform="translate(-145.111 -130.864)" fill="#263238"/>
        </g>
        <path id="Path_43321"  d="M198.223,140.222l4.022-3.686-4.825-4.956a9.414,9.414,0,0,0-3.082,5.256,1.951,1.951,0,0,0,1.446,2.122Z" transform="translate(-113.292 -95.768)" fill="#ff8b7b"/>
        <path id="Path_43322"  d="M204.6,133.459l-1.041-2.55a1.756,1.756,0,0,0-2.3-.956l-2.962,1.239,4.825,4.956.845-.576A1.756,1.756,0,0,0,204.6,133.459Z" transform="translate(-114.167 -95.38)" fill="#ff8b7b"/>
        <path id="Path_43323"  d="M120.686,101.186c1.129,6.241,1.479,9.938,4.987,12.909a8.035,8.035,0,0,0,13.294-5.384c.654-5.739-1.3-14.981-7.654-17A8.183,8.183,0,0,0,120.686,101.186Z" transform="translate(-97.06 -86.903)" fill="#ff8b7b"/>
        <path id="Path_43324"  d="M130.819,102.211c2.193.5,3.92-2.03,4.127-2.752a5.423,5.423,0,0,1-3.336-.929c1.169.1,2.3-1.341,2.442-1.892a4.827,4.827,0,0,1-3.062-1.994c1.892-.034,4.174-3.371,2.087-6.363s-10.788-.481-12.027-2.614a1.43,1.43,0,0,0-.206,2.477s-12.313,2.3-6.638,7.085c-4.162.378-4.747,5.3-1.273,7.81s3.646,4.159,2.27,3.953c.551,1.066,3.023,1.2,3.162.172.587,2.167,2.272,5.09,6.159,4.609S132.229,105.857,130.819,102.211Z" transform="translate(-94.888 -85.667)" fill="#263238"/>
        <path id="Path_43325"  d="M115.206,96.239c-2.93.4-4.269-1.252-3.532-2.707C108.041,95.386,112.008,99.492,115.206,96.239Z" transform="translate(-94.792 -87.397)" fill="#263238"/>
        <path id="Path_43326"  d="M132.568,104.942a6.908,6.908,0,0,0,2.559,3.207c1.542,1.031,2.976.011,2.706-1.585-.242-1.437-1.336-3.7-2.96-4.11A1.86,1.86,0,0,0,132.568,104.942Z" transform="translate(-99.676 -89.344)" fill="#ff8b7b"/>
      </g>
    </g>
    <g id="Plant" transform="translate(293.349 257.27)">
      <g id="Group_44209"  transform="translate(0 0)">
        <g id="Group_44208"  transform="translate(1.13)">
          <g id="Group_44207"  transform="translate(1.714 28.088)">
            <path id="Path_43327"  d="M385.234,379.339c-5.773-13.62-8.106-29.62-1.5-28.976,6.778.66,5.979,24.807,7.082,27.459C388.7,379.638,385.234,379.339,385.234,379.339Z" transform="translate(-379.733 -350.344)" fill="#263238"/>
            <path id="Path_43328"  d="M388.031,354.39c-1.424,5.191-2.923,13.22-4.076,20.023.656,1.948,1.4,3.907,2.2,5.818,0,0,3.466.3,5.593-1.518C390.88,376.624,391.189,361.146,388.031,354.39Z" transform="translate(-380.662 -351.234)" fill="#263238"/>
          </g>
          <path id="Path_43329"  d="M389.115,368.923c-1.8-28.94,3.144-55.761,16.1-54.55,11.139,1.041-5.1,49.762-4.788,55.383C395.328,371.734,389.115,368.923,389.115,368.923Z" transform="translate(-380.005 -314.333)" fill="#263238"/>
          <path id="Path_43330"  d="M400.016,373.2c2.043-20.8,13.01-45.07,17.725-36.962,5.985,10.293-9.348,34.819-9.772,38.855C404.113,375.914,400.016,373.2,400.016,373.2Z" transform="translate(-382.482 -318.8)" fill="#263238"/>
          <path id="Path_43331"  d="M396.811,322.925a2.042,2.042,0,0,1-1.963-2.2c.094-1.307,1.17-2.609,2.172-2.629.477,0,1.291.247,1.492,2.056l-.775.087c-.1-.856-.354-1.363-.7-1.363h-.007c-.532.009-1.341.972-1.408,1.9-.055.76.387,1.221,1.311,1.374Z" transform="translate(-381.343 -315.162)" fill="#fff"/>
          <path id="Path_43332"  d="M414.585,329.783a3.012,3.012,0,0,1-1.594-.6l.427-.652c.725.473,1.285.6,1.5.327a2.162,2.162,0,0,0-.57-2.3c-.552-.527-1.189-.48-1.9.137l-.512-.588a2.044,2.044,0,0,1,2.945-.113c.948.9,1.266,2.563.643,3.348A1.152,1.152,0,0,1,414.585,329.783Z" transform="translate(-385.105 -316.773)" fill="#fff"/>
          <path id="Path_43333"  d="M390.217,344.76a1.942,1.942,0,0,1-2.04-1.531c-.311-1.273.315-2.842,1.262-3.167.446-.151,1.3-.161,2.05,1.5l-.711.32c-.354-.79-.756-1.194-1.085-1.084a2.164,2.164,0,0,0-.757,2.245c.179.739.743,1.041,1.668.906l.115.771A3.448,3.448,0,0,1,390.217,344.76Z" transform="translate(-379.859 -319.98)" fill="#fff"/>
          <path id="Path_43334"  d="M379.594,365.5a1.884,1.884,0,0,1-1.788-1.168c-.546-1.191-.229-2.85.64-3.349.41-.233,1.251-.4,2.3,1.087l-.639.448c-.5-.708-.973-1.029-1.271-.857a2.164,2.164,0,0,0-.319,2.346c.318.693.927.884,1.81.574l.259.736A3.013,3.013,0,0,1,379.594,365.5Z" transform="translate(-377.536 -324.562)" fill="#fff"/>
          <path id="Path_43335"  d="M397.485,335.348a.39.39,0,0,1-.227-.073,2.3,2.3,0,0,1-1.03-2.832,2.644,2.644,0,0,1,2.727-1.576c.481.088,1.609.518,1.688,2.594a.39.39,0,1,1-.78.029c-.041-1.08-.413-1.739-1.049-1.856a1.881,1.881,0,0,0-1.868,1.115c-.282.666-.009,1.338.767,1.892a.39.39,0,0,1-.227.707Z" transform="translate(-381.611 -317.964)" fill="#fff"/>
          <path id="Path_43336"  d="M409.092,362.316a.39.39,0,0,1-.078-.771c1.058-.22,1.646-.7,1.655-1.344a1.877,1.877,0,0,0-1.41-1.655c-.7-.167-1.321.213-1.739,1.07a.39.39,0,0,1-.7-.341,2.3,2.3,0,0,1,2.621-1.487,2.639,2.639,0,0,1,2.009,2.425c-.007.489-.243,1.673-2.277,2.1A.4.4,0,0,1,409.092,362.316Z" transform="translate(-383.97 -323.88)" fill="#fff"/>
          <path id="Path_43337"  d="M423.312,353.864c-.448,0-1.049-.268-1.726-1.277l.647-.434c.483.719.948,1.044,1.253.885a2.166,2.166,0,0,0,.367-2.341c-.3-.7-.909-.9-1.8-.611l-.244-.74a2.04,2.04,0,0,1,2.757,1.041c.522,1.2.17,2.854-.709,3.335A1.136,1.136,0,0,1,423.312,353.864Z" transform="translate(-387.227 -322)" fill="#fff"/>
        </g>
        <path id="Path_43338"  d="M410.98,390.038a17.335,17.335,0,0,0-4.206-11.341,1.136,1.136,0,0,0,.966-1.111,1.151,1.151,0,0,0-1.148-1.148H380.476a1.151,1.151,0,0,0-1.148,1.148,1.138,1.138,0,0,0,.971,1.112,17.416,17.416,0,0,0,5.092,26.766,1.264,1.264,0,0,0,.583,2.388h15.119a1.265,1.265,0,0,0,.586-2.388A17.44,17.44,0,0,0,410.98,390.038Z" transform="translate(-376.088 -327.996)" fill="#263238"/>
      </g>
    </g>
  </g>
</svg>
