<svg xmlns="http://www.w3.org/2000/svg" xmlns:xlink="http://www.w3.org/1999/xlink" width="250.7" height="238.296" viewBox="0 0 250.7 238.296">
  <defs>
    <radialGradient id="radial-gradient" cx="0.495" cy="0.5" r="3.423" gradientTransform="translate(0.363 0.62) scale(0.141 0.108)" gradientUnits="objectBoundingBox">
      <stop offset="0" stop-color="#797979"/>
      <stop offset="0.298" stop-color="#b6b6b6"/>
      <stop offset="0.579" stop-color="#bababa" stop-opacity="0.502"/>
      <stop offset="0.984" stop-color="#f2f2f2" stop-opacity="0"/>
    </radialGradient>
  </defs>
  <g id="Group_4338"  transform="translate(0)">
    <g id="bells" transform="translate(0)">
      <path id="Path_42711"  d="M422.007,579.474c0,8.989-51.553,16.276-115.144,16.276s-115.145-7.287-115.145-16.276S243.271,563.2,306.863,563.2,422.007,570.487,422.007,579.474Z" transform="translate(-188.351 -357.454)" opacity="0.5" fill="url(#radial-gradient)" style="mix-blend-mode: multiply;isolation: isolate"/>
      <path id="Path_42712"  d="M545.773,381.951l-6.956-5.2a8.739,8.739,0,0,0-10.071-.274L441.183,434.65a8.748,8.748,0,0,0-3.684,9.233l1.891,8.247a7.689,7.689,0,0,0,11.709,4.612l35.34-23.309a14.153,14.153,0,0,0,23.63-15.583l35.34-23.314a7.7,7.7,0,0,0,.364-12.584Z" transform="translate(-298.159 -273.306)" fill="#6eb37b"/>
      <path id="Path_42713"  d="M432.782,379.478l76.644-49.343a7.684,7.684,0,0,0,1.037-12.125c-5.569-5.114-12.969-12.569-17.737-19.973a49.183,49.183,0,0,0-56.773-19.922,59.972,59.972,0,0,1-4.479,50.715c-3.921,6.667-6.914,15.8-8.744,22.307a18.552,18.552,0,0,1-7.015,9.977,78.95,78.95,0,0,1,5.509,14.006,7.688,7.688,0,0,0,11.558,4.359Z" transform="translate(-288.516 -228.856)" fill="#6eb37b"/>
      <path id="Path_42714"  d="M204.307,337.268a7.052,7.052,0,0,0-8.247.747l-7.544,6.6a8.209,8.209,0,0,0,1.238,13.37l39.222,22.427A15.1,15.1,0,0,0,255.2,395.4l39.222,22.438a8.169,8.169,0,0,0,7.556.3c2.418-1.142,3.363-3.1,4.589-6.013.615-1.461,2.148-5.977,2.148-5.977a7.047,7.047,0,0,0-3.017-8.43Z" transform="translate(-185.628 -255.981)" fill="#6eb37b"/>
      <path id="Path_42715"  d="M345.924,236.631l3.952-6.9a23.363,23.363,0,0,0-8.673-31.892l-6.521-3.726A23.361,23.361,0,0,0,302.8,202.8L298.69,210a52.562,52.562,0,0,0-43.668,25.787,93.2,93.2,0,0,1-17.265,22,8.2,8.2,0,0,0,1.417,13.1l83.886,49.232a8.214,8.214,0,0,0,12.054-4.847c2.181-7.778,5.723-18.412,10.477-26.51A52.356,52.356,0,0,0,345.924,236.631Zm-10.989-15.443-.7,1.237a52.972,52.972,0,0,0-7.42-5.328,52.272,52.272,0,0,0-9.8-4.462l.726-1.271a6.32,6.32,0,0,1,5.44-3.065,5.912,5.912,0,0,1,2.962.773l6.518,3.726a6.145,6.145,0,0,1,2.28,8.39Z" transform="translate(-207.759 -191.034)" fill="#6eb37b"/>
    </g>
  </g>
</svg>
