<svg xmlns="http://www.w3.org/2000/svg" xmlns:xlink="http://www.w3.org/1999/xlink" width="430"
    height="320.444" viewBox="0 0 430 320.444">
    <defs>
        <clipPath id="clip-path">
            <path id="Path_43349" d="M0-372.609H430V-52.165H0Z" transform="translate(0 372.609)"
                fill="none" />
        </clipPath>
        <clipPath id="clip-path-2">
            <rect id="Rectangle_23701" width="144.478" height="3.775" fill="none" />
        </clipPath>
        <clipPath id="clip-path-16">
            <rect id="Rectangle_23715" width="12.092" height="16.291" fill="none" />
        </clipPath>
        <clipPath id="clip-path-17">
            <rect id="Rectangle_23716" width="7.114" height="8.362" fill="none" />
        </clipPath>
        <clipPath id="clip-path-18">
            <rect id="Rectangle_23717" width="4.567" height="16.968" fill="none" />
        </clipPath>
        <clipPath id="clip-path-19">
            <rect id="Rectangle_23718" width="6.009" height="7.243" fill="none" />
        </clipPath>
        <clipPath id="clip-path-20">
            <rect id="Rectangle_23719" width="8" height="49.15" fill="none" />
        </clipPath>
        <clipPath id="clip-path-21">
            <rect id="Rectangle_23720" width="8.082" height="8.362" fill="none" />
        </clipPath>
        <clipPath id="clip-path-22">
            <rect id="Rectangle_23721" width="121.624" height="174.227" fill="#98eca8" />
        </clipPath>
    </defs>
    <g id="Group_4919" transform="translate(0 372.609)">
        <path id="Path_43222" d="M0-44.948H430v-.215H0Z" transform="translate(0 -45.842)"
            fill="#ebebeb" />
        <path id="Path_43223" d="M363-28.852h74.735v-.215H363Z"
            transform="translate(-50.82 -48.096)" fill="#ebebeb" />
        <path id="Path_43224" d="M357.664-38.138h7.476v-.215h-7.476Z"
            transform="translate(-50.073 -46.796)" fill="#ebebeb" />
        <path id="Path_43225" d="M280.124-29.847H296.63v-.215H280.124Z"
            transform="translate(-39.217 -47.957)" fill="#ebebeb" />
        <path id="Path_43226" d="M52.459-36.458H71.032v-.215H52.459Z"
            transform="translate(-7.344 -47.031)" fill="#ebebeb" />
        <path id="Path_43227" d="M82.959-36.458h24.02v-.215H82.959Z"
            transform="translate(-11.614 -47.031)" fill="#ebebeb" />
        <path id="Path_43228" d="M207.667-32.36h40.281v-.215H207.667Z"
            transform="translate(-29.073 -47.605)" fill="#ebebeb" />
        <g id="Group_4918" transform="translate(0 -372.609)" clip-path="url(#clip-path)">
            <g id="Group_4751" transform="translate(32.858 0)">
                <path id="Path_43229"
                    d="M-.8-.035A4.7,4.7,0,0,0-5.493,4.659V238.09A4.7,4.7,0,0,0-.8,242.783H165.266a4.7,4.7,0,0,0,4.693-4.694V4.659a4.7,4.7,0,0,0-4.693-4.694ZM165.266,243H-.8a4.914,4.914,0,0,1-4.909-4.909V4.659A4.915,4.915,0,0,1-.8-.25H165.266a4.915,4.915,0,0,1,4.908,4.909V238.09A4.914,4.914,0,0,1,165.266,243"
                    transform="translate(5.708 0.25)" fill="#ebebeb" />
            </g>
            <g id="Group_4752" transform="translate(218.874 0)">
                <path id="Path_43230"
                    d="M-.8-.035A4.7,4.7,0,0,0-5.492,4.659V238.09A4.7,4.7,0,0,0-.8,242.783H165.266a4.7,4.7,0,0,0,4.694-4.694V4.659a4.7,4.7,0,0,0-4.694-4.694ZM165.266,243H-.8a4.914,4.914,0,0,1-4.908-4.909V4.659A4.914,4.914,0,0,1-.8-.25H165.266a4.915,4.915,0,0,1,4.909,4.909V238.09A4.914,4.914,0,0,1,165.266,243"
                    transform="translate(5.707 0.25)" fill="#ebebeb" />
            </g>
            <path id="Path_43231" d="M246.121-65.238H219.513v-123.32h26.608Z"
                transform="translate(-30.732 346.842)" fill="#e6e6e6" />
            <g id="Group_4753" transform="translate(205.037 267.229)">
                <path id="Path_43232" d="M-.863-2.34H4.191V-16.715H-6.161Z"
                    transform="translate(6.161 16.715)" fill="#efefef" />
            </g>
            <path id="Path_43233" d="M90.6-65.238H64v-123.32H90.6Z"
                transform="translate(-8.959 346.842)" fill="#e6e6e6" />
            <path id="Path_43234" d="M227.962-74.059H89.806v-114.5H227.962Z"
                transform="translate(-12.573 346.842)" fill="#efefef" />
            <path id="Path_43235" d="M224.679-184H94.364v28.309H224.679Z"
                transform="translate(-13.211 346.203)" fill="#e6e6e6" />
            <path id="Path_43236" d="M235.562-147.3H172.1v61.049h63.461Z"
                transform="translate(-24.094 341.066)" fill="#e6e6e6" />
            <path id="Path_43237" d="M157.826-147.3H94.365v61.049h63.461Z"
                transform="translate(-13.211 341.066)" fill="#e6e6e6" />
            <g id="Group_4754" transform="translate(130.42 200.048)">
                <path id="Path_43238"
                    d="M0-.731A4.493,4.493,0,0,0,4.493,3.761,4.493,4.493,0,0,0,8.985-.731,4.493,4.493,0,0,0,4.493-5.224,4.493,4.493,0,0,0,0-.731"
                    transform="translate(0 5.224)" fill="#f9f9f9" />
            </g>
            <g id="Group_4755" transform="translate(153.217 200.048)">
                <path id="Path_43239"
                    d="M0-.731A4.493,4.493,0,0,0,4.493,3.761,4.493,4.493,0,0,0,8.985-.731,4.493,4.493,0,0,0,4.493-5.224,4.493,4.493,0,0,0,0-.731"
                    transform="translate(0 5.224)" fill="#f9f9f9" />
            </g>
            <g id="Group_4756" transform="translate(77.234 267.229)">
                <path id="Path_43240" d="M-.823-2.34H-5.876V-16.715H4.476Z"
                    transform="translate(5.876 16.715)" fill="#efefef" />
            </g>
            <g id="Group_4757" transform="translate(185.16 172.074)">
                <path id="Path_43241"
                    d="M0-.731A4.493,4.493,0,0,0,4.493,3.761,4.493,4.493,0,0,0,8.985-.731,4.493,4.493,0,0,0,4.493-5.224,4.493,4.493,0,0,0,0-.731"
                    transform="translate(0 5.224)" fill="#f9f9f9" />
            </g>
            <g id="Group_4758" transform="translate(99.664 172.074)">
                <path id="Path_43242"
                    d="M0-.731A4.493,4.493,0,0,0,4.493,3.761,4.493,4.493,0,0,0,8.985-.731,4.493,4.493,0,0,0,4.493-5.224,4.493,4.493,0,0,0,0-.731"
                    transform="translate(0 5.224)" fill="#f9f9f9" />
            </g>
            <path id="Path_43243" d="M410.731-227.258H266.684v-119.7H410.731Z"
                transform="translate(-37.336 369.018)" fill="#ebebeb" />
            <path id="Path_43244" d="M414.333-227.258H268.5v-119.7h145.83Z"
                transform="translate(-37.59 369.018)" fill="#f5f5f5" />
            <path id="Path_43245" d="M422.961-207.772H266.683v3.966H422.961Z"
                transform="translate(-37.336 349.532)" fill="#ebebeb" />
            <path id="Path_43246" d="M421.675-207.772H285.794v3.966H421.675Z"
                transform="translate(-40.011 349.532)" fill="#f5f5f5" />
            <path id="Path_43247" d="M273.954-341.262H410.409v109.9H273.954Z"
                transform="translate(-38.354 368.22)" fill="#f9f9f9" />
            <g id="Group_4759" transform="translate(264.687 26.958)">
                <path id="Path_43248" d="M0-17.891l40.027-109.9h18.9L18.9-17.891Z"
                    transform="translate(0 127.791)" fill="#fff" />
            </g>
            <g id="Group_4760" transform="translate(287.641 26.958)">
                <path id="Path_43249" d="M0-17.891l40.027-109.9h7.367L7.367-17.891Z"
                    transform="translate(0 127.791)" fill="#fff" />
            </g>
            <g id="Group_4761" transform="translate(311.338 26.958)">
                <path id="Path_43250" d="M0-17.891l40.027-109.9h7.367L7.367-17.891Z"
                    transform="translate(0 127.791)" fill="#fff" />
            </g>
            <path id="Path_43251" d="M431.93-341.262h.6v109.9h-.6Z"
                transform="translate(-60.47 368.22)" fill="#ebebeb" />
            <g id="Group_4765" transform="translate(233.374 28.864)" opacity="0.5">
                <g id="Group_4764">
                    <g id="Group_4763" clip-path="url(#clip-path-2)">
                        <g id="Group_4762" transform="translate(0.001 0)">
                            <path id="Path_43252" d="M-23.52-.615H-167.566L-168-4.39H-23.951Z"
                                transform="translate(167.997 4.39)" fill="#ebebeb" />
                        </g>
                    </g>
                </g>
            </g>
            <g id="Group_4769" transform="translate(233.374 33.571)" opacity="0.5">
                <g id="Group_4768">
                    <g id="Group_4767" clip-path="url(#clip-path-2)">
                        <g id="Group_4766" transform="translate(0.001 0)">
                            <path id="Path_43253" d="M-23.52-.615H-167.566L-168-4.39H-23.951Z"
                                transform="translate(167.997 4.39)" fill="#ebebeb" />
                        </g>
                    </g>
                </g>
            </g>
            <g id="Group_4773" transform="translate(233.374 38.277)" opacity="0.5">
                <g id="Group_4772">
                    <g id="Group_4771" clip-path="url(#clip-path-2)">
                        <g id="Group_4770" transform="translate(0.001 0)">
                            <path id="Path_43254" d="M-23.52-.615H-167.566L-168-4.39H-23.951Z"
                                transform="translate(167.997 4.39)" fill="#ebebeb" />
                        </g>
                    </g>
                </g>
            </g>
            <g id="Group_4777" transform="translate(233.374 42.984)" opacity="0.5">
                <g id="Group_4776">
                    <g id="Group_4775" clip-path="url(#clip-path-2)">
                        <g id="Group_4774" transform="translate(0.001 0)">
                            <path id="Path_43255" d="M-23.52-.615H-167.566L-168-4.39H-23.951Z"
                                transform="translate(167.997 4.39)" fill="#ebebeb" />
                        </g>
                    </g>
                </g>
            </g>
            <g id="Group_4781" transform="translate(233.374 47.69)" opacity="0.5">
                <g id="Group_4780">
                    <g id="Group_4779" clip-path="url(#clip-path-2)">
                        <g id="Group_4778" transform="translate(0.001 0)">
                            <path id="Path_43256" d="M-23.52-.615H-167.566L-168-4.39H-23.951Z"
                                transform="translate(167.997 4.39)" fill="#ebebeb" />
                        </g>
                    </g>
                </g>
            </g>
            <g id="Group_4785" transform="translate(233.374 52.397)" opacity="0.5">
                <g id="Group_4784">
                    <g id="Group_4783" clip-path="url(#clip-path-2)">
                        <g id="Group_4782" transform="translate(0.001 0)">
                            <path id="Path_43257" d="M-23.52-.615H-167.566L-168-4.39H-23.951Z"
                                transform="translate(167.997 4.39)" fill="#ebebeb" />
                        </g>
                    </g>
                </g>
            </g>
            <g id="Group_4789" transform="translate(233.374 57.103)" opacity="0.5">
                <g id="Group_4788">
                    <g id="Group_4787" clip-path="url(#clip-path-2)">
                        <g id="Group_4786" transform="translate(0.001 0)">
                            <path id="Path_43258" d="M-23.52-.615H-167.566L-168-4.39H-23.951Z"
                                transform="translate(167.997 4.39)" fill="#ebebeb" />
                        </g>
                    </g>
                </g>
            </g>
            <g id="Group_4793" transform="translate(233.374 61.81)" opacity="0.5">
                <g id="Group_4792">
                    <g id="Group_4791" clip-path="url(#clip-path-2)">
                        <g id="Group_4790" transform="translate(0.001 0)">
                            <path id="Path_43259" d="M-23.52-.615H-167.566L-168-4.39H-23.951Z"
                                transform="translate(167.997 4.39)" fill="#ebebeb" />
                        </g>
                    </g>
                </g>
            </g>
            <g id="Group_4797" transform="translate(233.374 66.517)" opacity="0.5">
                <g id="Group_4796">
                    <g id="Group_4795" clip-path="url(#clip-path-2)">
                        <g id="Group_4794" transform="translate(0.001 0)">
                            <path id="Path_43260" d="M-23.52-.615H-167.566L-168-4.39H-23.951Z"
                                transform="translate(167.997 4.39)" fill="#ebebeb" />
                        </g>
                    </g>
                </g>
            </g>
            <g id="Group_4801" transform="translate(233.374 71.223)" opacity="0.5">
                <g id="Group_4800">
                    <g id="Group_4799" clip-path="url(#clip-path-2)">
                        <g id="Group_4798" transform="translate(0.001 0)">
                            <path id="Path_43261" d="M-23.52-.615H-167.566L-168-4.39H-23.951Z"
                                transform="translate(167.997 4.39)" fill="#ebebeb" />
                        </g>
                    </g>
                </g>
            </g>
            <g id="Group_4805" transform="translate(233.374 75.929)" opacity="0.5">
                <g id="Group_4804">
                    <g id="Group_4803" clip-path="url(#clip-path-2)">
                        <g id="Group_4802" transform="translate(0.001 0)">
                            <path id="Path_43262" d="M-23.52-.615H-167.566L-168-4.39H-23.951Z"
                                transform="translate(167.997 4.39)" fill="#ebebeb" />
                        </g>
                    </g>
                </g>
            </g>
            <g id="Group_4809" transform="translate(233.374 80.636)" opacity="0.5">
                <g id="Group_4808">
                    <g id="Group_4807" clip-path="url(#clip-path-2)">
                        <g id="Group_4806" transform="translate(0.001 0)">
                            <path id="Path_43263" d="M-23.52-.615H-167.566L-168-4.39H-23.951Z"
                                transform="translate(167.997 4.39)" fill="#ebebeb" />
                        </g>
                    </g>
                </g>
            </g>
            <g id="Group_4813" transform="translate(233.374 85.343)" opacity="0.5">
                <g id="Group_4812">
                    <g id="Group_4811" clip-path="url(#clip-path-2)">
                        <g id="Group_4810" transform="translate(0.001 0)">
                            <path id="Path_43264" d="M-23.52-.615H-167.566L-168-4.39H-23.951Z"
                                transform="translate(167.997 4.39)" fill="#ebebeb" />
                        </g>
                    </g>
                </g>
            </g>
            <g id="Group_4817" transform="translate(233.374 90.05)" opacity="0.5">
                <g id="Group_4816">
                    <g id="Group_4815" clip-path="url(#clip-path-2)">
                        <g id="Group_4814" transform="translate(0.001 0)">
                            <path id="Path_43265" d="M-23.52-.615H-167.566L-168-4.39H-23.951Z"
                                transform="translate(167.997 4.39)" fill="#ebebeb" />
                        </g>
                    </g>
                </g>
            </g>
            <path id="Path_43266" d="M310.536-159.356H391.6v-13.167H310.536Z"
                transform="translate(-43.475 344.597)" fill="#ebebeb" />
            <g id="Group_4818" transform="translate(267.063 185.241)">
                <path id="Path_43267" d="M0-15.687l8.252-96.362H19.367L3.3-15.687Z"
                    transform="translate(0 112.049)" fill="#dfdfdf" />
            </g>
            <g id="Group_4819" transform="translate(328.755 185.241)">
                <path id="Path_43268" d="M-3.153-15.687-11.4-112.049H-22.52L-6.456-15.687Z"
                    transform="translate(22.52 112.049)" fill="#dfdfdf" />
            </g>
            <g id="Group_4820" transform="translate(299.841 185.241)">
                <path id="Path_43269" d="M-2.922-15.687l-6.835-96.362H-20.873L-6.225-15.687Z"
                    transform="translate(20.873 112.049)" fill="#dfdfdf" />
            </g>
            <g id="Group_4821" transform="translate(74.894 76.658)">
                <path id="Path_43270"
                    d="M-2.58-9.959h0A8.291,8.291,0,0,0,5.1-19.478L-.643-62.855a9.6,9.6,0,0,0-10.028-8.262h0A8.291,8.291,0,0,0-18.347-61.6l5.739,43.377A9.6,9.6,0,0,0-2.58-9.959"
                    transform="translate(18.426 71.139)" fill="#f5f5f5" />
            </g>
            <g id="Group_4822" transform="translate(90.189 93.062)">
                <path id="Path_43271"
                    d="M-.907-6.768h0c3.444.861,6.552-1.133,6.943-4.456L9.485-40.57a7.3,7.3,0,0,0-5.529-7.574C.512-49-2.6-47.01-2.987-43.688L-6.436-14.342A7.3,7.3,0,0,0-.907-6.768"
                    transform="translate(6.476 48.344)" fill="#efefef" />
            </g>
            <g id="Group_4823" transform="translate(68.34 97.529)">
                <path id="Path_43272"
                    d="M-3.458-6.768h0c-3.181.861-6.9-1.133-8.3-4.456l-12.4-29.346c-1.4-3.322.036-6.713,3.217-7.574s6.9,1.133,8.3,4.456l12.4,29.346c1.4,3.322-.036,6.713-3.217,7.574"
                    transform="translate(24.702 48.344)" fill="#e6e6e6" />
            </g>
            <g id="Group_4824" transform="translate(72.591 126.133)">
                <path id="Path_43273" d="M-.917-5.234H26.091l5.632-32.15H-6.549Z"
                    transform="translate(6.549 37.384)" fill="#e6e6e6" />
            </g>
            <path id="Path_43274" d="M82.022-222.1H124.4v-9.177H82.022Z"
                transform="translate(-11.483 352.823)" fill="#dfdfdf" />
            <g id="Group_4825" transform="translate(48.256 300.968)">
                <path id="Path_43275"
                    d="M-54.289-1.585c0,5.378-74.654,9.738-166.745,9.738S-387.778,3.793-387.778-1.585s74.654-9.738,166.745-9.738S-54.289-6.963-54.289-1.585"
                    transform="translate(387.778 11.323)" fill="#f5f5f5" />
            </g>
            <g id="Group_4826" transform="translate(264.249 287.511)">
                <path id="Path_43276" d="M-1.121-2.624-8.01-2.733l.43-16.012,6.889.108Z"
                    transform="translate(8.01 18.745)" fill="#ff8a7a" />
            </g>
            <g id="Group_4827" transform="translate(250.74 302.725)">
                <path id="Path_43277"
                    d="M-2.186,0,5.34.118A.533.533,0,0,1,5.872.6l.656,6.157A1.125,1.125,0,0,1,5.4,7.968c-2.71-.089-6.614-.31-10.027-.364-3.99-.063-3.6.1-8.28.028C-15.74,7.588-16.2,4.71-14.982,4.469-9.455,3.373-8.9,3.315-3.908.512A3.461,3.461,0,0,1-2.186,0"
                    transform="translate(15.614 0)" fill="#253138" />
            </g>
            <g id="Group_4828" transform="translate(223.161 93.808)">
                <path id="Path_43278"
                    d="M-6.4-.637c-.946,2.455-1.977,4.672-3.044,6.969-1.083,2.268-2.222,4.512-3.456,6.718A81.765,81.765,0,0,1-21.521,25.89l-.357.427c-.2.217-.367.421-.593.636a8.706,8.706,0,0,1-1.559,1.226,7.871,7.871,0,0,1-2.1.9,7.47,7.47,0,0,1-2.313.222,8.528,8.528,0,0,1-3.579-1.057,12.479,12.479,0,0,1-2.27-1.594,20.486,20.486,0,0,1-3.019-3.333,39.824,39.824,0,0,1-2.239-3.369A71.235,71.235,0,0,1-45.713,6l4.735-2.109c1.242,1.975,2.522,4.033,3.857,5.97,1.322,1.954,2.671,3.868,4.089,5.622.7.878,1.418,1.721,2.147,2.469A15.227,15.227,0,0,0-28.776,19.8a3.063,3.063,0,0,0,.773.41c.163.05.193-.014-.093-.072a1.779,1.779,0,0,0-.949.17c-.1.059-.143.073-.151.069s.006-.036.015-.046l.2-.293c1.281-1.782,2.457-3.747,3.623-5.718,1.143-2,2.231-4.06,3.3-6.14q1.575-3.14,3.074-6.348C-17.978-.273-17.011-2.5-16.1-4.547Z"
                    transform="translate(45.713 4.547)" fill="#ff8a7a" />
            </g>
            <g id="Group_4829" transform="translate(241.293 88.194)">
                <path id="Path_43279"
                    d="M-3.888-.881c2.1,6.332-10.347,23.594-10.347,23.594l-13.534-8.5A80.233,80.233,0,0,1-19.2-1.312c5.151-6.9,13.007-6.518,15.314.431"
                    transform="translate(27.768 6.293)" fill="#253138" />
            </g>
            <g id="Group_4833" transform="translate(250.658 100.908)" opacity="0.2">
                <g id="Group_4832">
                    <g id="Group_4831" clip-path="url(#clip-path-16)">
                        <g id="Group_4830" transform="translate(0 0)">
                            <path id="Path_43280"
                                d="M-1.1-.021C-3.771,1.14-8.387,10.111-7.788,13.558l4.112,2.58A100.344,100.344,0,0,0,4.251,2.928C2.406.985.315-.632-1.1-.021"
                                transform="translate(7.841 0.152)" />
                        </g>
                    </g>
                </g>
            </g>
            <g id="Group_4834" transform="translate(219.662 96.294)">
                <path id="Path_43281" d="M-1.418-1.271-2.7-9.076l-7.428,2.57S-9.94-.368-4.952.76Z"
                    transform="translate(10.126 9.076)" fill="#ff8a7a" />
            </g>
            <g id="Group_4835" transform="translate(218.646 90.67)">
                <path id="Path_43282"
                    d="M-.556-.059-3.392,2.287A1.591,1.591,0,0,0-3.922,3.9l.968,3.872L4.474,5.2,1.855.4A1.591,1.591,0,0,0-.556-.059"
                    transform="translate(3.969 0.425)" fill="#ff8a7a" />
            </g>
            <g id="Group_4839" transform="translate(264.457 287.515)" opacity="0.2">
                <g id="Group_4838">
                    <g id="Group_4837" clip-path="url(#clip-path-17)">
                        <g id="Group_4836" transform="translate(0)">
                            <path id="Path_43283" d="M-.036,0-.259,8.253l6.891.108L6.855.108Z"
                                transform="translate(0.259)" />
                        </g>
                    </g>
                </g>
            </g>
            <g id="Group_4840" transform="translate(253.528 87.159)">
                <path id="Path_43284"
                    d="M-6.888-.594c-6.441,26.221-3.887,54.054-4.345,59.686,0,0-36.925-.6-36.925-.6-3.387-40.5,2.582-61.614,2.582-61.614s2.35-.46,5.557-.79c1.006-.1,2.092-.2,3.223-.255.625-.037,1.26-.058,1.9-.071a137.83,137.83,0,0,1,15.7,1.167c.986.122,1.991.269,2.963.427.9.153,1.788.316,2.623.482,3.787.75,6.717,1.567,6.717,1.567"
                    transform="translate(49.197 4.241)" fill="#253138" />
            </g>
            <g id="Group_4844" transform="translate(288.271 102.054)" opacity="0.2">
                <g id="Group_4843">
                    <g id="Group_4842" clip-path="url(#clip-path-18)">
                        <g id="Group_4841" transform="translate(0 0)">
                            <path id="Path_43285"
                                d="M-.022,0c-.566,2.537.63,14.113,3.387,16.968.221-3.707.556-7.577,1.042-11.533Z"
                                transform="translate(0.16)" />
                        </g>
                    </g>
                </g>
            </g>
            <g id="Group_4845" transform="translate(266.484 70.589)">
                <path id="Path_43286"
                    d="M-2.627,0c-1.174,4.963-2.5,14.117.912,17.739-2.844,2.517-6.547,5.395-12.552,5.16s-4.807-4.271-3.144-6.324c5.68-.924,5.687-5.1,4.85-9.087Z"
                    transform="translate(18.763)" fill="#ff8a7a" />
            </g>
            <g id="Group_4846" transform="translate(269.648 87.446)">
                <path id="Path_43287"
                    d="M-2.207-.035c-.644.914-3.357,3.651-13.555,5.7,1.489,1.066,3.031,3.626,3.824,5.071a1.344,1.344,0,0,0,1.665.618C-7.343,10.171.3,6.535-.031.8A.582.582,0,0,0-.319.338a7.621,7.621,0,0,0-1.29-.559.521.521,0,0,0-.6.186"
                    transform="translate(15.762 0.25)" fill="#fff" />
            </g>
            <g id="Group_4847" transform="translate(262.271 86.683)">
                <path id="Path_43288"
                    d="M-.483-1.672a11.228,11.228,0,0,1,4.408-3.6,6.384,6.384,0,0,1-1.778-5.961.569.569,0,0,0-.593-.711,7.561,7.561,0,0,0-.978.164.539.539,0,0,0-.2.1c-.771.593-6.09,4.954-2.715,9.9a1.158,1.158,0,0,0,1.858.106"
                    transform="translate(3.453 11.943)" fill="#fff" />
            </g>
            <g id="Group_4851" transform="translate(272.69 73.644)" opacity="0.2">
                <g id="Group_4850">
                    <g id="Group_4849" clip-path="url(#clip-path-19)">
                        <g id="Group_4848" transform="translate(0.001 0)">
                            <path id="Path_43289"
                                d="M-.957,0l-5.88,4.429a16.377,16.377,0,0,1,.382,2.814c2.163-.15,5.2-2.286,5.515-4.516A7.555,7.555,0,0,0-.957,0"
                                transform="translate(6.837)" />
                        </g>
                    </g>
                </g>
            </g>
            <g id="Group_4852" transform="translate(259.215 43.328)">
                <path id="Path_43290"
                    d="M-1.194-4.06c-2.9-.6-3.2-8.851-1.847-10.894-1.883.024-4.821-2.341-5.489-4.515,2.054.072,5.016-1.1,5.489-1.967-2.026-.971-5.132-3.885-5.489-6.346,5.145,2.508,9.077,2.675,10.869,2.46A4.789,4.789,0,0,1,.929-29a27.518,27.518,0,0,0,13.76,3.333c4.555-.157,6.917,3.548,5.161,6.271C23.969-19.5,21.1-7.859,17.162-5.386,13.434-3.415,6.725-2.411-1.194-4.06"
                    transform="translate(8.531 29)" fill="#253138" />
            </g>
            <g id="Group_4853" transform="translate(264.36 52.326)">
                <path id="Path_43291"
                    d="M-3.245-1.747C-4.11,5.041-4.271,9.061-7.946,12.3c-5.529,4.88-13.747,1.13-14.93-5.8C-23.942.271-22.348-9.782-15.491-12A9.43,9.43,0,0,1-3.245-1.747"
                    transform="translate(23.178 12.476)" fill="#ff8a7a" />
            </g>
            <g id="Group_4854" transform="translate(279.074 53.576)">
                <path id="Path_43292"
                    d="M-.535,0S-4.8,1.649-3.617,5.984s1,6.271.394,7.561C-2.793,14.906.755,15.52.755,15.52s2.974-6.3,3.4-9.832S-.535,0-.535,0"
                    transform="translate(3.824)" fill="#253138" />
            </g>
            <g id="Group_4855" transform="translate(285.737 47.769)">
                <path id="Path_43293"
                    d="M0-.783C1.693-.475,4.186-3.3,4.4-5.595c0,0,1.055,8.32-4.4,4.812"
                    transform="translate(0 5.595)" fill="#253138" />
            </g>
            <g id="Group_4856" transform="translate(265.557 49.024)">
                <path id="Path_43294"
                    d="M-3.205-.476C-2.349,3.2-11.283,5.1-22.893,4.808c0,0-.072-4.443,3.44-6.2S-4.316-5.242-3.205-.476"
                    transform="translate(22.893 3.399)" fill="#253138" />
            </g>
            <g id="Group_4857" transform="translate(280.301 65.346)">
                <path id="Path_43295"
                    d="M-1.1-.753A6.442,6.442,0,0,1-5.15,2.106C-7.379,2.589-8.379.561-7.662-1.473c.644-1.831,2.58-4.288,4.771-3.858A2.94,2.94,0,0,1-1.1-.753"
                    transform="translate(7.891 5.381)" fill="#ff8a7a" />
            </g>
            <g id="Group_4858" transform="translate(254.591 149.896)">
                <path id="Path_43296"
                    d="M-3.481-11.154C-3.759-45.87,3.925-79.208,3.925-79.208l-28.788-.464s3.31,50.139,4.461,71.139c1.195,21.836,2.869,73.1,2.869,73.1l11.687.178s3.981-48.5,2.365-75.9"
                    transform="translate(24.863 79.672)" fill="#6eb37b" />
            </g>
            <g id="Group_4862" transform="translate(272.151 167.603)" opacity="0.2">
                <g id="Group_4861">
                    <g id="Group_4860" clip-path="url(#clip-path-20)">
                        <g id="Group_4859" transform="translate(0 0.001)">
                            <path id="Path_43297"
                                d="M-.808-.3c-8.2,11.232-4.515,32.362-1.152,47.291A320.674,320.674,0,0,1,2.228-2.16Z"
                                transform="translate(5.772 2.16)" />
                        </g>
                    </g>
                </g>
            </g>
            <g id="Group_4863" transform="translate(260.385 289.621)">
                <path id="Path_43298" d="M-.132-.775,13.76-.557l.785-4.5L-.943-5.538Z"
                    transform="translate(0.943 5.538)" fill="#253138" />
            </g>
            <g id="Group_4864" transform="translate(273.895 63.135)">
                <path id="Path_43299"
                    d="M-.215-.172c-.036.556-.36.983-.723.956S-1.567.286-1.53-.27s.359-.983.723-.956.628.5.592,1.054"
                    transform="translate(1.533 1.227)" fill="#253138" />
            </g>
            <g id="Group_4865" transform="translate(266.219 62.668)">
                <path id="Path_43300"
                    d="M-.215-.172c-.036.556-.36.984-.723.956S-1.567.286-1.53-.27s.359-.983.723-.956.628.5.592,1.054"
                    transform="translate(1.533 1.227)" fill="#253138" />
            </g>
            <g id="Group_4866" transform="translate(266.552 64.148)">
                <path id="Path_43301"
                    d="M-.483,0A19.691,19.691,0,0,1-3.447,4.551a3.224,3.224,0,0,0,2.621.7Z"
                    transform="translate(3.447)" fill="#ff5552" />
            </g>
            <g id="Group_4867" transform="translate(270.539 69.206)">
                <path id="Path_43302"
                    d="M-.143-.3A4.534,4.534,0,0,0,3.115-1.888a.164.164,0,0,0-.033-.229.164.164,0,0,0-.229.03A4.379,4.379,0,0,1-.848-.633a.162.162,0,0,0-.174.151.166.166,0,0,0,.153.175A5.41,5.41,0,0,0-.143-.3"
                    transform="translate(1.022 2.15)" fill="#253138" />
            </g>
            <g id="Group_4868" transform="translate(273.708 59.263)">
                <path id="Path_43303"
                    d="M-.43-.333A.325.325,0,0,0-.273-.385.326.326,0,0,0-.18-.837,3.279,3.279,0,0,0-2.749-2.381a.323.323,0,0,0-.325.326.331.331,0,0,0,.327.329A2.619,2.619,0,0,1-.726-.482a.331.331,0,0,0,.3.149"
                    transform="translate(3.074 2.381)" fill="#253138" />
            </g>
            <g id="Group_4869" transform="translate(264.704 59.016)">
                <path id="Path_43304"
                    d="M-.051-.308A.321.321,0,0,0,.228-.44,2.567,2.567,0,0,1,2.306-1.547a.324.324,0,0,0,.341-.308A.329.329,0,0,0,2.339-2.2,3.217,3.217,0,0,0-.3-.83a.328.328,0,0,0,.071.458.326.326,0,0,0,.178.065"
                    transform="translate(0.363 2.202)" fill="#253138" />
            </g>
            <g id="Group_4870" transform="translate(258.753 301.791)">
                <path id="Path_43305"
                    d="M-.081-.057c.524-.172,2.018.425,3.1.964C1.5,1.137.36,1.052-.059.67A.6.6,0,0,1-.247.141.194.194,0,0,1-.14-.032.373.373,0,0,1-.081-.057m3.668,1.2a.164.164,0,0,0,.027-.3C3.3.677.551-.773-.3-.319A.52.52,0,0,0-.572.112h0a.916.916,0,0,0,.294.8c.746.682,2.728.441,3.844.237l.021-.005"
                    transform="translate(0.578 0.407)" fill="#6eb37b" />
            </g>
            <g id="Group_4871" transform="translate(260.475 300.197)">
                <path id="Path_43306"
                    d="M-.1-.027h0ZM-.258.167A.709.709,0,0,1-.09.135h0A.87.87,0,0,1,.572.354,3.825,3.825,0,0,1,1.448,2.5C.606,1.972-.5.781-.413.314c.005-.028.019-.1.155-.147M1.7,2.948a.15.15,0,0,0,.042-.022.163.163,0,0,0,.071-.147A4.67,4.67,0,0,0,.784.1a1.2,1.2,0,0,0-.9-.294C-.568-.152-.7.074-.734.257c-.139.778,1.487,2.3,2.313,2.683a.163.163,0,0,0,.12.008"
                    transform="translate(0.743 0.195)" fill="#6eb37b" />
            </g>
            <g id="Group_4872" transform="translate(300.664 287.511)">
                <path id="Path_43307" d="M-1.5-2.624-8.4-2.733l-2.279-16.012,6.907.108Z"
                    transform="translate(10.681 18.745)" fill="#ff8a7a" />
            </g>
            <g id="Group_4873" transform="translate(293.67 302.725)">
                <path id="Path_43308"
                    d="M-1.452,0,6.074.118A.532.532,0,0,1,6.606.6l.656,6.157A1.125,1.125,0,0,1,6.129,7.968C3.42,7.878,2.567,7.657-.845,7.6c-3.99-.063-2.148.1-6.828.028-2.829-.044-3.282-2.909-2.07-3.162C-5.909,3.667-4.9,2.14-3.174.512A2.431,2.431,0,0,1-1.452,0"
                    transform="translate(10.373 0.001)" fill="#253138" />
            </g>
            <g id="Group_4877" transform="translate(300.666 287.515)" opacity="0.2">
                <g id="Group_4876">
                    <g id="Group_4875" clip-path="url(#clip-path-21)">
                        <g id="Group_4874" transform="translate(0)">
                            <path id="Path_43309" d="M0,0,1.173,8.253l6.91.108L6.91.108Z" />
                        </g>
                    </g>
                </g>
            </g>
            <g id="Group_4878" transform="translate(267.093 150.097)">
                <path id="Path_43310"
                    d="M-5.363-10.98C-9.281-42.007-9.254-71.1-13.906-78.033l-24.4-.394S-25.791-29.373-21.028-8.705C-16.079,12.784-6.681,63.566-6.681,63.566l11.13.158s-2.5-50.7-9.813-74.7"
                    transform="translate(38.307 78.427)" fill="#6eb37b" />
            </g>
            <g id="Group_4879" transform="translate(296.371 289.621)">
                <path id="Path_43311" d="M-.132-.775,13.76-.557l.785-4.5L-.943-5.538Z"
                    transform="translate(0.943 5.538)" fill="#253138" />
            </g>
            <g id="Group_4880" transform="translate(300.298 300.536)">
                <path id="Path_43312"
                    d="M-.1-.053c.55.018,1.749,1.092,2.584,1.972C.969,1.609-.068,1.141-.33.638A.6.6,0,0,1-.325.076.194.194,0,0,1-.166-.05a.314.314,0,0,1,.065,0M2.931,2.333a.164.164,0,0,0,.128-.273C2.824,1.8.738-.509-.213-.373a.52.52,0,0,0-.409.309h0a.914.914,0,0,0,0,.851c.466.9,2.411,1.352,3.529,1.543l.022,0"
                    transform="translate(0.726 0.379)" fill="#6eb37b" />
            </g>
            <g id="Group_4881" transform="translate(302.502 299.636)">
                <path id="Path_43313"
                    d="M-.127-.032h0ZM-.338.1A.722.722,0,0,1-.17.125h0A.872.872,0,0,1,.378.558,3.834,3.834,0,0,1,.465,2.871C-.146,2.089-.773.593-.534.183c.015-.025.052-.09.2-.085M.546,3.382a.213.213,0,0,0,.046-.005.165.165,0,0,0,.117-.114A4.67,4.67,0,0,0,.662.4,1.192,1.192,0,0,0-.084-.19C-.52-.308-.723-.142-.817.019-1.215.7-.209,2.686.435,3.334a.166.166,0,0,0,.111.048"
                    transform="translate(0.907 0.23)" fill="#6eb37b" />
            </g>
            <g id="Group_4882" transform="translate(288.561 94.881)">
                <path id="Path_43314"
                    d="M-1.495,0C.9,4.3,3.069,8.587,5.155,13c2.045,4.421,4,8.891,5.7,13.567.421,1.17.832,2.352,1.214,3.563l.3.937a11.446,11.446,0,0,1,.346,1.491,11.372,11.372,0,0,1,.094,2.937,14.548,14.548,0,0,1-1.438,4.9,20.8,20.8,0,0,1-2.361,3.72A34.01,34.01,0,0,1,3.362,49.73c-1,.809-2.034,1.553-3.092,2.256s-2.093,1.362-3.287,2.006l-3.012-4.218c.737-.768,1.574-1.62,2.331-2.454s1.5-1.71,2.219-2.567A36.6,36.6,0,0,0,2.211,39.5,9.145,9.145,0,0,0,3.655,34.95a2.605,2.605,0,0,0-.126-.634,2.137,2.137,0,0,0-.108-.242l-.306-.751c-.413-1.045-.864-2.094-1.33-3.145-1.838-4.211-3.922-8.424-6.027-12.62S-8.529,9.134-10.678,5.015Z"
                    transform="translate(10.678)" fill="#ff8a7a" />
            </g>
            <g id="Group_4883" transform="translate(285.69 90.202)">
                <path id="Path_43315"
                    d="M-1.652-.1C4.721,1.874,10,18.518,10,18.518L-3.877,26.294A130.688,130.688,0,0,1-10.729,11.2C-14.015,2.39-9.372-2.488-1.652-.1"
                    transform="translate(11.798 0.703)" fill="#253138" />
            </g>
            <g id="Group_4884" transform="translate(288.74 143.599)">
                <path id="Path_43316" d="M-1.062,0-7.586,2.5-2.52,9.168S3.113,6.191,2.015,2.942Z"
                    transform="translate(7.586)" fill="#ff8a7a" />
            </g>
            <g id="Group_4885" transform="translate(284.967 146.095)">
                <path id="Path_43317"
                    d="M-.124-1.075,2.046.964a2.421,2.421,0,0,0,3.13.157L7.952-1,2.886-7.676-.2-4.533A2.42,2.42,0,0,0-.124-1.075"
                    transform="translate(0.887 7.676)" fill="#ff8a7a" />
            </g>
            <path id="Path_43318" d="M188.782-307.966h-7.454v-.86h7.454Z"
                transform="translate(-25.386 363.679)" fill="#407aff" />
            <path id="Path_43319" d="M168.788-307.966H152.162v-.86h16.626Z"
                transform="translate(-21.303 363.679)" fill="#407aff" />
            <g id="Group_4886" transform="translate(98.125 57.863)">
                <path id="Path_43320"
                    d="M-20.06-33.941h-98.882a11.676,11.676,0,0,1-11.438-10.7l-12.881-187.093a9.888,9.888,0,0,1,9.965-10.7h98.882a11.676,11.676,0,0,1,11.437,10.7L-10.1-44.642a9.887,9.887,0,0,1-9.964,10.7"
                    transform="translate(143.287 242.436)" fill="#fff" />
            </g>
            <g id="Group_4887" transform="translate(98.126 57.863)">
                <path id="Path_43321"
                    d="M-17.723,0h-98.882a9.887,9.887,0,0,0-9.964,10.7l12.88,187.093a11.676,11.676,0,0,0,11.438,10.7H-3.369a9.888,9.888,0,0,0,9.964-10.7L-6.286,10.7A11.676,11.676,0,0,0-17.723,0m0,.86a10.781,10.781,0,0,1,10.58,9.9L5.738,197.853a9.1,9.1,0,0,1-2.4,6.92,9.056,9.056,0,0,1-6.7,2.861h-98.882a10.781,10.781,0,0,1-10.58-9.9L-125.712,10.642a9.1,9.1,0,0,1,2.4-6.92,9.056,9.056,0,0,1,6.7-2.861Z"
                    transform="translate(126.595)" fill="#98eca8" />
            </g>
            <g id="Group_4888" transform="translate(102.235 57.863)">
                <path id="Path_43322"
                    d="M-20.06-33.941h-98.882a11.676,11.676,0,0,1-11.438-10.7l-12.88-187.093a9.887,9.887,0,0,1,9.964-10.7h98.882a11.676,11.676,0,0,1,11.437,10.7L-10.1-44.642a9.887,9.887,0,0,1-9.964,10.7"
                    transform="translate(143.286 242.436)" fill="#6eb37b" />
            </g>
            <g id="Group_4889" transform="translate(137.883 110.105)">
                <path id="Path_43323"
                    d="M-8.655-5.9H-52.82A4.319,4.319,0,0,1-57.01-9.476L-61.766-37.8a3.665,3.665,0,0,1,3.646-4.355H-8.346A4.3,4.3,0,0,1-4.1-37.8L-4.956-9.476A3.644,3.644,0,0,1-8.655-5.9"
                    transform="translate(61.823 42.16)" fill="#fff" />
            </g>
            <g id="Group_4890" transform="translate(136.594 108.815)">
                <path id="Path_43324"
                    d="M-.812-.42A2.379,2.379,0,0,0-2.664.412a2.445,2.445,0,0,0-.521,2.02L1.571,30.76a3.039,3.039,0,0,0,2.918,2.5H48.653a2.363,2.363,0,0,0,2.409-2.322l.856-28.328A2.935,2.935,0,0,0,51.07.5,2.973,2.973,0,0,0,48.962-.42ZM48.653,35.837H4.489a5.605,5.605,0,0,1-5.463-4.65L-5.73,2.858a5.051,5.051,0,0,1,1.1-4.114A4.984,4.984,0,0,1-.812-3H48.962A5.592,5.592,0,0,1,54.5,2.683l-.856,28.329a4.96,4.96,0,0,1-4.988,4.825"
                    transform="translate(5.803 3)" fill="#fff" />
            </g>
            <g id="Group_4891" transform="translate(193.459 98.422)">
                <path id="Path_43325"
                    d="M-.21-7.432H-.25A1.289,1.289,0,0,1-1.5-8.761L-.2-51.838a1.288,1.288,0,0,1,.708-1.113,1.29,1.29,0,0,1,1.316.091l7.755,5.366A1.29,1.29,0,0,1,9.905-45.7a1.291,1.291,0,0,1-1.795.327l-5.8-4.015L1.079-8.684A1.292,1.292,0,0,1-.21-7.432"
                    transform="translate(1.501 53.089)" fill="#fff" />
            </g>
            <g id="Group_4892" transform="translate(150.089 152.227)">
                <path id="Path_43326"
                    d="M-2.383-1.19A6.736,6.736,0,0,1-9.19,6.12,7.952,7.952,0,0,1-17-1.19,6.736,6.736,0,0,1-10.2-8.5,7.952,7.952,0,0,1-2.383-1.19"
                    transform="translate(17.02 8.5)" fill="#fff" />
            </g>
            <g id="Group_4893" transform="translate(149.526 151.664)">
                <path id="Path_43327"
                    d="M-1.2-.183A6.222,6.222,0,0,0-5.808,1.772,6.252,6.252,0,0,0-7.449,6.526,7.39,7.39,0,0,0-.2,13.311a6.214,6.214,0,0,0,4.6-1.956A6.247,6.247,0,0,0,6.05,6.6,7.39,7.39,0,0,0-1.2-.183M-.2,14.437A8.532,8.532,0,0,1-8.57,6.6a7.363,7.363,0,0,1,1.94-5.6A7.332,7.332,0,0,1-1.2-1.309,8.533,8.533,0,0,1,7.171,6.526a7.362,7.362,0,0,1-1.941,5.6A7.331,7.331,0,0,1-.2,14.437"
                    transform="translate(8.589 1.309)" fill="#fff" />
            </g>
            <g id="Group_4894" transform="translate(174.224 152.227)">
                <path id="Path_43328"
                    d="M-2.383-1.19A6.736,6.736,0,0,1-9.19,6.12,7.952,7.952,0,0,1-17-1.19,6.736,6.736,0,0,1-10.2-8.5,7.952,7.952,0,0,1-2.383-1.19"
                    transform="translate(17.02 8.5)" fill="#fff" />
            </g>
            <g id="Group_4895" transform="translate(173.661 151.664)">
                <path id="Path_43329"
                    d="M-1.2-.183a6.217,6.217,0,0,0-4.6,1.956A6.247,6.247,0,0,0-7.448,6.526,7.39,7.39,0,0,0-.2,13.311a6.216,6.216,0,0,0,4.605-1.956A6.251,6.251,0,0,0,6.05,6.6,7.39,7.39,0,0,0-1.2-.183M-.2,14.437A8.533,8.533,0,0,1-8.57,6.6a7.36,7.36,0,0,1,1.941-5.6A7.328,7.328,0,0,1-1.2-1.309,8.534,8.534,0,0,1,7.172,6.526a7.365,7.365,0,0,1-1.941,5.6A7.334,7.334,0,0,1-.2,14.437"
                    transform="translate(8.589 1.309)" fill="#fff" />
            </g>
            <g id="Group_4896" transform="translate(147.201 81.293)">
                <path id="Path_43330"
                    d="M-5.9-2.946a16.677,16.677,0,0,1-16.853,18.1A19.688,19.688,0,0,1-42.1-2.946a16.677,16.677,0,0,1,16.853-18.1A19.688,19.688,0,0,1-5.9-2.946"
                    transform="translate(42.14 21.045)" fill="#98eca8" />
            </g>
            <g id="Group_4897" transform="translate(150.121 84.206)">
                <path id="Path_43331"
                    d="M-2.315-.224a12.75,12.75,0,0,0-9.444,4.015,12.815,12.815,0,0,0-3.369,9.746A15.09,15.09,0,0,0-.319,27.393a12.749,12.749,0,0,0,9.444-4.015,12.812,12.812,0,0,0,3.369-9.746A15.09,15.09,0,0,0-2.315-.224m2,28.995A16.489,16.489,0,0,1-16.5,13.631,14.179,14.179,0,0,1-12.766,2.85,14.117,14.117,0,0,1-2.315-1.6,16.489,16.489,0,0,1,13.867,13.537a14.179,14.179,0,0,1-3.736,10.781A14.117,14.117,0,0,1-.319,28.771"
                    transform="translate(16.539 1.602)" fill="#fff" />
            </g>
            <g id="Group_4898" transform="translate(155.233 92.911)">
                <path id="Path_43332"
                    d="M0-.94S6.336,2.482,9.3,6.89a35.316,35.316,0,0,1,10.638-13.6C11.563-3.166,8.992,2.478,8.992,2.478A18.073,18.073,0,0,0,0-.94"
                    transform="translate(0 6.711)" fill="#fff" />
            </g>
            <g id="Group_4899" transform="translate(168.614 247.755)">
                <path id="Path_43333"
                    d="M-1-.07A5.668,5.668,0,0,0-5.2,1.715a5.693,5.693,0,0,0-1.5,4.33A6.692,6.692,0,0,0-.126,12.19a5.667,5.667,0,0,0,4.2-1.785,5.691,5.691,0,0,0,1.5-4.329A6.691,6.691,0,0,0-1-.07m.874,12.69a7.129,7.129,0,0,1-7-6.545A6.125,6.125,0,0,1-5.511,1.421,6.1,6.1,0,0,1-1-.5,7.128,7.128,0,0,1,6,6.045,6.119,6.119,0,0,1,4.385,10.7,6.092,6.092,0,0,1-.126,12.62"
                    transform="translate(7.138 0.5)" fill="#fff" />
            </g>
            <g id="Group_4900" transform="translate(154.867 184.793)">
                <path id="Path_43334"
                    d="M-4.542-1.27l-8.823,2.307L-32.441,18.161l19,15.828,16.108-14.5a11.836,11.836,0,0,0,3.832-8.6h0l6.893-3.722A5.176,5.176,0,0,0,14.6-.814L9.389-7A5.38,5.38,0,0,0,1.4-7.544Z"
                    transform="translate(32.441 9.074)" fill="#98eca8" />
            </g>
            <g id="Group_4901" transform="translate(154.312 184.429)">
                <path id="Path_43335"
                    d="M-.181-4.491,18.253,10.867,34.127-3.427a11.412,11.412,0,0,0,3.713-8.333l0-.212,7.08-3.824A4.437,4.437,0,0,0,47.2-18.93a5.164,5.164,0,0,0-1.177-4.291l-5.206-6.19a5.371,5.371,0,0,0-3.933-1.938,4.545,4.545,0,0,0-3.512,1.413l-6.016,6.35-8.839,2.311ZM18.272,11.828-1.29-4.471,18.249-21.956l8.723-2.281,5.873-6.2a5.275,5.275,0,0,1,4.061-1.64,6.1,6.1,0,0,1,4.468,2.2l5.206,6.19a5.885,5.885,0,0,1,1.334,4.893,5.218,5.218,0,0,1-2.646,3.638L38.56-11.534a12.113,12.113,0,0,1-3.946,8.646Z"
                    transform="translate(1.29 32.079)" fill="#fff" />
            </g>
            <g id="Group_4902" transform="translate(140.778 184.793)">
                <path id="Path_43336"
                    d="M-8.41-4.577l-1.109-.88L-27.353-19.7a21.1,21.1,0,0,0-7.991-3.984l-4.75-1.2L-46.9-31.161a5.264,5.264,0,0,0-7.912.541l-4.353,6.189a5.527,5.527,0,0,0,2.3,7.978l7.405,3.722h0a13.88,13.88,0,0,0,5.016,8.6l18.1,14.5.009-.009,1.441,1.159a2.906,2.906,0,0,0,4.2-.442,3.122,3.122,0,0,0-.822-4.173l1.788,1.418a3.061,3.061,0,0,0,3.769.176,2.957,2.957,0,0,0-.189-4.629l1,.793a3.062,3.062,0,0,0,3.769.177A2.957,2.957,0,0,0-11.564.214l-.22-.175A2.906,2.906,0,0,0-7.587-.4,3.122,3.122,0,0,0-8.41-4.577"
                    transform="translate(60.069 32.691)" fill="#fff" />
            </g>
            <g id="Group_4903" transform="translate(162.581 192.596)">
                <path id="Path_43337"
                    d="M-3.5-1.372a13.84,13.84,0,0,1-6.99,2.6s-3.622.03-5.538,1.963c-2.553,2.576-7.71,4.085-8.94,1.421-.621-1.345,4.034-4.37,6.471-9.248C-16.79-8.058-11.308-9.268-4.843-9.8"
                    transform="translate(25.028 9.801)" fill="#98eca8" />
            </g>
            <g id="Group_4904" transform="translate(162.287 192.305)">
                <path id="Path_43338"
                    d="M-.488-2.669a4.722,4.722,0,0,1-.818-.067,2.686,2.686,0,0,1-2.1-1.5c-.386-.836.587-1.908,2.059-3.533A26.9,26.9,0,0,0,3.072-13.74c1.931-3.865,8.44-4.877,13.9-5.327l.048.582c-5.3.438-11.619,1.4-13.419,5.007A27.435,27.435,0,0,1-.91-7.379c-1.173,1.293-2.185,2.41-1.962,2.895A2.1,2.1,0,0,0-1.2-3.313c1.944.344,5-.857,6.8-2.676,1.976-2,5.589-2.048,5.742-2.049a13.667,13.667,0,0,0,6.806-2.535l.372.451a14.024,14.024,0,0,1-7.148,2.668c-.06,0-3.551.054-5.357,1.876a10.062,10.062,0,0,1-6.5,2.909"
                    transform="translate(3.488 19.067)" fill="#fff" />
            </g>
            <g id="Group_4905" transform="translate(152.873 209.746)">
                <path id="Path_43339"
                    d="M-.817-1.266,2.056-3.823a2.958,2.958,0,0,0-.2-4.435,2.965,2.965,0,0,0-3.909-.092L-4.927-5.792a2.958,2.958,0,0,0,.2,4.435,2.966,2.966,0,0,0,3.909.091"
                    transform="translate(5.833 9.042)" fill="#98eca8" />
            </g>
            <g id="Group_4906" transform="translate(152.51 209.385)">
                <path id="Path_43340"
                    d="M-.976-.118a2.4,2.4,0,0,0-1.61.6L-5.457,3.037a2.357,2.357,0,0,0-.785,1.805,2.792,2.792,0,0,0,.983,2.084,2.607,2.607,0,0,0,3.429.1L1.042,4.463a2.358,2.358,0,0,0,.785-1.805A2.793,2.793,0,0,0,.844.575,2.782,2.782,0,0,0-.976-.118M-3.439,8.344a3.513,3.513,0,0,1-2.3-.869A3.524,3.524,0,0,1-6.968,4.847,3.073,3.073,0,0,1-5.939,2.495L-3.068-.063A3.334,3.334,0,0,1,1.32.025,3.52,3.52,0,0,1,2.553,2.654,3.075,3.075,0,0,1,1.525,5.006L-1.347,7.564a3.127,3.127,0,0,1-2.092.78"
                    transform="translate(6.968 0.844)" fill="#fff" />
            </g>
            <g id="Group_4907" transform="translate(156.786 213.913)">
                <path id="Path_43341"
                    d="M-.817-1.353,2.655-4.444a2.94,2.94,0,0,0-.037-4.281,2.981,2.981,0,0,0-4.073-.245L-4.927-5.879a2.958,2.958,0,0,0,.2,4.435,2.966,2.966,0,0,0,3.909.091"
                    transform="translate(5.833 9.662)" fill="#98eca8" />
            </g>
            <g id="Group_4908" transform="translate(156.423 213.552)">
                <path id="Path_43342"
                    d="M-1.073-.118a2.4,2.4,0,0,0-1.609.6L-6.153,3.573a2.354,2.354,0,0,0-.785,1.805,2.793,2.793,0,0,0,.982,2.084,2.609,2.609,0,0,0,3.43.1L.945,4.466a2.357,2.357,0,0,0,.783-1.717A2.787,2.787,0,0,0,.895.713,2.8,2.8,0,0,0-1.073-.118m-3.063,9a3.509,3.509,0,0,1-2.294-.869A3.525,3.525,0,0,1-7.665,5.383,3.077,3.077,0,0,1-6.636,3.03L-3.165-.061A3.348,3.348,0,0,1,1.406.2,3.511,3.511,0,0,1,2.455,2.769,3.077,3.077,0,0,1,1.428,5.008L-2.043,8.1a3.135,3.135,0,0,1-2.093.78"
                    transform="translate(7.665 0.843)" fill="#fff" />
            </g>
            <g id="Group_4909" transform="translate(161.87 218.107)">
                <path id="Path_43343"
                    d="M-.817-1.266,2.056-3.823a2.958,2.958,0,0,0-.2-4.435,2.965,2.965,0,0,0-3.909-.092L-4.927-5.792a2.957,2.957,0,0,0,.2,4.434,2.965,2.965,0,0,0,3.909.092"
                    transform="translate(5.833 9.042)" fill="#98eca8" />
            </g>
            <g id="Group_4910" transform="translate(161.507 217.746)">
                <path id="Path_43344"
                    d="M-.976-.118a2.4,2.4,0,0,0-1.61.6L-5.457,3.037a2.356,2.356,0,0,0-.785,1.805,2.8,2.8,0,0,0,.983,2.084,2.607,2.607,0,0,0,3.429.1L1.042,4.464a2.356,2.356,0,0,0,.785-1.805A2.8,2.8,0,0,0,.844.575,2.786,2.786,0,0,0-.976-.118M-3.439,8.344a3.513,3.513,0,0,1-2.3-.869A3.522,3.522,0,0,1-6.968,4.848,3.072,3.072,0,0,1-5.94,2.495L-3.068-.063A3.335,3.335,0,0,1,1.32.026,3.522,3.522,0,0,1,2.553,2.654,3.075,3.075,0,0,1,1.525,5.007L-1.347,7.564a3.127,3.127,0,0,1-2.092.78"
                    transform="translate(6.968 0.843)" fill="#fff" />
            </g>
            <g id="Group_4911" transform="translate(167.555 221.14)">
                <path id="Path_43345"
                    d="M-.817-1.281,2.155-3.969a2.957,2.957,0,0,0-.338-4.5,2.936,2.936,0,0,0-3.766.01L-4.927-5.807a2.958,2.958,0,0,0,.2,4.435,2.966,2.966,0,0,0,3.909.091"
                    transform="translate(5.833 9.147)" fill="#98eca8" />
            </g>
            <g id="Group_4912" transform="translate(167.192 220.778)">
                <path id="Path_43346"
                    d="M-.991-.118a2.39,2.39,0,0,0-1.6.6L-5.57,3.13a2.358,2.358,0,0,0-.785,1.805,2.8,2.8,0,0,0,.983,2.084,2.606,2.606,0,0,0,3.428.1L1.027,4.428a2.346,2.346,0,0,0,.766-1.855A2.79,2.79,0,0,0,.708.482a2.755,2.755,0,0,0-1.7-.6M-3.552,8.436a3.516,3.516,0,0,1-2.3-.868A3.522,3.522,0,0,1-7.081,4.94,3.076,3.076,0,0,1-6.053,2.588L-3.075-.065A3.3,3.3,0,0,1,1.157-.089,3.508,3.508,0,0,1,2.518,2.547a3.1,3.1,0,0,1-1,2.42L-1.46,7.656a3.127,3.127,0,0,1-2.092.78"
                    transform="translate(7.081 0.843)" fill="#fff" />
            </g>
            <g id="Group_4917" transform="translate(120.739 46.902)" opacity="0.2">
                <g id="Group_4916">
                    <g id="Group_4915" clip-path="url(#clip-path-22)">
                        <g id="Group_4913" transform="translate(0.216 0.215)">
                            <path id="Path_43347"
                                d="M-2.79-28.292a6.035,6.035,0,0,1-5.923-5.54l-11.2-162.715a5.112,5.112,0,0,1,5.16-5.541H84.127a6.034,6.034,0,0,1,5.922,5.541l11.2,162.715a5.11,5.11,0,0,1-5.159,5.54Z"
                                transform="translate(19.928 202.089)" fill="#98eca8" />
                        </g>
                        <g id="Group_4914" transform="translate(0.001 0)">
                            <path id="Path_43348"
                                d="M-.877-.07A4.919,4.919,0,0,0-4.52,1.482a4.939,4.939,0,0,0-1.3,3.759L5.38,167.957a5.816,5.816,0,0,0,5.708,5.341h98.883a4.9,4.9,0,0,0,4.944-5.311L103.713,5.271A5.816,5.816,0,0,0,98.006-.07Zm110.848,173.8H11.088a6.252,6.252,0,0,1-6.137-5.74L-6.251,5.271A5.364,5.364,0,0,1-4.835,1.189,5.343,5.343,0,0,1-.877-.5H98.006a6.254,6.254,0,0,1,6.136,5.741l11.2,162.715a5.325,5.325,0,0,1-5.373,5.771"
                                transform="translate(6.265 0.5)" fill="#98eca8" />
                        </g>
                    </g>
                </g>
            </g>
        </g>
    </g>
</svg>
