<svg xmlns="http://www.w3.org/2000/svg" width="379.262" height="282.632" viewBox="0 0 379.262 282.632">
  <g id="Group_44369"  transform="translate(0 -52.925)">
    <g id="Background_Complete"  transform="translate(0 52.925)">
      <g id="Group_44328" >
        <g id="Group_44310" >
          <g id="Group_44309" >
            <g id="Group_44308" >
              <rect id="Rectangle_23956"  width="379.262" height="0.19" transform="translate(0 248.375)" fill="#e0e0e0"/>
              <rect id="Rectangle_23957"  width="26.096" height="0.19" transform="translate(261.638 255.37)" fill="#e0e0e0"/>
              <rect id="Rectangle_23958"  width="14.684" height="0.19" transform="translate(303.74 254.831)" fill="#e0e0e0"/>
              <rect id="Rectangle_23959"  width="19.481" height="0.19" transform="translate(168.138 255.276)" fill="#e0e0e0"/>
              <rect id="Rectangle_23960"  width="13.305" height="0.19" transform="translate(188.378 257.972)" fill="#e0e0e0"/>
              <rect id="Rectangle_23961"  width="40.191" height="0.19" transform="translate(69.542 253.362)" fill="#e0e0e0"/>
              <path id="Path_43602"  d="M189.007,269.5H42.537a4.335,4.335,0,0,1-4.33-4.33V59.282a4.334,4.334,0,0,1,4.33-4.329h146.47a4.334,4.334,0,0,1,4.329,4.329V265.17A4.335,4.335,0,0,1,189.007,269.5ZM42.537,55.143a4.144,4.144,0,0,0-4.14,4.139V265.17a4.144,4.144,0,0,0,4.14,4.14h146.47a4.145,4.145,0,0,0,4.139-4.14V59.282a4.144,4.144,0,0,0-4.139-4.139Z" transform="translate(-9.226 -54.953)" fill="#e0e0e0"/>
              <path id="Path_43603"  d="M405.3,269.5H258.834a4.334,4.334,0,0,1-4.329-4.33V59.282a4.334,4.334,0,0,1,4.329-4.329H405.3a4.334,4.334,0,0,1,4.33,4.329V265.17A4.335,4.335,0,0,1,405.3,269.5ZM258.834,55.143a4.144,4.144,0,0,0-4.139,4.139V265.17a4.144,4.144,0,0,0,4.139,4.14H405.3a4.145,4.145,0,0,0,4.141-4.14V59.282a4.145,4.145,0,0,0-4.141-4.139Z" transform="translate(-61.457 -54.953)" fill="#e0e0e0"/>
            </g>
          </g>
        </g>
        <g id="Group_44327"  transform="translate(44.416 12.184)">
          <g id="Group_44313"  transform="translate(170.499 6.258)">
            <g id="Group_44312" >
              <g id="Group_44311" >
                <rect id="Rectangle_23962"  width="114.308" height="98.274" fill="#e0e0e0"/>
                <rect id="Rectangle_23963"  width="114.308" height="98.274" transform="translate(2.54)" fill="#f0f0f0"/>
                <rect id="Rectangle_23964"  width="89.05" height="105.189" transform="translate(112.289 4.612) rotate(90)" fill="#fafafa"/>
                <rect id="Rectangle_23965"  width="89.05" height="6.876" transform="translate(78.67 4.612) rotate(90)" fill="#e0e0e0"/>
                <rect id="Rectangle_23966"  width="89.05" height="6.876" transform="translate(42.514 4.612) rotate(90)" fill="#e0e0e0"/>
                <rect id="Rectangle_23967"  width="95.405" height="6.876" transform="translate(81.088 1.183) rotate(90)" fill="#f0f0f0"/>
                <rect id="Rectangle_23968"  width="95.405" height="6.876" transform="translate(44.931 1.183) rotate(90)" fill="#f0f0f0"/>
                <rect id="Rectangle_23969"  width="89.05" height="1.92" transform="translate(112.289 4.612) rotate(90)" fill="#e0e0e0"/>
              </g>
            </g>
          </g>
          <g id="Group_44315"  transform="translate(70.975 40.807)">
            <path id="Path_43604"  d="M175.8,167.879s-13.91-23.978,5.388-43.065c0,0,5.037,3.282,4.959,7.7s-5.394,5.53-4.251,9.213,6.161,7.3,2.867,10.341.531,5.755.308,9.485S175.8,167.879,175.8,167.879Z" transform="translate(-156.672 -124.814)" fill="#e0e0e0"/>
            <path id="Path_43605"  d="M173.438,174.287s5.639-27.141-18.693-39.169c0,0-3.744,4.7-2.279,8.867s6.862,3.547,6.94,7.4-3.547,8.867.539,10.717,1.311,5.629,2.7,9.1S173.438,174.287,173.438,174.287Z" transform="translate(-152.126 -127.302)" fill="#e6e6e6"/>
            <g id="Group_44314"  transform="translate(8.925 40.094)">
              <path id="Path_43606"  d="M163.892,177.672s.244,23.426,9.607,23.426,9.607-23.426,9.607-23.426Z" transform="translate(-163.892 -177.672)" fill="#f0f0f0"/>
            </g>
          </g>
          <g id="Group_44316"  transform="translate(23.617 95.513)">
            <path id="Path_43607"  d="M89.691,196.936s.522,8.814,20.528,8.814,20.528-8.814,20.528-8.814Z" transform="translate(-89.691 -196.936)" fill="#e6e6e6"/>
          </g>
          <g id="Group_44321"  transform="translate(161.099 137.871)">
            <rect id="Rectangle_23970"  width="15.321" height="22.228" rx="3.136" transform="translate(60.454 10.788)" fill="#f0f0f0"/>
            <rect id="Rectangle_23971"  width="10.31" height="14.958" rx="2.11" transform="translate(92.688 18.058)" fill="#e6e6e6"/>
            <rect id="Rectangle_23972"  width="10.31" height="1.686" rx="0.708" transform="translate(92.688 16.604)" fill="#f0f0f0"/>
            <path id="Path_43608"  d="M318.423,280s.378,12.367,14.861,12.367S348.144,280,348.144,280Z" transform="translate(-282.407 -259.351)" fill="#e6e6e6"/>
            <g id="Group_44318"  transform="translate(0)">
              <g id="Group_44317" >
                <rect id="Rectangle_23973"  width="21.913" height="4.32" transform="translate(21.913 4.32) rotate(180)" fill="#e0e0e0"/>
                <rect id="Rectangle_23974"  width="108.947" height="4.32" transform="translate(21.913)" fill="#f0f0f0"/>
              </g>
            </g>
            <g id="Group_44320"  transform="translate(0 33.016)">
              <g id="Group_44319" >
                <rect id="Rectangle_23975"  width="21.913" height="4.32" transform="translate(21.913 4.32) rotate(180)" fill="#e0e0e0"/>
                <rect id="Rectangle_23976"  width="108.947" height="4.32" transform="translate(21.913)" fill="#f0f0f0"/>
              </g>
            </g>
            <rect id="Rectangle_23977"  width="4.045" height="94" transform="translate(3.856 4.32)" fill="#e0e0e0"/>
            <rect id="Rectangle_23978"  width="4.045" height="94" transform="translate(21.913 4.32)" fill="#f0f0f0"/>
            <rect id="Rectangle_23979"  width="4.046" height="94" transform="translate(112.803 4.32)" fill="#e0e0e0"/>
            <rect id="Rectangle_23980"  width="4.046" height="94" transform="translate(126.814 4.32)" fill="#f0f0f0"/>
          </g>
          <g id="Group_44323"  transform="translate(0 104.327)">
            <g id="Group_44322"  transform="translate(2.896 5.499)">
              <rect id="Rectangle_23981"  width="20.721" height="120.67" fill="#e6e6e6"/>
              <rect id="Rectangle_23982"  width="102.187" height="5.694" transform="translate(3.979 120.67)" fill="#e6e6e6"/>
              <rect id="Rectangle_23983"  width="89.424" height="120.67" transform="translate(110.145 120.67) rotate(180)" fill="#f0f0f0"/>
              <rect id="Rectangle_23984"  width="73.13" height="29.473" transform="translate(101.998 75.072) rotate(180)" fill="#e6e6e6"/>
              <rect id="Rectangle_23985"  width="73.13" height="29.473" transform="translate(101.998 109.92) rotate(180)" fill="#e6e6e6"/>
              <path id="Path_43609"  d="M153.589,278.893H137.17a2.027,2.027,0,0,1-2.021-2.021h0a2.027,2.027,0,0,1,2.021-2.021h16.42a2.027,2.027,0,0,1,2.021,2.021h0A2.027,2.027,0,0,1,153.589,278.893Z" transform="translate(-79.947 -230.064)" fill="#f0f0f0"/>
              <rect id="Rectangle_23986"  width="73.13" height="29.473" transform="translate(101.998 40.223) rotate(180)" fill="#e6e6e6"/>
              <path id="Path_43610"  d="M153.589,232.951H137.17a2.027,2.027,0,0,1-2.021-2.021h0a2.027,2.027,0,0,1,2.021-2.021h16.42a2.027,2.027,0,0,1,2.021,2.021h0A2.027,2.027,0,0,1,153.589,232.951Z" transform="translate(-79.947 -218.97)" fill="#f0f0f0"/>
              <path id="Path_43611"  d="M153.589,324.834H137.17a2.026,2.026,0,0,1-2.021-2.021h0a2.027,2.027,0,0,1,2.021-2.021h16.42a2.027,2.027,0,0,1,2.021,2.021h0A2.026,2.026,0,0,1,153.589,324.834Z" transform="translate(-79.947 -241.158)" fill="#f0f0f0"/>
            </g>
            <rect id="Rectangle_23987"  width="92.185" height="5.499" transform="translate(23.617 0)" fill="#e6e6e6"/>
            <rect id="Rectangle_23988"  width="23.617" height="5.499" transform="translate(23.617 5.499) rotate(180)" fill="#e0e0e0"/>
          </g>
          <g id="Group_44324"  transform="translate(13.183 10.87)">
            <rect id="Rectangle_23989"  width="33.528" height="36.817" fill="#e6e6e6"/>
            <rect id="Rectangle_23990"  width="34.632" height="36.817" transform="translate(2.527)" fill="#f0f0f0"/>
            <rect id="Rectangle_23991"  width="31.014" height="28.83" transform="translate(34.258 2.901) rotate(90)" fill="#fafafa"/>
            <rect id="Rectangle_23992"  width="15.979" height="14.854" transform="translate(27.271 10.419) rotate(90)" fill="#f0f0f0"/>
          </g>
          <g id="Group_44326"  transform="translate(56.636)">
            <g id="Group_44325" >
              <rect id="Rectangle_23993"  width="25.428" height="27.311" fill="#e6e6e6"/>
              <rect id="Rectangle_23994"  width="25.691" height="27.311" transform="translate(2.431)" fill="#f0f0f0"/>
              <rect id="Rectangle_23995"  width="23.007" height="21.386" transform="translate(25.97 2.152) rotate(90)" fill="#fafafa"/>
              <path id="Path_43612"  d="M151.5,81.352l-5.849,10.131h11.7Z" transform="translate(-136.223 -73.512)" fill="#f0f0f0"/>
            </g>
          </g>
        </g>
      </g>
    </g>
    <g id="Shadow" transform="translate(42.562 318.379)">
      <ellipse id="Ellipse_279"  cx="147.069" cy="8.589" rx="147.069" ry="8.589" fill="#f5f5f5"/>
    </g>
    <g id="Speech_Bubbles"  transform="translate(81.893 46.556)">
      <g id="Group_44347" >
        <g id="Group_44332"  transform="translate(155.018 75.293)">
          <rect id="Rectangle_23996"  width="88.626" height="34.454" rx="9.368" transform="translate(0)"/>
          <g id="Group_44331"  transform="translate(7.389 5.81)">
            <g id="Group_44329" >
              <rect id="Rectangle_23997"  width="60.61" height="3.854" rx="1.644" fill="#fff"/>
              <rect id="Rectangle_23998"  width="42.202" height="3.854" rx="1.644" transform="translate(0 9.286)" fill="#fff"/>
              <rect id="Rectangle_23999"  width="31.552" height="3.854" rx="1.644" transform="translate(0 18.573)" fill="#fff"/>
              <rect id="Rectangle_24000"  width="31.552" height="3.854" rx="1.644" transform="translate(36.023 18.573)" fill="#fff"/>
            </g>
            <g id="Group_44330"  opacity="0.5">
              <rect id="Rectangle_24003"  width="31.552" height="3.854" rx="1.644" transform="translate(0 18.573)" fill="#fff"/>
            </g>
          </g>
        </g>
        <g id="Group_44336"  transform="translate(82.045 67.262)">
          <rect id="Rectangle_24005"  width="105.305" height="50.516" rx="13.735"/>
          <g id="Group_44335"  transform="translate(10.834 8.519)">
            <g id="Group_44333" >
              <rect id="Rectangle_24006"  width="88.865" height="5.65" rx="2.41" fill="#fff"/>
              <rect id="Rectangle_24007"  width="61.875" height="5.65" rx="2.41" transform="translate(0 13.615)" fill="#fff"/>
              <rect id="Rectangle_24008"  width="46.261" height="5.65" rx="2.41" transform="translate(0 27.231)" fill="#fff"/>
              <rect id="Rectangle_24009"  width="39.159" height="5.65" rx="2.41" transform="translate(52.816 27.231)" fill="#fff"/>
            </g>
          </g>
        </g>
        <g id="Group_44338"  transform="translate(78.866 126.935)">
          <g id="Group_44337" >
            <rect id="Rectangle_24014"  width="50.422" height="70.676" rx="6.42" fill="#407bff"/>
            <rect id="Rectangle_24015"  width="50.422" height="70.676" rx="6.42"/>
          </g>
          <rect id="Rectangle_24016"  width="38.748" height="3.131" rx="1.184" transform="translate(5.837 7.37)" fill="#fafafa"/>
          <rect id="Rectangle_24017"  width="26.979" height="3.131" rx="1.184" transform="translate(5.837 14.913)" fill="#fafafa"/>
          <rect id="Rectangle_24018"  width="38.748" height="3.131" rx="1.184" transform="translate(5.837 22.457)" fill="#fafafa"/>
          <rect id="Rectangle_24019"  width="15.524" height="3.131" rx="1.184" transform="translate(5.837 30.001)" fill="#fafafa"/>
          <rect id="Rectangle_24020"  width="15.524" height="3.131" rx="1.184" transform="translate(25.054 30.001)" fill="#fafafa"/>
          <rect id="Rectangle_24021"  width="38.748" height="3.131" rx="1.184" transform="translate(5.837 37.544)" fill="#fafafa"/>
          <rect id="Rectangle_24022"  width="38.748" height="3.131" rx="1.184" transform="translate(5.837 45.088)" fill="#fafafa"/>
          <rect id="Rectangle_24023"  width="32.195" height="3.131" rx="1.184" transform="translate(5.837 52.632)" fill="#fafafa"/>
          <rect id="Rectangle_24024"  width="15.973" height="3.131" rx="1.184" transform="translate(5.837 60.175)" fill="#fafafa"/>
        </g>
        <g id="Group_44340"  transform="translate(79.001 126.505)">
          <g id="Group_44339" >
            <path id="Path_43613"  d="M268.535,213.333H212.114l24.919,19.85,38.255,14.391V220.087A6.774,6.774,0,0,0,268.535,213.333Z" transform="translate(-212.114 -213.333)" fill="#407bff"/>
            <path id="Path_43614"  d="M268.535,213.333H212.114l24.919,19.85,38.255,14.391V220.087A6.774,6.774,0,0,0,268.535,213.333Z" transform="translate(-212.114 -213.333)"/>
          </g>
          <rect id="Rectangle_24025"  width="43.532" height="4.342" rx="1.479" transform="translate(11.548 10.221)" fill="#fafafa"/>
        </g>
        <g id="Group_44346" >
          <rect id="Rectangle_24026"  width="50.696" height="79.929" rx="7.26" transform="translate(233.004 135.046) rotate(90)"/>
          <g id="Group_44341"  transform="translate(165.658 122.462)">
            <rect id="Rectangle_24027"  width="50.696" height="79.929" rx="7.26" transform="translate(79.929 0) rotate(90)"/>
            <rect id="Rectangle_24028"  width="50.696" height="79.929" rx="7.26" transform="translate(79.929 0) rotate(90)" opacity="0.5"/>
          </g>
          <g id="Group_44342"  transform="translate(211.172 127.183)">
            <rect id="Rectangle_24029"  width="29.331" height="27.423" rx="3.235" transform="translate(27.423 0) rotate(90)" fill="#407bff"/>
            <rect id="Rectangle_24030"  width="29.331" height="27.423" rx="3.235" transform="translate(27.423 0) rotate(90)"/>
          </g>
          <g id="Group_44343"  transform="translate(185.866 145.272)">
            <path id="Rectangle_24031"  d="M2.48,0H20a2.48,2.48,0,0,1,2.48,2.48V18.541A2.479,2.479,0,0,1,20,21.02H2.48A2.48,2.48,0,0,1,0,18.541V2.48A2.48,2.48,0,0,1,2.48,0Z" transform="translate(21.02 0) rotate(90)" fill="#407bff"/>
            <path id="Rectangle_24032"  d="M2.48,0H20a2.48,2.48,0,0,1,2.48,2.48V18.541A2.479,2.479,0,0,1,20,21.02H2.48A2.48,2.48,0,0,1,0,18.541V2.48A2.48,2.48,0,0,1,2.48,0Z" transform="translate(21.02 0) rotate(90)"/>
          </g>
          <g id="Group_44344"  transform="translate(0 31.481)">
            <rect id="Rectangle_24033"  width="21.307" height="196.376" rx="7.378" transform="translate(196.376 0) rotate(90)" fill="#407bff"/>
            <rect id="Rectangle_24034"  width="21.307" height="196.376" rx="7.378" transform="translate(196.376 0) rotate(90)"/>
          </g>
          <g id="Group_44345"  transform="translate(108.054 49.009)">
            <rect id="Rectangle_24035"  width="7.336" height="53.287" transform="translate(53.287 0) rotate(90)" fill="#fff"/>
          </g>
        </g>
      </g>
    </g>
    <g id="Character" transform="translate(65.946 83.631)">
      <g id="Group_44358" >
        <path id="Path_43615"  d="M125.681,193.08c-.664,1.487-1.4,3.149-2.05,4.754-.652,1.623-1.307,3.246-1.891,4.883a68.724,68.724,0,0,0-2.875,9.809l-.221,1.211-.077.46c-.024.124-.026.3-.043.443a16.379,16.379,0,0,0,.046,2.217c.143,1.6.4,3.315.722,5.031.641,3.435,1.453,6.98,2.257,10.463l-3.891,1.538a70.353,70.353,0,0,1-4.623-10.314,42.869,42.869,0,0,1-1.6-5.66,20.183,20.183,0,0,1-.428-3.231c0-.309-.022-.595-.008-.925s.027-.686.054-.9l.149-1.5a49.652,49.652,0,0,1,1.041-5.8c.427-1.9.974-3.737,1.554-5.558s1.233-3.608,1.952-5.367c.356-.881.727-1.754,1.11-2.626.383-.887.773-1.707,1.242-2.642Z" transform="translate(-92.748 -118.114)" fill="#e4897b"/>
        <path id="Path_43616"  d="M123.323,244.69l2.96,2.888-6.454,3s-1.567-2.735-.485-5.208Z" transform="translate(-94.673 -131.475)" fill="#e4897b"/>
        <path id="Path_43617"  d="M128.942,252.8l-5.45,2.232L120.1,251.5l6.454-3Z" transform="translate(-94.949 -132.395)" fill="#e4897b"/>
        <g id="Group_44350"  transform="translate(14.938)">
          <path id="Path_43618"  d="M261.946,215.4a54.623,54.623,0,1,1,60.356-48.22A54.623,54.623,0,0,1,261.946,215.4Z" transform="translate(-132.411 -98.101)" fill="#fafafa" opacity="0.4"/>
          <path id="Path_43619"  d="M301.772,119l-83.057,66.366q-.534-1.125-1.016-2.274a53.884,53.884,0,0,1-3.946-15.534v-.005l71.738-57.322A54.2,54.2,0,0,1,301.772,119Z" transform="translate(-132.501 -99.006)" fill="#fafafa" opacity="0.4"/>
          <path id="Path_43620"  d="M324.215,153.155l-78.088,62.389A54.552,54.552,0,0,1,227.338,199.4l85.27-68.134A54.643,54.643,0,0,1,324.215,153.155Z" transform="translate(-135.781 -104.086)" fill="#fafafa" opacity="0.4"/>
          <g id="Group_44348"  transform="translate(73.429 1.644)">
            <path id="Path_43621"  d="M204.157,138.13l-.718-.244a66.557,66.557,0,0,1,4.686-10.66l.664.365A65.912,65.912,0,0,0,204.157,138.13Zm9.209-17.706-.611-.45a65.787,65.787,0,0,1,23.8-19.877l.335.68A65.031,65.031,0,0,0,213.367,120.424ZM296.5,101.816a64.545,64.545,0,0,0-7.664-3.507l.27-.708a65.28,65.28,0,0,1,7.754,3.548Z" transform="translate(-203.439 -97.601)" fill="#fff"/>
            <path id="Path_43622"  d="M204.157,138.13l-.718-.244a66.557,66.557,0,0,1,4.686-10.66l.664.365A65.912,65.912,0,0,0,204.157,138.13Zm9.209-17.706-.611-.45a65.787,65.787,0,0,1,23.8-19.877l.335.68A65.031,65.031,0,0,0,213.367,120.424ZM296.5,101.816a64.545,64.545,0,0,0-7.664-3.507l.27-.708a65.28,65.28,0,0,1,7.754,3.548Z" transform="translate(-203.439 -97.601)" opacity="0.3"/>
          </g>
          <g id="Group_44349" >
            <path id="Path_43623"  d="M298.721,130.557a62.989,62.989,0,0,0-115.791,49.1c-5.068,1.777-10.072,3.685-15.048,5.646q-10.762,4.264-21.33,8.921c-7.037,3.121-14.046,6.3-20.985,9.62-3.485,1.627-6.923,3.35-10.387,5.021a14.979,14.979,0,0,0-4.808,3.294,14.218,14.218,0,0,0-1.952,2.563,13.1,13.1,0,0,0-1.484,3.508,9.646,9.646,0,0,0,5.559,11.263,13.111,13.111,0,0,0,3.688.955,14.173,14.173,0,0,0,3.221.009,14.966,14.966,0,0,0,5.539-1.813c3.433-1.733,6.892-3.414,10.3-5.192,6.856-3.487,13.641-7.12,20.4-10.807q10.114-5.575,20.053-11.508c4.584-2.759,9.141-5.571,13.634-8.513a62.988,62.988,0,0,0,109.388-62.065Zm-34.482,72.46a49.709,49.709,0,1,1,22.566-66.578A49.707,49.707,0,0,1,264.239,203.017Z" transform="translate(-106.633 -95.433)" fill="#407bff"/>
            <path id="Path_43624"  d="M298.721,130.557a62.989,62.989,0,0,0-115.791,49.1c-5.068,1.777-10.072,3.685-15.048,5.646q-10.762,4.264-21.33,8.921c-7.037,3.121-14.046,6.3-20.985,9.62-3.485,1.627-6.923,3.35-10.387,5.021a14.979,14.979,0,0,0-4.808,3.294,14.218,14.218,0,0,0-1.952,2.563,13.1,13.1,0,0,0-1.484,3.508,9.646,9.646,0,0,0,5.559,11.263,13.111,13.111,0,0,0,3.688.955,14.173,14.173,0,0,0,3.221.009,14.966,14.966,0,0,0,5.539-1.813c3.433-1.733,6.892-3.414,10.3-5.192,6.856-3.487,13.641-7.12,20.4-10.807q10.114-5.575,20.053-11.508c4.584-2.759,9.141-5.571,13.634-8.513a62.988,62.988,0,0,0,109.388-62.065Zm-34.482,72.46a49.709,49.709,0,1,1,22.566-66.578A49.707,49.707,0,0,1,264.239,203.017Z" transform="translate(-106.633 -95.433)"/>
          </g>
        </g>
        <path id="Path_43625"  d="M158.022,158.291c0,.449.237.814.531.814s.532-.363.532-.813-.237-.814-.531-.814S158.022,157.841,158.022,158.291Z" transform="translate(-104.105 -110.416)" fill="#263238"/>
        <path id="Path_43626"  d="M158.279,159.623a16.084,16.084,0,0,0,2.144,3.846,2.589,2.589,0,0,1-2.147.4Z" transform="translate(-104.166 -110.934)" fill="#de5753"/>
        <path id="Path_43627"  d="M155.841,154.944a.264.264,0,0,1-.154-.479,2.616,2.616,0,0,1,2.374-.407.264.264,0,0,1-.19.492,2.091,2.091,0,0,0-1.877.343A.264.264,0,0,1,155.841,154.944Z" transform="translate(-103.514 -109.56)" fill="#263238"/>
        <path id="Path_43628"  d="M137.4,163.018c.8,4.076,1.6,11.546-1.255,14.266,0,0,1.115,4.135,8.69,4.135,8.329,0,3.98-4.135,3.98-4.135-4.546-1.085-4.428-4.459-3.636-7.625Z" transform="translate(-98.821 -111.753)" fill="#e4897b"/>
        <g id="Group_44351"  transform="translate(33.296 61.777)">
          <path id="Path_43629"  d="M131.455,182.762c.9-1.4-.619-4.8-.619-4.8s13.418-3.376,18.9,1.8c1.138,1.075-.126,2.65-.126,2.65Z" transform="translate(-130.836 -176.877)" fill="#fff"/>
          <path id="Path_43630"  d="M131.455,182.762c.9-1.4-.619-4.8-.619-4.8s13.418-3.376,18.9,1.8c1.138,1.075-.126,2.65-.126,2.65Z" transform="translate(-130.836 -176.877)" opacity="0.1"/>
        </g>
        <path id="Path_43631"  d="M101.7,388.092c-.707,0-1.836-1.181-2.168-1.621a.13.13,0,0,1-.011-.143.145.145,0,0,1,.127-.068c.079.007,1.938.166,2.445.83a.614.614,0,0,1,.126.5.539.539,0,0,1-.394.487A.562.562,0,0,1,101.7,388.092Zm-1.756-1.534c.555.637,1.439,1.355,1.821,1.263.036-.008.149-.035.194-.279a.354.354,0,0,0-.076-.292A3.6,3.6,0,0,0,99.943,386.558Z" transform="translate(-89.974 -165.661)" fill="#407bff"/>
        <path id="Path_43632"  d="M100.022,386.182a2.188,2.188,0,0,1-.41-.033.13.13,0,0,1-.1-.09.131.131,0,0,1,.03-.13c.048-.05,1.169-1.208,2-1.208h0a.722.722,0,0,1,.542.225.43.43,0,0,1,.105.534C101.944,385.939,100.781,386.182,100.022,386.182Zm-.093-.263c.716.028,1.855-.237,2.034-.565.016-.03.055-.1-.065-.225a.459.459,0,0,0-.351-.143h0A3.2,3.2,0,0,0,99.93,385.919Z" transform="translate(-89.974 -165.289)" fill="#407bff"/>
        <path id="Path_43633"  d="M167.81,410.94a9.806,9.806,0,0,1-1.709-.156.133.133,0,0,1-.1-.108.131.131,0,0,1,.064-.136c.082-.049,2.027-1.161,2.957-.906a.661.661,0,0,1,.419.309.5.5,0,0,1,.011.577C169.216,410.842,168.525,410.94,167.81,410.94Zm-1.283-.353c1.036.148,2.445.139,2.706-.221.033-.046.067-.127-.027-.291a.394.394,0,0,0-.259-.185A4.708,4.708,0,0,0,166.527,410.588Z" transform="translate(-106.03 -171.296)" fill="#407bff"/>
        <path id="Path_43634"  d="M166.127,410.362a.137.137,0,0,1-.077-.024.132.132,0,0,1-.054-.12,3.769,3.769,0,0,1,.865-2.147.959.959,0,0,1,.732-.226c.363.036.467.221.492.368.1.63-1.23,1.836-1.9,2.138A.135.135,0,0,1,166.127,410.362Zm1.359-2.258a.7.7,0,0,0-.458.171,3.1,3.1,0,0,0-.736,1.718c.686-.413,1.592-1.359,1.531-1.738,0-.03-.02-.124-.257-.149C167.539,408.105,167.513,408.1,167.486,408.1Z" transform="translate(-106.03 -170.872)" fill="#407bff"/>
        <path id="Path_43635"  d="M158.091,406.883h5.572l.555-12.9h-5.572Z" transform="translate(-104.121 -167.525)" fill="#e4897b"/>
        <path id="Path_43636"  d="M92.635,379.021l4.661,3.054,10.285-8.688-4.661-3.054Z" transform="translate(-88.315 -161.815)" fill="#e4897b"/>
        <path id="Path_43637"  d="M96.69,384.13l-4.842-3.968a.486.486,0,0,0-.608-.006l-3.991,3.133a.819.819,0,0,0,0,1.283c1.714,1.356,2.617,1.93,4.746,3.675,1.31,1.073,4.568,4.346,6.377,5.828,1.77,1.45,3.511-.112,2.9-.881a18.7,18.7,0,0,1-4.106-8.227A1.354,1.354,0,0,0,96.69,384.13Z" transform="translate(-86.94 -164.162)" fill="#263238"/>
        <path id="Path_43638"  d="M162.944,410.141h-6.086a.487.487,0,0,0-.475.38l-1.1,4.953a.811.811,0,0,0,.8.991c2.2-.037,5.367-.166,8.127-.166,3.226,0,6.012.176,9.8.176,2.287,0,2.923-2.313,1.965-2.522-4.359-.953-7.918-1.056-11.686-3.378A2.575,2.575,0,0,0,162.944,410.141Z" transform="translate(-103.438 -171.428)" fill="#263238"/>
        <path id="Path_43639"  d="M119.256,183.82c-4.833,2.313-7.555,17.52-7.555,17.52l11.811,4.714a88.2,88.2,0,0,0,4.176-13.011C129.28,186.005,124.2,181.455,119.256,183.82Z" transform="translate(-92.919 -116.624)"/>
        <path id="Path_43640"  d="M128.379,195.126c-2.92,2.958-4.255,8.753-4.839,12.523l2.829,1.13a88.522,88.522,0,0,0,4.1-12.629C130.215,194.542,129.593,193.9,128.379,195.126Z" transform="translate(-95.778 -119.352)" fill="#203048"/>
        <path id="Path_43641"  d="M154.206,183.313s5.931,6.7.33,48.164h-29.8c-.206-4.575,2.669-26.893-1.743-48.451a77.838,77.838,0,0,1,9.977-1.26,109.37,109.37,0,0,1,12.67,0A55.908,55.908,0,0,1,154.206,183.313Z" transform="translate(-95.645 -116.236)"/>
        <path id="Path_43642"  d="M165.74,202.325l-5.021-8.655a44.251,44.251,0,0,0-1.179,12.344c.137,2.973,2.863,13.984,5.3,15.592A175.1,175.1,0,0,0,165.74,202.325Z" transform="translate(-104.459 -119.155)" fill="#203048"/>
        <path id="Path_43643"  d="M166,191.669c.742,3.687,1.525,7.462,2.331,11.169s1.651,7.417,2.63,11.006c.254.884.488,1.791.768,2.646l.2.65.1.326a.476.476,0,0,1-.035-.039c-.059-.066-.118-.073-.073,0a2.594,2.594,0,0,0,1.156.718,13.817,13.817,0,0,0,2.207.619,59.688,59.688,0,0,0,10.848.705l.721,4.122c-1.019.325-1.97.563-2.967.794s-1.987.435-3,.588a32.317,32.317,0,0,1-6.317.424,17.39,17.39,0,0,1-3.49-.454,10.182,10.182,0,0,1-4-1.856,7.257,7.257,0,0,1-1.872-2.256c-.124-.224-.233-.484-.327-.7l-.14-.359-.281-.718c-.388-.961-.707-1.909-1.054-2.865-1.285-3.813-2.348-7.618-3.294-11.441-.93-3.835-1.745-7.637-2.423-11.558Z" transform="translate(-104.025 -118.672)" fill="#e4897b"/>
        <path id="Path_43644"  d="M154.247,187.82c-1.569,5.091,4.8,20.265,4.8,20.265l12.678-3.189s-.487-7.883-3.375-14.141C163.99,181.316,156.132,181.71,154.247,187.82Z" transform="translate(-103.133 -116.679)"/>
        <path id="Path_43645"  d="M193.936,228.269l6.31-.156-3.035,6.563s-2.567.341-4.676-3.125L190.31,228.9l2.559-.514A6.231,6.231,0,0,1,193.936,228.269Z" transform="translate(-111.902 -127.473)" fill="#e4897b"/>
        <path id="Path_43646"  d="M206.427,229.335l-3.613,5.44-3.405-.1,3.035-6.563Z" transform="translate(-114.099 -127.473)" fill="#e4897b"/>
        <g id="Group_44352"  transform="translate(9.297 208.519)">
          <path id="Path_43647"  d="M164.3,393.983l-.285,6.652h-5.575l.285-6.652Z" transform="translate(-113.503 -376.045)" fill="#ce6f64"/>
          <path id="Path_43648"  d="M104.5,370.335l4.663,3.056-5.3,4.477L99.2,374.812Z" transform="translate(-99.197 -370.335)" fill="#ce6f64"/>
        </g>
        <path id="Path_43649"  d="M138.254,154.7c.335,5.521.25,8.769,3.035,11.6,4.19,4.265,11.006,1.743,12.328-3.766,1.19-4.958.444-13.153-4.958-15.354A7.543,7.543,0,0,0,138.254,154.7Z" transform="translate(-99.328 -107.788)" fill="#e4897b"/>
        <path id="Path_43650"  d="M129.644,151.756c1.373,5.033,4.6,10.831,8.782,11.2,5.191.457,7.534-4.905,8.217-10.447,3.112-2.13,1.477-4.471,4.6-4.769,4-.382,2.725-7.706-2.551-8.885,0,0,1.766,3.3-1.941,1.635a21.412,21.412,0,0,0-11.331-1.965s4.728,2.364.1,3.418-6.008,3.91-3.879,5.633A3.2,3.2,0,0,0,129.644,151.756Z" transform="translate(-97.21 -105.811)" fill="#263238"/>
        <path id="Path_43651"  d="M147.939,157.753a6.249,6.249,0,0,0,1.566,3.7c1.215,1.338,2.483.5,2.7-1.126.193-1.468-.206-3.931-1.691-4.669C149.048,154.927,147.84,156.1,147.939,157.753Z" transform="translate(-101.669 -109.922)" fill="#e4897b"/>
        <g id="Group_44353"  transform="translate(7.972 115.242)">
          <path id="Path_43652"  d="M137.8,247.362s5.432,39.33,1.152,55.087c-6.777,24.958-32.709,46.02-32.709,46.02l-8.79-5.76s22.079-17.788,24.782-38.676c2.429-18.764-3.667-41.448-3.667-56.671Z" transform="translate(-97.45 -247.362)"/>
          <path id="Path_43653"  d="M137.8,247.362s5.432,39.33,1.152,55.087c-6.777,24.958-32.709,46.02-32.709,46.02l-8.79-5.76s22.079-17.788,24.782-38.676c2.429-18.764-3.667-41.448-3.667-56.671Z" transform="translate(-97.45 -247.362)" opacity="0.1"/>
        </g>
        <g id="Group_44354"  transform="translate(45.807 133.172)">
          <path id="Path_43654"  d="M152.086,275.566A36.713,36.713,0,0,0,147.33,271c.925,12.766,1.684,31.676.842,45.109a57.956,57.956,0,0,0,2.822-7.949C153.08,300.469,152.86,287.172,152.086,275.566Z" transform="translate(-147.33 -271)"/>
          <path id="Path_43655"  d="M152.086,275.566A36.713,36.713,0,0,0,147.33,271c.925,12.766,1.684,31.676.842,45.109a57.956,57.956,0,0,0,2.822-7.949C153.08,300.469,152.86,287.172,152.086,275.566Z" transform="translate(-147.33 -271)" opacity="0.3"/>
        </g>
        <g id="Group_44355"  transform="translate(7.298 207.828)">
          <path id="Path_43656"  d="M109.569,375.984c.036.024-3.4,2.241-3.4,2.241l-9.6-6.293,2.994-2.509Z" transform="translate(-96.562 -369.423)"/>
          <path id="Path_43657"  d="M109.569,375.984c.036.024-3.4,2.241-3.4,2.241l-9.6-6.293,2.994-2.509Z" transform="translate(-96.562 -369.423)" opacity="0.3"/>
        </g>
        <g id="Group_44356"  transform="translate(39.299 115.242)">
          <path id="Path_43658"  d="M158.342,247.362s8.394,35.576,8.985,52.569c.662,19.058-5.989,64.01-5.989,64.01H151.9s-1.162-45.3-1.582-62.661c-.457-18.924-11.566-53.918-11.566-53.918Z" transform="translate(-138.75 -247.362)"/>
        </g>
        <g id="Group_44357"  transform="translate(51.378 228.061)">
          <path id="Path_43660"  d="M167,396.1c.043,0-.532,3.919-.532,3.919H154.984l-.31-3.5Z" transform="translate(-154.674 -396.097)" fill="#407bff"/>
          <path id="Path_43661"  d="M167,396.1c.043,0-.532,3.919-.532,3.919H154.984l-.31-3.5Z" transform="translate(-154.674 -396.097)"/>
        </g>
      </g>
    </g>
    <g id="Character-2"  transform="translate(230.314 130.62)">
      <g id="Group_44368" >
        <path id="Path_43662"  d="M354.682,202.287c.648.606,1.15,1.123,1.686,1.7q.78.851,1.527,1.721c.993,1.164,1.914,2.378,2.806,3.611a57.859,57.859,0,0,1,4.761,7.782l.282.551a6.577,6.577,0,0,1,.342.835,6.779,6.779,0,0,1,.331,1.715,8.5,8.5,0,0,1-.413,3.041,15.439,15.439,0,0,1-2.435,4.493,32.522,32.522,0,0,1-6.679,6.413L355,231.982c.894-1.033,1.817-2.148,2.642-3.264A28.014,28.014,0,0,0,359.9,225.3a12.07,12.07,0,0,0,1.379-3.352,3.355,3.355,0,0,0,.048-1.291,1.591,1.591,0,0,0-.132-.419,1.3,1.3,0,0,0-.1-.168l-.25-.406a79.132,79.132,0,0,0-4.752-6.914c-.846-1.114-1.748-2.182-2.652-3.239-.45-.53-.911-1.048-1.375-1.558-.459-.489-.962-1.032-1.365-1.438Z" transform="translate(-315 -168.226)" fill="#e4897b"/>
        <path id="Path_43663"  d="M355.558,240.294l-5.665-.928,2.961,4.965s3.648-.127,4.691-2.247Z" transform="translate(-314.805 -177.179)" fill="#e4897b"/>
        <path id="Path_43664"  d="M344.369,241.663l2.7,4.022,4.448-1.355-2.961-4.964Z" transform="translate(-313.471 -177.179)" fill="#e4897b"/>
        <path id="Path_43665"  d="M356.592,410.824a1.629,1.629,0,0,1-1.084-.3.768.768,0,0,1-.223-.716.459.459,0,0,1,.268-.379c.661-.3,2.388.815,2.583.943a.135.135,0,0,1-.043.244A6.91,6.91,0,0,1,356.592,410.824Zm-.757-1.176a.431.431,0,0,0-.171.03.193.193,0,0,0-.112.171.509.509,0,0,0,.137.479,2.7,2.7,0,0,0,2.021.1A4.994,4.994,0,0,0,355.835,409.648Z" transform="translate(-316.104 -218.234)" fill="#407bff"/>
        <path id="Path_43666"  d="M358.464,410.2a.134.134,0,0,1-.067-.018c-.542-.307-1.575-1.534-1.447-2.175a.469.469,0,0,1,.454-.375.68.68,0,0,1,.57.179c.617.547.626,2.184.626,2.254a.134.134,0,0,1-.068.116A.126.126,0,0,1,358.464,410.2Zm-.966-2.305a.561.561,0,0,0-.061,0c-.172.022-.209.1-.221.162-.079.39.566,1.311,1.107,1.743a3.074,3.074,0,0,0-.527-1.79A.434.434,0,0,0,357.5,407.894Z" transform="translate(-316.506 -217.809)" fill="#407bff"/>
        <path id="Path_43667"  d="M322.405,410.824a2.135,2.135,0,0,1-1.379-.35.746.746,0,0,1-.243-.655.434.434,0,0,1,.228-.358c.7-.387,2.962.775,3.218.909a.134.134,0,0,1,.071.138.136.136,0,0,1-.108.113A9.638,9.638,0,0,1,322.405,410.824Zm-1.013-1.176a.524.524,0,0,0-.251.049.166.166,0,0,0-.09.145.486.486,0,0,0,.156.432,3.634,3.634,0,0,0,2.539.155A7.323,7.323,0,0,0,321.392,409.647Z" transform="translate(-307.774 -218.234)" fill="#407bff"/>
        <path id="Path_43668"  d="M324.618,410.2a.143.143,0,0,1-.055-.012c-.678-.306-2.018-1.534-1.913-2.176.026-.152.133-.342.506-.38a.976.976,0,0,1,.746.233,3.8,3.8,0,0,1,.85,2.189.135.135,0,0,1-.134.146Zm-1.354-2.305a.776.776,0,0,0-.082,0c-.245.025-.261.123-.266.155-.063.387.847,1.352,1.537,1.77a3.118,3.118,0,0,0-.724-1.753A.706.706,0,0,0,323.264,407.895Z" transform="translate(-308.225 -217.81)" fill="#407bff"/>
        <path id="Path_43669"  d="M334.111,179.3c-.218,3.431-.814,10.4,1.818,12.324,0,0-.47,3.512-6.685,4.325-6.833.894-3.709-2.965-3.709-2.965,3.613-1.378,3.155-4.132,2.165-6.646Z" transform="translate(-308.751 -162.674)" fill="#e4897b"/>
        <path id="Path_43670"  d="M317.713,170.859a.267.267,0,0,1-.2-.093,2.145,2.145,0,0,0-1.783-.777.26.26,0,0,1-.3-.229.269.269,0,0,1,.229-.3,2.674,2.674,0,0,1,2.264.956.27.27,0,0,1-.2.447Z" transform="translate(-306.48 -160.295)" fill="#263238"/>
        <path id="Path_43671"  d="M316.488,175.738a12.243,12.243,0,0,1-1.241,3.114,1.972,1.972,0,0,0,1.66.092Z" transform="translate(-306.439 -161.815)" fill="#de5753"/>
        <path id="Path_43672"  d="M316.939,174.4c.059.454-.133.855-.431.894s-.586-.3-.645-.752.133-.855.43-.894S316.879,173.943,316.939,174.4Z" transform="translate(-306.585 -161.309)" fill="#263238"/>
        <path id="Path_43673"  d="M316.25,173.6l-1.133-.171S315.789,174.209,316.25,173.6Z" transform="translate(-306.407 -161.257)" fill="#263238"/>
        <path id="Path_43674"  d="M331.556,406.65h-5.684l-.379-13.163h5.684Z" transform="translate(-308.913 -214.396)" fill="#e4897b"/>
        <path id="Path_43675"  d="M365.143,406.65h-5.684l-1.827-13.163h5.684Z" transform="translate(-316.673 -214.396)" fill="#e4897b"/>
        <path id="Path_43676"  d="M356.972,409.973h6.386a.45.45,0,0,1,.454.388l.727,5.053a.912.912,0,0,1-.911,1.01c-2.226-.038-3.3-.168-6.108-.168-1.728,0-4.252.179-6.638.179-2.333,0-2.513-2.359-1.519-2.573,4.455-.958,5.158-2.279,6.659-3.539A1.481,1.481,0,0,1,356.972,409.973Z" transform="translate(-314.539 -218.377)" fill="#263238"/>
        <path id="Path_43677"  d="M322.8,409.973h6.386a.45.45,0,0,1,.454.388l.727,5.053a.912.912,0,0,1-.911,1.01c-2.227-.038-3.3-.168-6.108-.168-1.728,0-5.3.179-7.688.179-2.333,0-2.513-2.359-1.519-2.573,4.455-.958,6.208-2.279,7.708-3.539A1.485,1.485,0,0,1,322.8,409.973Z" transform="translate(-306.033 -218.377)" fill="#263238"/>
        <g id="Group_44359"  transform="translate(16.581 179.094)">
          <path id="Path_43678"  d="M325.494,393.491l.195,6.785h5.687l-.195-6.785Z" transform="translate(-325.494 -393.491)" fill="#ce6f64"/>
          <path id="Path_43679"  d="M363.317,393.491h-5.687l.945,6.785h5.687Z" transform="translate(-333.254 -393.491)" fill="#ce6f64"/>
        </g>
        <path id="Path_43680"  d="M332.154,167.629c.388,5.628.671,8-1.773,11.237-3.677,4.865-10.675,4.11-12.736-1.288-1.855-4.86-2.178-13.247,3-16.184A7.694,7.694,0,0,1,332.154,167.629Z" transform="translate(-306.719 -158.1)" fill="#e4897b"/>
        <path id="Path_43681"  d="M334.98,172.136c3.161,1.761,5.5-2.581,5.5-2.581s-5.657.614-5.151-2.753c.671-4.467-2.529-9.9-10.556-9.2-.445.038-.874.094-1.29.162a4.127,4.127,0,0,0-4.991,1.15,4.255,4.255,0,0,0-3.263,6.494,3.373,3.373,0,0,1,.671-1.113c.171,2.1,2.012,5.436,4.3,5.656.494,2.878-1.416,6.209-.738,9.207.98,4.332,8.281,5.34,8.281,5.34a3.157,3.157,0,0,1,.428-3.34c4.962,2.266,8.232.053,8.232.053-3.382-1.264-2.36-3.508-2.36-3.508a4.926,4.926,0,0,0,6.437-2.339A5.837,5.837,0,0,1,334.98,172.136Z" transform="translate(-306.268 -157.382)" fill="#263238"/>
        <path id="Path_43682"  d="M323.4,174.467a4.125,4.125,0,0,1-1.139,2.936c-1.006,1.038-2.235.313-2.564-1.016-.3-1.2-.127-3.18,1.175-3.721A1.852,1.852,0,0,1,323.4,174.467Z" transform="translate(-307.482 -161.038)" fill="#e4897b"/>
        <path id="Path_43683"  d="M330.839,243.52s1.445,37.438,4.867,59.425c2.765,17.759,15.027,59.27,15.027,59.27h7.751s-6.389-40.09-7.792-57.655c-3.551-44.447,5.661-53.988-3.008-63.245Z" transform="translate(-310.204 -177.65)"/>
        <path id="Path_43684"  d="M337.612,259.825s-3.5-.607-5.552,6.068c.774,12.645,2.056,29.423,3.944,41.514.417,2.693,1.054,5.939,1.836,9.5C336.361,295.544,337.612,259.825,337.612,259.825Z" transform="translate(-310.498 -182.116)"/>
        <path id="Path_43685"  d="M320.949,244.567s-6.388,41.419-6.016,58.754c.388,18.03,6.994,59.15,6.994,59.15h7.686S328.4,322.4,329.076,304.7c.741-19.3,8.635-62.323,8.635-62.323Z" transform="translate(-306.359 -177.905)"/>
        <g id="Group_44360"  transform="translate(38.298 181.466)">
          <path id="Path_43686"  d="M365.231,400.076h-10.3l-.8-3.458,11.035.079Z" transform="translate(-354.124 -396.618)" fill="#407bff"/>
          <path id="Path_43687"  d="M365.231,400.076h-10.3l-.8-3.458,11.035.079Z" transform="translate(-354.124 -396.618)"/>
        </g>
        <g id="Group_44361"  transform="translate(31.528 28.938)">
          <path id="Path_43688"  d="M350.738,195.55c2.961.282,7.47,8.709,7.47,8.709L350.72,210s-6.2-5.439-5.46-8.494C346.029,198.327,347.893,195.278,350.738,195.55Z" transform="translate(-345.199 -195.533)" fill="#407bff"/>
          <path id="Path_43689"  d="M350.738,195.55c2.961.282,7.47,8.709,7.47,8.709L350.72,210s-6.2-5.439-5.46-8.494C346.029,198.327,347.893,195.278,350.738,195.55Z" transform="translate(-345.199 -195.533)"/>
        </g>
        <g id="Group_44362"  transform="translate(31.529 32.306)">
          <path id="Path_43690"  d="M348.5,200.244a7.681,7.681,0,0,0-2.321-.258,12.826,12.826,0,0,0-.918,2.594c-.736,3.057,5.461,8.5,5.461,8.5l.554-.425Z" transform="translate(-345.2 -199.973)" fill="#fff"/>
        </g>
        <path id="Path_43692"  d="M315.684,210.283c-2.163,5.474-4.44,11.031-6.252,16.518-.117.344-.222.683-.323,1.023l-.258.842a1.365,1.365,0,0,0,0,.787,5.62,5.62,0,0,0,1.965,2.35,31.713,31.713,0,0,0,7.347,3.938l-.68,2.8a26.322,26.322,0,0,1-9.168-2.992,9.779,9.779,0,0,1-4.083-4.138,6.356,6.356,0,0,1-.53-3.615c.021-.152.052-.3.08-.448l.071-.314.135-.576c.088-.386.18-.769.28-1.143.779-3.019,1.728-5.91,2.748-8.776s2.1-5.678,3.3-8.492Z" transform="translate(-303.634 -169.615)" fill="#e4897b"/>
        <g id="Group_44363"  transform="translate(7.14 28.767)">
          <path id="Path_43693"  d="M313.354,199.537s-2.562,1.3,7.144,33.665l22.891-3c-1.6-9.266-2.365-15.009-.414-34.711a68.054,68.054,0,0,0-9.888-.009,73.528,73.528,0,0,0-10.394,1.36C318.281,197.838,313.354,199.537,313.354,199.537Z" transform="translate(-313.048 -195.307)" fill="#407bff"/>
          <path id="Path_43694"  d="M313.354,199.537s-2.562,1.3,7.144,33.665l22.891-3c-1.6-9.266-2.365-15.009-.414-34.711a68.054,68.054,0,0,0-9.888-.009,73.528,73.528,0,0,0-10.394,1.36C318.281,197.838,313.354,199.537,313.354,199.537Z" transform="translate(-313.048 -195.307)"/>
        </g>
        <g id="Group_44364"  transform="translate(13.712 62.149)">
          <path id="Path_43695"  d="M345.647,239.445l1.3,1.914c.1.149-.066.335-.331.37l-24.006,3.141c-.206.027-.391-.052-.42-.18l-.475-2.022c-.033-.14.13-.284.357-.313l23.18-3.033A.417.417,0,0,1,345.647,239.445Z" transform="translate(-321.712 -239.317)"/>
          <path id="Path_43696"  d="M345.647,239.445l1.3,1.914c.1.149-.066.335-.331.37l-24.006,3.141c-.206.027-.391-.052-.42-.18l-.475-2.022c-.033-.14.13-.284.357-.313l23.18-3.033A.417.417,0,0,1,345.647,239.445Z" transform="translate(-321.712 -239.317)" opacity="0.2"/>
        </g>
        <path id="Path_43697"  d="M349.323,242.489l.621-.081c.124-.016.21-.092.191-.169l-.639-2.624c-.019-.077-.135-.127-.259-.11l-.621.081c-.124.016-.209.092-.19.169l.639,2.624C349.083,242.456,349.2,242.506,349.323,242.489Z" transform="translate(-314.45 -177.212)" fill="#263238"/>
        <path id="Path_43698"  d="M329.484,245.085l.621-.081c.124-.017.209-.093.19-.169l-.639-2.624c-.018-.077-.135-.127-.259-.111l-.621.081c-.124.017-.209.093-.191.169l.639,2.624C329.245,245.051,329.361,245.1,329.484,245.085Z" transform="translate(-309.659 -177.839)" fill="#263238"/>
        <g id="Group_44365"  transform="translate(8.515 43.409)">
          <path id="Path_43699"  d="M314.86,215.179c.63,2.928,1.54,6.637,2.814,11.332l.281-11.9Z" transform="translate(-314.86 -214.61)" fill="#fff"/>
        </g>
        <g id="Group_44366"  transform="translate(2.157 32.229)">
          <path id="Path_43701"  d="M311.767,200.639c-2.846,1.142-5.289,10.876-5.289,10.876l9.783,4.762s4.733-11.9,2.612-14.222C316.663,199.638,315.041,199.324,311.767,200.639Z" transform="translate(-306.478 -199.872)"/>
          <path id="Path_43702"  d="M311.767,200.639c-2.846,1.142-5.289,10.876-5.289,10.876l9.783,4.762s4.733-11.9,2.612-14.222C316.663,199.638,315.041,199.324,311.767,200.639Z" transform="translate(-306.478 -199.872)" opacity="0.1"/>
        </g>
        <g id="Group_44367"  transform="translate(13.456 181.466)">
          <path id="Path_43703"  d="M332.481,400.076h-10.3l-.8-3.458,11.473.079Z" transform="translate(-321.374 -396.618)"/>
          <path id="Path_43704"  d="M332.481,400.076h-10.3l-.8-3.458,11.473.079Z" transform="translate(-321.374 -396.618)" opacity="0.2"/>
        </g>
        <path id="Path_43705"  d="M322.193,243.139l-.826-.34a1.24,1.24,0,0,0-1.7,1.333l.6,3.953a1.351,1.351,0,0,0,1.79,1.078,3.048,3.048,0,0,0,.831-.463,2.248,2.248,0,0,0,.818-1.884l-.077-1.638A2.325,2.325,0,0,0,322.193,243.139Z" transform="translate(-307.503 -177.985)" fill="#e4897b"/>
      </g>
    </g>
  </g>
</svg>
