<svg xmlns="http://www.w3.org/2000/svg" width="324" height="262.152" viewBox="0 0 324 262.152">
    <g id="Group_4467" transform="translate(-38.723 -75.678)">
        <g id="Floor" transform="translate(42.347 176.633)">
            <path id="Path_42939"
                d="M90.495,353.657c62.558,31.476,163.984,31.476,226.539,0s62.558-82.508,0-113.984-163.983-31.476-226.54,0S27.937,322.181,90.495,353.657Z"
                transform="translate(-43.576 -216.067)" fill="#fafafa" />
        </g>
        <g id="Shadow" transform="translate(231.983 298.979)">
            <ellipse id="Ellipse_142" cx="22.901" cy="10.512" rx="22.901" ry="10.512"
                fill="#f0f0f0" />
        </g>
        <g id="Screens_2" transform="translate(57.596 75.678)">
            <g id="Group_4431" transform="translate(18.215)">
                <path id="Path_42940"
                    d="M88.4,127.658v36.2c0,1.193.869,1.676,1.941,1.08l87.193-48.485a4.106,4.106,0,0,0,1.941-3.239v-36.2c0-1.193-.869-1.676-1.941-1.08L90.337,124.418A4.106,4.106,0,0,0,88.4,127.658Z"
                    transform="translate(-88.396 -75.678)" fill="#f0f0f0" />
                <path id="Path_42941"
                    d="M95.8,141.423l26.126-14.528c1.2-.664,2.165-.126,2.165,1.2v25.293A4.577,4.577,0,0,1,121.924,157L95.8,171.53c-1.2.664-2.164.126-2.164-1.2V145.034A4.577,4.577,0,0,1,95.8,141.423Z"
                    transform="translate(-89.723 -89.984)" fill="#fafafa" />
                <path id="Path_42942"
                    d="M116.955,144.293l-7.768,15.518-3.959-2.2a1.7,1.7,0,0,0-2.277.588l-9.318,15.544V175.1c0,1.33.968,1.868,2.165,1.2l26.126-14.528a4.579,4.579,0,0,0,2.164-3.608V149.28l-5.256-5.275A1.1,1.1,0,0,0,116.955,144.293Z"
                    transform="translate(-89.723 -94.756)" fill="#98eca8" />
                <path id="Path_42943"
                    d="M97.555,155.177a11.731,11.731,0,0,0,5.549-9.255,3.857,3.857,0,0,0-1.38-3.3l-5.927,3.3a4.577,4.577,0,0,0-2.164,3.611v6.019A4.024,4.024,0,0,0,97.555,155.177Z"
                    transform="translate(-89.723 -94.483)" fill="#98eca8" />
                <path id="Path_42944"
                    d="M146.939,112.459,186.2,90.625c.894-.5,1.619-.144,1.619.788A3.325,3.325,0,0,1,186.2,94l-39.267,21.835c-.894.5-1.618.143-1.617-.789A3.324,3.324,0,0,1,146.939,112.459Z"
                    transform="translate(-102.819 -79.813)" fill="#fafafa" />
                <path id="Path_42945"
                    d="M146.939,122.851,186.2,101.017c.894-.5,1.619-.145,1.619.788a3.325,3.325,0,0,1-1.619,2.588l-39.267,21.834c-.894.5-1.618.144-1.617-.788A3.324,3.324,0,0,1,146.939,122.851Z"
                    transform="translate(-102.819 -82.732)" fill="#fafafa" />
                <path id="Path_42946"
                    d="M146.939,133.243,186.2,111.408c.894-.5,1.619-.144,1.619.789a3.324,3.324,0,0,1-1.619,2.587L146.938,136.62c-.894.5-1.618.144-1.617-.788A3.323,3.323,0,0,1,146.939,133.243Z"
                    transform="translate(-102.819 -85.651)" fill="#fafafa" />
                <path id="Path_42947"
                    d="M146.939,143.635,186.205,121.8c.894-.5,1.618-.144,1.618.788a3.324,3.324,0,0,1-1.618,2.588l-39.267,21.834c-.894.5-1.618.145-1.618-.788A3.324,3.324,0,0,1,146.939,143.635Z"
                    transform="translate(-102.819 -88.57)" fill="#fafafa" />
            </g>
            <g id="Group_4432" transform="translate(0 72.575)">
                <path id="Path_42948"
                    d="M64,269.841V216.764a4.107,4.107,0,0,1,1.942-3.239l65.941-36.668c1.072-.6,1.942-.113,1.942,1.079v53.078a4.109,4.109,0,0,1-1.942,3.239L65.942,270.921C64.87,271.518,64,271.034,64,269.841Z"
                    transform="translate(-64 -176.601)" fill="#f0f0f0" />
                <path id="Path_42949"
                    d="M64,287.4v2.657c0,1.193.87,1.677,1.942,1.08l65.941-36.668a4.109,4.109,0,0,0,1.942-3.239v-2.658Z"
                    transform="translate(-64 -196.817)" fill="#98eca8" />
                <path id="Path_42950"
                    d="M106.222,235.5l6.709-.34c.824-.042,1.051.408.506,1.005l-7.722,8.458c-.544.6-.986.436-.986-.359v-7.249A1.561,1.561,0,0,1,106.222,235.5Z"
                    transform="translate(-74.319 -193.048)" fill="#98eca8" />
                <path id="Path_42951"
                    d="M102.761,246.468a4.683,4.683,0,0,1-2.3-.571c-1.658-.922-2.572-2.846-2.572-5.416,0-5.195,3.8-11.535,8.472-14.133,2.312-1.286,4.5-1.484,6.157-.563s2.571,2.846,2.571,5.417c0,5.195-3.8,11.535-8.471,14.132A8.056,8.056,0,0,1,102.761,246.468Zm7.452-20.759a7.534,7.534,0,0,0-3.6,1.067c-4.53,2.519-8.215,8.667-8.215,13.7,0,2.387.822,4.158,2.315,4.988s3.5.631,5.643-.563c4.529-2.518,8.215-8.666,8.215-13.7,0-2.387-.822-4.158-2.315-4.988A4.147,4.147,0,0,0,110.214,225.71Z"
                    transform="translate(-72.586 -190.256)" fill="#98eca8" />
            </g>
        </g>
        <g id="Locator" transform="translate(38.723 135.957)">
            <g id="Group_4440" transform="translate(0 0)">
                <g id="Group_4435">
                    <g id="Group_4433">
                        <path id="Path_42952"
                            d="M61.233,162.637l-4.089-2.262h0c-1.952-1.258-4.661-1.2-7.658.462-5.945,3.306-10.763,11.7-10.763,18.744v1.6c0,7.047,9.837,14.7,9.837,14.7l4.022,2.191s-2.416-2.654-2.141-3.2c2.635-5.208,9.808-19.914,9.807-25.667v-1.6a12.074,12.074,0,0,0-.461-3.44l.461.255ZM49.486,178.792c-2.972,1.653-5.381.313-5.382-2.992,1.6-.242,5.622-6.856,5.382-8.977,2.972-1.653,5.381-.313,5.381,2.992A11.38,11.38,0,0,1,49.486,178.792Z"
                            transform="translate(-38.723 -159.502)" fill="#6eb37b" />
                    </g>
                    <g id="Group_4434" opacity="0.2">
                        <path id="Path_42953"
                            d="M61.233,162.637l-4.089-2.262h0c-1.952-1.258-4.661-1.2-7.658.462-5.945,3.306-10.763,11.7-10.763,18.744v1.6c0,7.047,9.837,14.7,9.837,14.7l4.022,2.191s-2.416-2.654-2.141-3.2c2.635-5.208,9.808-19.914,9.807-25.667v-1.6a12.074,12.074,0,0,0-.461-3.44l.461.255ZM49.486,178.792c-2.972,1.653-5.381.313-5.382-2.992,1.6-.242,5.622-6.856,5.382-8.977,2.972-1.653,5.381-.313,5.381,2.992A11.38,11.38,0,0,1,49.486,178.792Z"
                            transform="translate(-38.723 -159.502)" fill="#6eb37b" />
                    </g>
                </g>
                <g id="Group_4436" transform="translate(4.307 2.393)">
                    <path id="Path_42954"
                        d="M62.7,163.573c-.047-.029-.095-.058-.143-.081-1.921-1.034-4.486-.9-7.3.672-4.259,2.372-7.94,7.348-9.682,12.57,0,.006-.005.012-.005.017a19.758,19.758,0,0,0-1.074,6.158v1.6c0,5.429,6.382,11.726,9.317,14.334a1.214,1.214,0,0,0,.2.15c.006.006.019.012.024.017a1.477,1.477,0,0,0,2.058-.58c2.535-5,9.919-20.05,9.919-25.887v-1.609C66.012,167.319,64.742,164.757,62.7,163.573Zm-12.729,16.6a5.182,5.182,0,0,1-.1-1.04,11.386,11.386,0,0,1,5.38-8.98,6.481,6.481,0,0,1,.978-.448c2.506-.879,4.4.512,4.4,3.442a11.373,11.373,0,0,1-5.38,8.974C52.615,183.589,50.42,182.7,49.967,180.17Z"
                        transform="translate(-44.491 -162.829)" fill="#98eca8" />
                </g>
                <g id="Group_4439" transform="translate(9.782 9.006)">
                    <g id="Group_4437">
                        <path id="Path_42955"
                            d="M62.49,175.728a11.373,11.373,0,0,1-5.38,8.974c-2.636,1.471-4.832.58-5.285-1.948a6.421,6.421,0,0,0,.978-.442,11.379,11.379,0,0,0,5.38-8.98,5.251,5.251,0,0,0-.1-1.046C60.594,171.407,62.49,172.8,62.49,175.728Z"
                            transform="translate(-51.825 -172.025)" fill="#27debf" />
                    </g>
                    <g id="Group_4438" opacity="0.2">
                        <path id="Path_42956"
                            d="M62.49,175.728a11.373,11.373,0,0,1-5.38,8.974c-2.636,1.471-4.832.58-5.285-1.948a6.421,6.421,0,0,0,.978-.442,11.379,11.379,0,0,0,5.38-8.98,5.251,5.251,0,0,0-.1-1.046C60.594,171.407,62.49,172.8,62.49,175.728Z"
                            transform="translate(-51.825 -172.025)" />
                    </g>
                </g>
            </g>
        </g>
        <g id="Plants" transform="translate(101.83 193.282)">
            <g id="Group_4442">
                <g id="Group_4441" transform="translate(12.15)">
                    <path id="Path_42957"
                        d="M163.159,283.884s2.692-16.509-3.29-30.762S145.8,238,141.625,240.036s-1.467,9.915,2.274,15.216c4.9,6.948,13.178,21.926,12.879,35.368Z"
                        transform="translate(-139.517 -239.218)" fill="#27debf" />
                    <path id="Path_42958"
                        d="M163.159,283.884s2.692-16.509-3.29-30.762S145.8,238,141.625,240.036s-1.467,9.915,2.274,15.216c4.9,6.948,13.178,21.926,12.879,35.368Z"
                        transform="translate(-139.517 -239.218)" fill="#98eca8" />
                </g>
                <path id="Path_42959"
                    d="M161.957,285.508h-.022a.5.5,0,0,1-.486-.509c.991-22.645-10.758-39.594-15.824-42.847a.478.478,0,0,1-.141-.677.516.516,0,0,1,.7-.136c5.976,3.836,17.264,21.125,16.276,43.7A.5.5,0,0,1,161.957,285.508Z"
                    transform="translate(-128.857 -239.79)" fill="#fff" />
                <path id="Path_42960"
                    d="M157.972,308.954c-1.021-2.477-3.66-5.236-10.483-8.187s-11.892-6.879-12.835-9.728a4.16,4.16,0,0,1,1.208-4.534s-6.4-.722-7.205-4.5c-1.015-4.757,4.58-5.07,4.58-5.07s-7.337-9.955-9.29-14.414.3-4.69,5.034-3,13.756,10.2,15.153,12.8c0,0,2.439-2.9,5.065-.991s2.758,7.556,1.2,9.594a5.631,5.631,0,0,1,5.55,2.211c2.672,3.373,3.552,11.8,3.552,11.8Z"
                    transform="translate(-123.244 -244.649)" fill="#98eca8" />
                <path id="Path_42961"
                    d="M159.456,307.292a.5.5,0,0,1-.493-.375c-3.632-14.559-20.858-37.8-31.558-45.2a.478.478,0,0,1-.117-.682.521.521,0,0,1,.709-.112c10.834,7.485,28.276,31.022,31.954,45.763a.488.488,0,0,1-.376.59A.515.515,0,0,1,159.456,307.292Z"
                    transform="translate(-124.244 -245.29)" fill="#fff" />
            </g>
        </g>
        <g id="Screen_1" transform="translate(136.558 75.745)">
            <g id="Group_4449" transform="translate(0)">
                <g id="Group_4445">
                    <path id="Path_42962"
                        d="M350.529,120.689a.511.511,0,0,1-.253-.066l-2.1-1.167a.479.479,0,0,1-.186-.668.519.519,0,0,1,.693-.179l2.1,1.168a.479.479,0,0,1,.186.667A.511.511,0,0,1,350.529,120.689Z"
                        transform="translate(-214.897 -87.786)" fill="#fff" />
                    <path id="Path_42963"
                        d="M169.757,151.31V258.3c0,1.191.868,1.674,1.94,1.079l129.568-72.048A4.1,4.1,0,0,0,303.2,184.1V77.106c0-1.192-.868-1.675-1.939-1.079L171.7,148.074A4.1,4.1,0,0,0,169.757,151.31Z"
                        transform="translate(-169.757 -75.772)" fill="#455a64" />
                    <path id="Path_42964"
                        d="M190.067,181.954c0,3.726,2.9,5.137,6.466,3.15l102.718-57.117V114.5L196.533,171.613C192.962,173.6,190.067,178.229,190.067,181.954Z"
                        transform="translate(-174.903 -86.649)" fill="#f5f5f5" />
                    <path id="Path_42965"
                        d="M345,107.418c3.571-1.986,6.466-.575,6.466,3.15S348.57,118.924,345,120.91l-8.7,4.837V112.255Z"
                        transform="translate(-211.953 -84.408)" fill="#98eca8" />
                    <path id="Path_42966"
                        d="M343.043,120.18a2.165,2.165,0,0,1-1.062-.266,2.534,2.534,0,0,1-1.165-2.362,7.015,7.015,0,0,1,3.362-5.608,2.749,2.749,0,0,1,2.705-.209,2.533,2.533,0,0,1,1.164,2.362,7.015,7.015,0,0,1-3.361,5.608A3.421,3.421,0,0,1,343.043,120.18Zm2.775-7.733a2.392,2.392,0,0,0-1.132.344,6.138,6.138,0,0,0-2.854,4.761,1.626,1.626,0,0,0,.657,1.514,1.769,1.769,0,0,0,1.69-.21,6.137,6.137,0,0,0,2.854-4.761,1.628,1.628,0,0,0-.656-1.514A1.134,1.134,0,0,0,345.818,112.447Z"
                        transform="translate(-213.097 -85.799)" fill="#fff" />
                    <g id="Group_4443" transform="translate(33.362 52.281)">
                        <path id="Path_42967"
                            d="M315.618,148.729,216.38,203.912a4.1,4.1,0,0,0-1.94,3.236v29.415c0,1.192.868,1.674,1.94,1.079l99.238-55.183a4.1,4.1,0,0,0,1.94-3.236V149.808C317.558,148.616,316.689,148.134,315.618,148.729Z"
                            transform="translate(-214.44 -148.474)" fill="#27debf" />
                        <path id="Path_42968"
                            d="M315.618,148.729,216.38,203.912a4.1,4.1,0,0,0-1.94,3.236v29.415c0,1.192.868,1.674,1.94,1.079l99.238-55.183a4.1,4.1,0,0,0,1.94-3.236V149.808C317.558,148.616,316.689,148.134,315.618,148.729Z"
                            transform="translate(-214.44 -148.474)" fill="#98eca8" />
                    </g>
                    <path id="Path_42969"
                        d="M264.8,200.48l18-10.008c.893-.5,1.616-.144,1.616.787a3.322,3.322,0,0,1-1.616,2.586l-18,10.007c-.894.5-1.616.144-1.616-.787A3.318,3.318,0,0,1,264.8,200.48Z"
                        transform="translate(-193.428 -107.927)" fill="#fff" />
                    <path id="Path_42970"
                        d="M263.185,204.541c0,.931.723,1.284,1.616.787l54.391-30.245a3.321,3.321,0,0,0,1.616-2.585c0-.931-.723-1.284-1.616-.788L264.8,201.955A3.321,3.321,0,0,0,263.185,204.541Z"
                        transform="translate(-193.428 -102.657)" fill="#fff" />
                    <path id="Path_42971"
                        d="M263.185,213.921c0,.931.723,1.284,1.616.787l54.391-30.245a3.32,3.32,0,0,0,1.616-2.585c0-.931-.723-1.284-1.616-.787L264.8,211.336A3.319,3.319,0,0,0,263.185,213.921Z"
                        transform="translate(-193.428 -105.292)" fill="#fff" />
                    <path id="Path_42972"
                        d="M263.185,223.3c0,.931.723,1.284,1.616.787l54.391-30.245a3.32,3.32,0,0,0,1.616-2.586c0-.931-.723-1.284-1.616-.787L264.8,220.714A3.321,3.321,0,0,0,263.185,223.3Z"
                        transform="translate(-193.428 -107.926)" fill="#fff" />
                    <path id="Path_42973"
                        d="M220.442,222.726l23.416-13.021c1.071-.6,1.94-.113,1.94,1.079v22.669a4.1,4.1,0,0,1-1.94,3.236l-23.416,13.021c-1.071.6-1.94.113-1.94-1.079V225.962A4.1,4.1,0,0,1,220.442,222.726Z"
                        transform="translate(-182.107 -113.32)" fill="#fff" />
                    <path id="Path_42974"
                        d="M239.4,225.3l-6.962,13.908-3.548-1.973a1.525,1.525,0,0,0-2.041.526L218.5,251.691v1.217c0,1.192.868,1.675,1.941,1.079l23.415-13.021a4.1,4.1,0,0,0,1.94-3.234v-7.964l-4.711-4.727A.984.984,0,0,0,239.4,225.3Z"
                        transform="translate(-182.107 -117.597)" fill="#6eb37b" />
                    <path id="Path_42975"
                        d="M222.017,235.052a10.513,10.513,0,0,0,4.973-8.294,3.455,3.455,0,0,0-1.237-2.954l-5.312,2.953a4.1,4.1,0,0,0-1.94,3.236v5.395A3.607,3.607,0,0,0,222.017,235.052Z"
                        transform="translate(-182.107 -117.352)" fill="#6eb37b" />
                    <g id="Group_4444" transform="translate(33.362 96.129)">
                        <path id="Path_42976"
                            d="M315.618,209.705,216.38,264.888a4.1,4.1,0,0,0-1.94,3.236v29.415c0,1.192.868,1.674,1.94,1.079l99.238-55.182a4.1,4.1,0,0,0,1.94-3.236V210.784C317.558,209.592,316.689,209.109,315.618,209.705Z"
                            transform="translate(-214.44 -209.45)" fill="#98eca8" />
                        <path id="Path_42977"
                            d="M315.618,209.705,216.38,264.888a4.1,4.1,0,0,0-1.94,3.236v29.415c0,1.192.868,1.674,1.94,1.079l99.238-55.182a4.1,4.1,0,0,0,1.94-3.236V210.784C317.558,209.592,316.689,209.109,315.618,209.705Z"
                            transform="translate(-214.44 -209.45)" fill="#98eca8" opacity="0.2" />
                    </g>
                    <path id="Path_42978"
                        d="M264.8,261.455l18-10.007c.893-.5,1.616-.144,1.616.787a3.322,3.322,0,0,1-1.616,2.586l-18,10.007c-.894.5-1.616.144-1.616-.787A3.32,3.32,0,0,1,264.8,261.455Z"
                        transform="translate(-193.428 -125.054)" fill="#fff" />
                    <path id="Path_42979"
                        d="M263.185,265.517c0,.931.723,1.284,1.616.787l54.391-30.245a3.319,3.319,0,0,0,1.616-2.585c0-.931-.723-1.284-1.616-.787L264.8,262.931A3.319,3.319,0,0,0,263.185,265.517Z"
                        transform="translate(-193.428 -119.784)" fill="#fff" />
                    <path id="Path_42980"
                        d="M263.185,274.9c0,.931.723,1.284,1.616.787l54.391-30.244a3.322,3.322,0,0,0,1.616-2.586c0-.931-.723-1.284-1.616-.787L264.8,272.311A3.32,3.32,0,0,0,263.185,274.9Z"
                        transform="translate(-193.428 -122.419)" fill="#fff" />
                    <path id="Path_42981"
                        d="M263.185,284.276c0,.931.723,1.284,1.616.787l54.391-30.244a3.322,3.322,0,0,0,1.616-2.586c0-.931-.723-1.284-1.616-.787L264.8,281.69A3.32,3.32,0,0,0,263.185,284.276Z"
                        transform="translate(-193.428 -125.053)" fill="#fff" />
                    <path id="Path_42982"
                        d="M220.442,283.7l23.416-13.021c1.071-.6,1.94-.113,1.94,1.079v22.669a4.1,4.1,0,0,1-1.94,3.236l-23.416,13.021c-1.071.6-1.94.112-1.94-1.079V286.937A4.1,4.1,0,0,1,220.442,283.7Z"
                        transform="translate(-182.107 -130.448)" fill="#fff" />
                    <path id="Path_42983"
                        d="M239.4,286.274l-6.962,13.908-3.548-1.973a1.526,1.526,0,0,0-2.041.527L218.5,312.667v1.217c0,1.191.868,1.674,1.941,1.079l23.415-13.021a4.1,4.1,0,0,0,1.94-3.234v-7.964l-4.711-4.727A.984.984,0,0,0,239.4,286.274Z"
                        transform="translate(-182.107 -134.724)" fill="#6eb37b" />
                    <path id="Path_42984"
                        d="M222.017,296.028a10.513,10.513,0,0,0,4.973-8.294,3.457,3.457,0,0,0-1.237-2.955l-5.312,2.954a4.1,4.1,0,0,0-1.94,3.236v5.395A3.609,3.609,0,0,0,222.017,296.028Z"
                        transform="translate(-182.107 -134.479)" fill="#6eb37b" />
                    <path id="Path_42985"
                        d="M303.2,81.694V77.106c0-1.192-.868-1.675-1.94-1.079L171.7,148.074a4.1,4.1,0,0,0-1.94,3.236V155.9Z"
                        transform="translate(-169.757 -75.772)" fill="#98eca8" />
                </g>
                <g id="Group_4446" transform="translate(116.117 9.585)">
                    <path id="Path_42986"
                        d="M326.716,89.29a3.044,3.044,0,0,0-1.439,2.4c0,.884.644,1.242,1.439.8a3.042,3.042,0,0,0,1.439-2.4C328.155,89.207,327.511,88.849,326.716,89.29Z"
                        transform="translate(-325.277 -89.101)" fill="#f5f5f5" />
                </g>
                <g id="Group_4447" transform="translate(121.827 6.411)">
                    <path id="Path_42987"
                        d="M334.363,84.876a3.041,3.041,0,0,0-1.439,2.4c0,.884.644,1.242,1.439.8a3.042,3.042,0,0,0,1.438-2.4C335.8,84.792,335.157,84.434,334.363,84.876Z"
                        transform="translate(-332.924 -84.686)" fill="#f5f5f5" />
                </g>
                <g id="Group_4448" transform="translate(127.536 3.236)">
                    <path id="Path_42988"
                        d="M342.01,80.461a3.045,3.045,0,0,0-1.44,2.4c0,.884.645,1.242,1.44.8a3.044,3.044,0,0,0,1.439-2.4C343.448,80.378,342.8,80.02,342.01,80.461Z"
                        transform="translate(-340.57 -80.272)" fill="#f5f5f5" />
                </g>
            </g>
        </g>
        <g id="Character" transform="translate(219.749 202.808)">
            <g id="Group_4464">
                <g id="Group_4451" transform="translate(37.158 98.795)">
                    <g id="Group_4450">
                        <path id="Path_42989"
                            d="M346.116,392.995a7.018,7.018,0,0,1,.458,1.719,3.674,3.674,0,0,1,.142,1.89,3.874,3.874,0,0,1-2.216,1.668,5.115,5.115,0,0,1-3.909-.728,16.2,16.2,0,0,0-4.324-2.266,10.035,10.035,0,0,1-3.825-1.673c-1.074-.831-2.509-3.127-.454-3.658,2.073-.536,6.526,1.345,10.591,1.516Z"
                            transform="translate(-330.946 -389.851)" fill="#263238" />
                    </g>
                </g>
                <g id="Group_4452" transform="translate(47.601 99.35)">
                    <path id="Path_42990"
                        d="M349.469,390.623s.241,2.748.242,3.08c0,.931-3.554,2.172-4.215,0l-.564-2.918Z"
                        transform="translate(-344.932 -390.623)" fill="#f28f8f" />
                </g>
                <path id="Path_42991"
                    d="M341.914,306.808a55.556,55.556,0,0,1,3.352,5.378s.352,4,.352,6.661c0,4.891-.79,8.668-1.51,18.3a13.3,13.3,0,0,1,1.928,6.228c.3,4.364.3,4.336.334,24.449a5.989,5.989,0,0,1-4.448.419l-6.742-28.2-.734-11.064-2.106-13.757Z"
                    transform="translate(-294.14 -267.73)" fill="#37474f" />
                <g id="Group_4454" transform="translate(15.861 105.257)">
                    <g id="Group_4453">
                        <path id="Path_42992"
                            d="M318.426,400.556c.243.242.16.693.268,1.511a6.29,6.29,0,0,1,.1,1.848,3.833,3.833,0,0,1-1.984,1.921,5.135,5.135,0,0,1-3.972-.254,16.381,16.381,0,0,0-4.584-1.731,10.118,10.118,0,0,1-4.011-1.2c-1.173-.7-2.894-2.8-.923-3.575,1.987-.78,6.908.626,10.964.308Z"
                            transform="translate(-302.422 -398.837)" fill="#263238" />
                    </g>
                </g>
                <g id="Group_4455" transform="translate(27.543 102.73)">
                    <path id="Path_42993"
                        d="M323.326,396.119s-.764,3.133-.949,3.831c-.446,1.679-4.31,1.764-4.31-.173l.26-4.456Z"
                        transform="translate(-318.067 -395.322)" fill="#f28f8f" />
                </g>
                <path id="Path_42994"
                    d="M329.625,307.954c1.936,3.654,3.8,6.888,3.865,10.792.137,8.245-3.414,17.328-4.721,23.29a25.521,25.521,0,0,1,.325,6.54c-.259,2.49-6.166,25.155-6.166,25.155s-3.283.657-4.683-.769l1.664-43.656.445-12.684Z"
                    transform="translate(-290.569 -268.052)" fill="#37474f" />
                <g id="Group_4456" transform="translate(36.398 16.285)">
                    <path id="Path_42995" d="M329.927,276.406l1.223,6.49,6.086-.428-1.277-7.356Z"
                        transform="translate(-329.927 -275.111)" fill="#ffa8a7" />
                </g>
                <g id="Group_4457" transform="translate(29.784 19.84)">
                    <path id="Path_42996"
                        d="M341.42,283.383c-.6-1.765-2.927-3.685-5.253-3.269a70.832,70.832,0,0,0-10.186,2.45c-2.129.732-4.068,2.5-4.245,9.251l-.668,16.971a7.716,7.716,0,0,0,3.215,1.638,18.266,18.266,0,0,0,10.286.332c6.4-1.346,7.923-5.078,7.923-5.078s-.246-8.98-.438-13.864C341.891,287.665,341.834,284.594,341.42,283.383Z"
                        transform="translate(-321.069 -280.056)" fill="#455a64" />
                </g>
                <path id="Path_42997"
                    d="M314.978,262.206l-31.02-8.107c-2.806-.462-3.979,6.132-1.174,6.595l31.888,3.1Z"
                    transform="translate(-281.178 -252.918)" fill="#263238" />
                <path id="Path_42998"
                    d="M309.916,276.944l-6.34.186s.957-9.085,1.545-10.273,2-1.437,3.4-1.824,1.4-1.027,1.4-1.027l-1.265-.123a1.573,1.573,0,0,1-1.065-2.335c.225-.419.6-1.077,1.272-.9l1.673.437a3.643,3.643,0,0,0-.53-2.023c-.557-.6-.935-.414-2.049-.786a6.071,6.071,0,0,0-3.893-.234c-1.369.542-2.408,3.009-2.752,4.756a28.514,28.514,0,0,1-1.717,5.9c-1.221,3.24-3.01,9.881-3.178,12.548-.078,1.228.04,1.957,1.46,2.284s11.851.346,11.851.346Z"
                    transform="translate(-285.036 -253.964)" fill="#ffa8a7" />
                <g id="Group_4458" transform="translate(30.589 9.89)">
                    <path id="Path_42999"
                        d="M323.45,266.219s-1.474,2.1-1.286,2.327a3.53,3.53,0,0,0,1.108.472Z"
                        transform="translate(-322.147 -266.219)" fill="#ffa8a7" />
                </g>
                <g id="Group_4459" transform="translate(31.6 2.699)">
                    <path id="Path_43000"
                        d="M328.3,256.749c-1.419.69-3.872,1.966-4.549,6.969-.7,5.137.22,6.793.941,7.473.487.46,3.134.488,4.46.1,1.66-.48,5.4-1.85,7.111-4.489,2.008-3.1,2.457-7.262.191-8.915A8.8,8.8,0,0,0,328.3,256.749Z"
                        transform="translate(-323.5 -256.219)" fill="#ffa8a7" />
                </g>
                <path id="Path_43001"
                    d="M335.506,338.094l3.234-8.8a16.084,16.084,0,0,0,6.533-4.2s-.721,2.51-5.854,5.082l-3.545,8.331-.029,4.632Z"
                    transform="translate(-294.943 -272.866)" fill="#263238" />
                <g id="Group_4461" transform="translate(31.222)">
                    <g id="Group_4460">
                        <path id="Path_43002"
                            d="M323.325,257.416c.467,1.233,1.252,4.248,4.519,5.508,0,0,.467-1.922,2.144-1.719s1.964,2.267.933,3.545-2.032.819-2.032.819-.225,2.757,1.686,4.006a5.527,5.527,0,0,0,4.75.326c1.1-.486,2.654-3.022,3.567-5.1,1.931-4.4,2.206-7.933-.711-9.046-.36-2-1.294-2.754-3.175-3.127-4.05-.8-7.11,1.758-10.508,1.306C322.726,253.694,322.792,256.008,323.325,257.416Z"
                            transform="translate(-322.995 -252.466)" fill="#263238" />
                    </g>
                </g>
                <g id="Group_4463" transform="translate(46.306 2.304)">
                    <g id="Group_4462">
                        <path id="Path_43003"
                            d="M343.367,257.322l1.908-1.141a1.148,1.148,0,0,0-1.546-.349A1.058,1.058,0,0,0,343.367,257.322Z"
                            transform="translate(-343.197 -255.67)" fill="#263238" />
                    </g>
                </g>
                <path id="Path_43004"
                    d="M311.973,284.048s8.922-.492,11.239-.5,4.7,3.728,3.276,6.28c-.938,1.681-3.869,2.255-7.566,2.427-3.668.171-7.428.171-7.428.171S308.138,288.773,311.973,284.048Z"
                    transform="translate(-288.515 -261.195)" fill="#455a64" />
                <path id="Path_43005"
                    d="M321.977,294.7s5.655-.07,7.5-2.424a4.314,4.314,0,0,1-2.624,2.326,16.83,16.83,0,0,1-4.911,1.018Z"
                    transform="translate(-291.507 -263.648)" fill="#37474f" />
                <path id="Path_43006"
                    d="M283.959,254.1c-2.806-.462-3.979,6.132-1.174,6.595l4.448.433c-1.822-.178-.556-6.317.833-5.954h0Z"
                    transform="translate(-281.178 -252.918)" fill="#455a64" />
            </g>
        </g>
        <g id="Magnifiyng_Glass" transform="translate(247.485 107.707)">
            <g id="Group_4466">
                <path id="Path_43007"
                    d="M431.531,249.057a6.793,6.793,0,0,1-6.914,6.659,7.027,7.027,0,0,1-5.07-2.129l-.456-.531c-.007-.008-.014-.008-.014-.015a6.515,6.515,0,0,1-1.374-3.984,6.793,6.793,0,0,1,6.914-6.659,7.046,7.046,0,0,1,5.062,2.122l.47.546a.007.007,0,0,1,.007.007A6.514,6.514,0,0,1,431.531,249.057Z"
                    transform="translate(-343.503 -154.537)" fill="#455a64" />
                <path id="Path_43008"
                    d="M422.227,237.5a6.793,6.793,0,0,1-6.914,6.659,7.027,7.027,0,0,1-5.07-2.129l-.456-.531c-.007-.008-.014-.008-.014-.015l-28.79-33.475,12.133-6.745,27.26,31.7.47.546a.007.007,0,0,1,.007.007A6.514,6.514,0,0,1,422.227,237.5Z"
                    transform="translate(-334.2 -142.984)" fill="#455a64" />
                <path id="Path_43009"
                    d="M403.108,233.867a7.027,7.027,0,0,0,5.07,2.129,6.794,6.794,0,0,0,6.914-6.659,6.514,6.514,0,0,0-1.374-3.984.007.007,0,0,0-.007-.007l-3.56-4.133a.008.008,0,0,1,.008.008,6.517,6.517,0,0,1,1.374,3.984,6.794,6.794,0,0,1-6.914,6.659,7.024,7.024,0,0,1-5.07-2.129Z"
                    transform="translate(-338.904 -148.586)" fill="#98eca8" />
                <path id="Path_43010"
                    d="M376.791,125.859a16.413,16.413,0,0,1,6.174,1.934l-8.759-4.907h0c-5.877-3.888-14.336-3.659-23.736,1.563-17.751,9.872-32.146,33.886-32.146,53.631-.01,9.7,3.434,16.632,9.083,19.929l.122.068,9.349,5.189a15.849,15.849,0,0,1-4.265-3.907,21.675,21.675,0,0,0,6.886-.381c.821-.172,1.652-.381,2.493-.639a3.141,3.141,0,0,1-.316-.124,8.4,8.4,0,0,1-1.286-.705,9.036,9.036,0,0,1-1.94-1.773,12.178,12.178,0,0,1-1.82-3.049,13.727,13.727,0,0,1-1.84.124,10.372,10.372,0,0,1-4.225-.81,7.249,7.249,0,0,1-.9-.467c-.268-.163-.526-.344-.782-.534a33.026,33.026,0,0,1-.782-7.4c0-19.745,14.4-43.759,32.156-53.631a37.089,37.089,0,0,1,7.173-3.1,8.152,8.152,0,0,1,1.88,1.048,9.145,9.145,0,0,1,1.633,1.553,12.6,12.6,0,0,1,1.83,3.059,13.721,13.721,0,0,1,1.84-.124,9.791,9.791,0,0,1,4.837,1.134,6.883,6.883,0,0,1,1.069.677q-.194-.872-.446-1.687A20.1,20.1,0,0,0,376.791,125.859Z"
                    transform="translate(-318.325 -120.218)" fill="#263238" />
                <g id="Group_4465" transform="translate(9.778 5.517)">
                    <path id="Path_43011"
                        d="M386.283,129.948c-.168-.095-.337-.18-.5-.267a16.576,16.576,0,0,0-5.669-1.667,21.361,21.361,0,0,0-6.372.276,28.344,28.344,0,0,0-2.988.733,37.091,37.091,0,0,0-7.173,3.1c-17.76,9.873-32.155,33.887-32.155,53.631a33.027,33.027,0,0,0,.782,7.4c.1.439.208.858.326,1.277a20.627,20.627,0,0,0,3.4,7.08,15.656,15.656,0,0,0,2.424,2.563,15.352,15.352,0,0,0,1.84,1.344c5.857,3.64,14.158,3.326,23.37-1.792,17.76-9.872,32.156-33.886,32.156-53.631C395.722,140.106,392.111,133.169,386.283,129.948Zm-3.513,5.746a6.88,6.88,0,0,1,1.069.677,9.592,9.592,0,0,1,1.534,1.477c2.236,2.706,3.423,6.909,3.423,12.149,0,17.286-13.139,39.2-28.693,47.856a23.219,23.219,0,0,1-10.894,3.335,10.3,10.3,0,0,1-3.9-.7,3.136,3.136,0,0,1-.316-.124,8.4,8.4,0,0,1-1.286-.705,8.778,8.778,0,0,1-1.386-1.163h-.009c-.188-.191-.367-.4-.545-.61a12.178,12.178,0,0,1-1.82-3.049,23.149,23.149,0,0,1-1.6-9.091c0-.229,0-.457.02-.7.326-17.182,13.328-38.632,28.673-47.161q.533-.3,1.068-.572a24.44,24.44,0,0,1,7.985-2.64,13.722,13.722,0,0,1,1.84-.124,10.376,10.376,0,0,1,3.878.686A6.655,6.655,0,0,1,382.77,135.695Z"
                        transform="translate(-331.421 -127.89)" fill="#455a64" />
                </g>
                <path id="Path_43012"
                    d="M392.113,152.626c0,17.286-13.139,39.2-28.693,47.856a31.666,31.666,0,0,1-2.91,1.439.031.031,0,0,1-.019.009,20.406,20.406,0,0,1-7.964,1.887,10.3,10.3,0,0,1-3.9-.7,3.135,3.135,0,0,1-.316-.124,8.4,8.4,0,0,1-1.286-.705,9.036,9.036,0,0,1-1.94-1.773,9.586,9.586,0,0,1-.573-.772c.346.029.712.047,1.089.047a23.224,23.224,0,0,0,10.893-3.335c15.554-8.652,28.693-30.569,28.693-47.855,0-4.755-.98-8.653-2.84-11.359a8.943,8.943,0,0,1,3.74,1.077,6.883,6.883,0,0,1,1.069.677,9.591,9.591,0,0,1,1.534,1.477c1.969,2.382,3.126,5.918,3.364,10.3C392.093,151.378,392.113,152,392.113,152.626Z"
                    transform="translate(-324.96 -125.001)" fill="#37474f" />
                <path id="Path_43013"
                    d="M388.149,150.612c0,17.286-13.14,39.2-28.693,47.856a23.222,23.222,0,0,1-10.893,3.335,10.233,10.233,0,0,1-3.888-.7h-.009c-.188-.191-.367-.4-.545-.61a12.178,12.178,0,0,1-1.82-3.049,23.149,23.149,0,0,1-1.6-9.091c0-.229,0-.457.02-.7.326-17.182,13.328-38.632,28.673-47.161q.533-.3,1.068-.572a24.44,24.44,0,0,1,7.985-2.64,13.721,13.721,0,0,1,1.84-.124,10.376,10.376,0,0,1,3.878.686c.2.191.386.4.564.61C386.961,141.168,388.149,145.371,388.149,150.612Z"
                    transform="translate(-323.993 -124.978)" fill="#fff" opacity="0.6" />
            </g>
        </g>
    </g>
</svg>
