<svg xmlns="http://www.w3.org/2000/svg" xmlns:xlink="http://www.w3.org/1999/xlink" width="21" height="21" viewBox="0 0 21 21">
  <defs>
    <linearGradient id="linear-gradient" x1="0.5" x2="0.5" y2="1" gradientUnits="objectBoundingBox">
      <stop offset="0" stop-color="#98eca8"/>
      <stop offset="1" stop-color="#6eb37b"/>
    </linearGradient>
    <clipPath id="clip-path">
      <rect id="Rectangle_23619" data-name="Rectangle 23619" width="21" height="21" fill="url(#linear-gradient)"/>
    </clipPath>
  </defs>
  <g id="Mask_Group_201" data-name="Mask Group 201" clip-path="url(#clip-path)">
    <g id="svgexport-22" transform="translate(2.097)">
      <path id="Path_42836" data-name="Path 42836" d="M11.813,3.657a.437.437,0,0,1-.437-.437V1.75a.875.875,0,0,0-1.75,0V3.22a.438.438,0,1,1-.875,0V1.75a1.75,1.75,0,0,1,3.5,0V3.22A.437.437,0,0,1,11.813,3.657ZM10.5,21a3.066,3.066,0,0,1-3.062-3.062.438.438,0,0,1,.875,0,2.188,2.188,0,0,0,4.375,0,.438.438,0,0,1,.875,0A3.066,3.066,0,0,1,10.5,21Z" transform="translate(-1.753)" fill="url(#linear-gradient)"/>
      <path id="Path_42837" data-name="Path 42837" d="M17.938,18.375H3.063a1.314,1.314,0,0,1-.853-2.31,6.083,6.083,0,0,0,2.166-4.657V8.75a6.125,6.125,0,0,1,12.25,0v2.658a6.076,6.076,0,0,0,2.159,4.651,1.313,1.313,0,0,1-.846,2.316ZM10.5,3.5A5.255,5.255,0,0,0,5.25,8.75v2.658a6.951,6.951,0,0,1-2.468,5.319.438.438,0,0,0,.281.773H17.938a.438.438,0,0,0,.284-.77,6.956,6.956,0,0,1-2.472-5.322V8.75A5.255,5.255,0,0,0,10.5,3.5Z" transform="translate(-1.753)" fill="url(#linear-gradient)"/>
    </g>
  </g>
</svg>
