<svg xmlns="http://www.w3.org/2000/svg" xmlns:xlink="http://www.w3.org/1999/xlink" width="21"
    height="21" viewBox="0 0 21 21">
    <defs>
        <linearGradient id="linear-gradient" x1="0.5" x2="0.5" y2="1"
            gradientUnits="objectBoundingBox">
            <stop offset="0" stop-color="#98eca8" />
            <stop offset="1" stop-color="#6eb37b" />
        </linearGradient>
        <clipPath id="clip-path">
            <rect id="Rectangle_23642" width="21" height="21" transform="translate(354 782)"
                stroke="#f5f5f5" stroke-width="0.5" fill="url(#linear-gradient)" />
        </clipPath>
    </defs>
    <g id="Mask_Group_233" transform="translate(-354 -782)" clip-path="url(#clip-path)">
        <g id="svgexport-19_10_" transform="translate(356.04 782)">
            <g id="Group_4947">
                <path id="Path_42894"
                    d="M14.385,1.949H11.991A1.1,1.1,0,0,0,10.9.975h-.676A2.077,2.077,0,0,0,6.7.975H6.022a1.1,1.1,0,0,0-1.1.975H2.534A2.537,2.537,0,0,0,0,4.484V18.466A2.537,2.537,0,0,0,2.534,21H14.385a2.537,2.537,0,0,0,2.534-2.534V4.484a2.537,2.537,0,0,0-2.534-2.534ZM6.15,2.205h.834a.754.754,0,0,0,.694-.458.847.847,0,0,1,1.559,0,.754.754,0,0,0,.695.459h.835V3.9H6.15Zm9.539,16.26a1.305,1.305,0,0,1-1.3,1.3H2.534a1.305,1.305,0,0,1-1.3-1.3V4.484a1.305,1.305,0,0,1,1.3-1.3H4.92v.847a1.1,1.1,0,0,0,1.1,1.1H10.9a1.1,1.1,0,0,0,1.1-1.1V3.18h2.387a1.305,1.305,0,0,1,1.3,1.3Zm0,0"
                    stroke="#f5f5f5" stroke-width="0.5" fill="url(#linear-gradient)" />
                <path id="Path_42895"
                    d="M7.184,8.683h6.509a.615.615,0,0,0,0-1.23H7.184a.615.615,0,0,0,0,1.23Zm-3.858.536a.653.653,0,0,0,.923,0L5.693,7.775a.615.615,0,0,0-.87-.87L3.788,7.94,3.6,7.751a.615.615,0,0,0-.87.87ZM7.17,13.052h6.509a.615.615,0,0,0,0-1.23H7.17a.615.615,0,1,0,0,1.23Zm-3.857.536a.648.648,0,0,0,.461.191h0a.647.647,0,0,0,.461-.191l1.444-1.444a.615.615,0,0,0-.87-.87L3.774,12.309l-.19-.189a.615.615,0,1,0-.87.87Zm10.458,2.559H7.261a.615.615,0,0,0,0,1.23h6.509a.615.615,0,1,0,0-1.23ZM4.9,15.6,3.865,16.635l-.189-.189a.615.615,0,0,0-.87.87l.6.6a.653.653,0,0,0,.922,0L5.77,16.47a.615.615,0,1,0-.87-.87Zm0,0"
                    stroke="#f5f5f5" stroke-width="0.5" fill="url(#linear-gradient)" />
            </g>
        </g>
    </g>
</svg>
