<svg xmlns="http://www.w3.org/2000/svg" xmlns:xlink="http://www.w3.org/1999/xlink" width="41"
    height="41" viewBox="0 0 41 41">
    <defs>
        <clipPath id="clip-path">
            <circle id="Ellipse_111" cx="20.5" cy="20.5" r="20.5" transform="translate(-0.346)"
                fill="#fff" />
        </clipPath>
    </defs>
    <g id="Group_4399" transform="translate(0.346)">
        <circle id="Ellipse_108" cx="19.5" cy="19.5" r="19.5" transform="translate(0.654 1)"
            fill="#f6f6f6" />
        <g id="Mask_Group_27" clip-path="url(#clip-path)">
            <g id="svgexport-17_6_" transform="translate(12.781 11)">
                <path id="Path_42832"
                    d="M9.758,0C4.551,0,1.781,3.337,1.781,6.976c0,1.688.943,3.792,2.452,4.459.229.1.354.059.4-.153.045-.162.243-.939.34-1.306a.336.336,0,0,0-.081-.33A4.327,4.327,0,0,1,4,7.02a5.118,5.118,0,0,1,5.451-5c2.969,0,5.046,1.929,5.046,4.687,0,3.117-1.65,5.274-3.793,5.274A1.7,1.7,0,0,1,8.913,9.9a22.578,22.578,0,0,0,1-3.836A1.473,1.473,0,0,0,8.39,4.439c-1.208,0-2.187,1.2-2.187,2.8a3.994,3.994,0,0,0,.361,1.709s-1.195,4.826-1.417,5.728a12.816,12.816,0,0,0,.088,4.21.125.125,0,0,0,.228.058,14.962,14.962,0,0,0,1.967-3.7c.147-.543.752-2.743.752-2.743a3.283,3.283,0,0,0,2.769,1.321c3.639,0,6.268-3.2,6.268-7.167C17.205,2.847,13.949,0,9.758,0Z"
                    transform="translate(-1.781)" fill="#7b7b7b" />
            </g>
        </g>
    </g>
</svg>
