<svg xmlns="http://www.w3.org/2000/svg" xmlns:xlink="http://www.w3.org/1999/xlink" width="24" height="24" viewBox="0 0 24 24">
  <defs>
    <clipPath id="clip-path">
      <rect id="Rectangle_23567"  width="24" height="24" transform="translate(70 267)" fill="#fff"/>
    </clipPath>
  </defs>
  <g id="Mask_Group_187"  transform="translate(-70 -267)" clip-path="url(#clip-path)">
    <g id="svgexport-19_-_2023-05-28T121816.877"  transform="translate(70 267)">
      <path id="Path_42759"  d="M4.89,15.954a25.462,25.462,0,0,0,8.469,6.634,13.181,13.181,0,0,0,4.739,1.4c.114,0,.224.01.338.01a3.925,3.925,0,0,0,3.044-1.308.109.109,0,0,0,.02-.025,12.814,12.814,0,0,1,.96-.995c.234-.224.472-.458.7-.7a2.4,2.4,0,0,0-.01-3.576l-2.989-2.989a2.419,2.419,0,0,0-1.751-.806,2.5,2.5,0,0,0-1.77.8l-1.78,1.78c-.164-.094-.333-.179-.492-.259a6.15,6.15,0,0,1-.547-.3,18.842,18.842,0,0,1-4.5-4.1A10.85,10.85,0,0,1,7.8,9.106c.467-.423.905-.865,1.328-1.3.149-.154.3-.308.458-.462a2.549,2.549,0,0,0,.826-1.79,2.529,2.529,0,0,0-.826-1.79L8.1,2.283c-.174-.174-.338-.343-.507-.517-.328-.338-.671-.686-1.01-1A2.479,2.479,0,0,0,4.836,0a2.552,2.552,0,0,0-1.77.771l-1.86,1.86A3.822,3.822,0,0,0,.067,5.077,9.2,9.2,0,0,0,.758,9.056a23.145,23.145,0,0,0,4.133,6.9ZM1.28,5.182a2.63,2.63,0,0,1,.791-1.691l1.85-1.85a1.339,1.339,0,0,1,.915-.423,1.271,1.271,0,0,1,.9.433c.333.308.646.632.985.975.169.174.343.348.517.527L8.715,4.635a1.35,1.35,0,0,1,.467.93,1.35,1.35,0,0,1-.467.93c-.154.154-.308.313-.462.467-.462.467-.9.91-1.373,1.333l-.025.025a.972.972,0,0,0-.249,1.1c0,.015.01.025.015.04A11.7,11.7,0,0,0,8.367,12.3a19.887,19.887,0,0,0,4.794,4.366,7.119,7.119,0,0,0,.656.358,6.149,6.149,0,0,1,.547.3l.055.03a1.04,1.04,0,0,0,.482.124,1.055,1.055,0,0,0,.741-.338l1.86-1.86a1.316,1.316,0,0,1,.91-.443,1.249,1.249,0,0,1,.88.443l3,2.994a1.2,1.2,0,0,1-.015,1.875c-.209.224-.428.438-.661.661a14.321,14.321,0,0,0-1.039,1.079,2.73,2.73,0,0,1-2.133.905c-.085,0-.174,0-.259-.01A11.975,11.975,0,0,1,13.9,21.5a24.188,24.188,0,0,1-8.061-6.316,22.154,22.154,0,0,1-3.929-6.54A8.021,8.021,0,0,1,1.28,5.182Z"/>
    </g>
  </g>
</svg>
