<svg xmlns="http://www.w3.org/2000/svg" xmlns:xlink="http://www.w3.org/1999/xlink" width="19"
    height="19" viewBox="0 0 19 19">
    <defs>
        <clipPath id="clip-path">
            <rect id="Rectangle_2303" width="19" height="19" transform="translate(40 423)"
                fill="#231313" />
        </clipPath>
    </defs>
    <g id="Group_44275" transform="translate(-40 -422)">
        <g id="Mask_Group_51" transform="translate(0 -1)" clip-path="url(#clip-path)">
            <g id="svgexport-19_-_2023-05-15T211100.021"

                transform="translate(38.898 421.901)">
                <circle id="Ellipse_73" cx="4.859" cy="4.859" r="4.859"
                    transform="translate(5.301 1.099)" fill="#231313" />
                <path id="Path_3695"
                    d="M11.419,19.221a5.517,5.517,0,0,1,.067-7.591q-.649-.05-1.326-.051a13.147,13.147,0,0,0-7.146,1.834A3.782,3.782,0,0,0,1.1,16.438v1.281a1.5,1.5,0,0,0,1.5,1.5Z"
                    fill="#231313" />
                <path id="Path_3696"
                    d="M15.461,10.823A4.638,4.638,0,1,0,20.1,15.461,4.64,4.64,0,0,0,15.461,10.823ZM14.8,15.461v2.209a.663.663,0,0,0,1.325,0V15.461a.663.663,0,0,0-1.325,0Zm.663-2.871a.883.883,0,1,1-.883.883A.883.883,0,0,1,15.461,12.59Z"
                    fill="#231313" />
            </g>
        </g>
        <rect id="Rectangle_2307" width="2" height="4" rx="1" transform="translate(53.3 436)"
            fill="#fff" />
    </g>
</svg>
