<svg xmlns="http://www.w3.org/2000/svg" xmlns:xlink="http://www.w3.org/1999/xlink" width="27" height="27" viewBox="0 0 27 27">
  <defs>
    <clipPath id="clip-path">
      <rect id="Rectangle_23579" data-name="Rectangle 23579" width="27" height="27" transform="translate(121 884)" fill="#fff" stroke="#6eb37b" stroke-width="1"/>
    </clipPath>
  </defs>
  <g id="Mask_Group_194" data-name="Mask Group 194" transform="translate(-121 -884)" clip-path="url(#clip-path)">
    <g id="svgexport-19_-_2023-05-28T124241.258" data-name="svgexport-19 - 2023-05-28T124241.258" transform="translate(121 884)">
      <path id="Path_42779" data-name="Path 42779" d="M16.65,15.75h-.495a.443.443,0,0,1-.417-.291q-.082-.215-.177-.424a.444.444,0,0,1,.09-.5L16,14.179a1.353,1.353,0,0,0,0-1.908L14.73,11a1.353,1.353,0,0,0-1.908,0l-.353.352a.446.446,0,0,1-.5.09q-.21-.1-.425-.18a.442.442,0,0,1-.292-.418v-.5A1.35,1.35,0,0,0,9.9,9H8.1a1.35,1.35,0,0,0-1.35,1.35v.5a.443.443,0,0,1-.291.417c-.144.055-.285.114-.424.177a.445.445,0,0,1-.5-.09L5.18,11a1.353,1.353,0,0,0-1.908,0L2,12.272A1.353,1.353,0,0,0,2,14.18l.352.353a.444.444,0,0,1,.09.5q-.1.21-.178.425a.442.442,0,0,1-.42.29h-.5A1.35,1.35,0,0,0,0,17.1v1.8a1.35,1.35,0,0,0,1.35,1.35h.5a.443.443,0,0,1,.417.291c.055.144.114.285.177.424a.444.444,0,0,1-.09.5L2,21.82a1.353,1.353,0,0,0,0,1.908L3.268,25a1.353,1.353,0,0,0,1.908,0l.353-.352a.446.446,0,0,1,.5-.09q.21.1.425.18a.442.442,0,0,1,.294.418v.495A1.35,1.35,0,0,0,8.1,27H9.9a1.35,1.35,0,0,0,1.35-1.35v-.495a.443.443,0,0,1,.291-.417c.144-.055.285-.114.424-.177a.445.445,0,0,1,.5.09L12.82,25a1.354,1.354,0,0,0,1.908,0L16,23.73a1.353,1.353,0,0,0,0-1.908l-.352-.353a.444.444,0,0,1-.09-.5q.1-.21.18-.425a.442.442,0,0,1,.418-.292h.495A1.35,1.35,0,0,0,18,18.9V17.1A1.35,1.35,0,0,0,16.65,15.75Zm.45,3.15a.45.45,0,0,1-.45.45h-.495a1.354,1.354,0,0,0-1.26.87q-.071.189-.155.372a1.354,1.354,0,0,0,.27,1.51l.352.352a.45.45,0,0,1,0,.636h0L14.09,24.363a.45.45,0,0,1-.636,0l-.353-.352a1.353,1.353,0,0,0-1.51-.27q-.183.083-.371.155a1.354,1.354,0,0,0-.87,1.259v.5a.45.45,0,0,1-.45.45H8.1a.45.45,0,0,1-.45-.45v-.495a1.354,1.354,0,0,0-.87-1.26q-.189-.071-.372-.155a1.355,1.355,0,0,0-1.51.27l-.352.352a.45.45,0,0,1-.636,0h0l-1.272-1.27a.45.45,0,0,1,0-.636l.352-.353a1.354,1.354,0,0,0,.27-1.51q-.083-.183-.155-.371a1.354,1.354,0,0,0-1.259-.871h-.5A.45.45,0,0,1,.9,18.9V17.1a.45.45,0,0,1,.45-.45h.495a1.355,1.355,0,0,0,1.26-.87q.072-.189.155-.372a1.354,1.354,0,0,0-.27-1.51l-.354-.352a.45.45,0,0,1,0-.636h0l1.272-1.272a.45.45,0,0,1,.636,0l.353.352a1.353,1.353,0,0,0,1.51.27q.183-.083.371-.155a1.354,1.354,0,0,0,.872-1.259V10.35A.45.45,0,0,1,8.1,9.9H9.9a.45.45,0,0,1,.45.45v.5a1.355,1.355,0,0,0,.87,1.26q.189.072.372.155a1.353,1.353,0,0,0,1.51-.27l.352-.352a.453.453,0,0,1,.637,0l1.272,1.272a.45.45,0,0,1,0,.636l-.352.353a1.354,1.354,0,0,0-.27,1.51q.083.183.155.371a1.354,1.354,0,0,0,1.259.87h.495a.45.45,0,0,1,.45.45Z" fill="#fff" stroke="#6eb37b" stroke-width="0.056"/>
      <path id="Path_42780" data-name="Path 42780" d="M13.041,17.82q-.006-.162-.025-.323c-.014-.115-.031-.229-.055-.342-.016-.073-.036-.146-.056-.219q-.038-.138-.085-.274c-.022-.063-.045-.125-.068-.186a4.009,4.009,0,0,0-.2-.421c-.006-.01-.009-.022-.015-.032a3.992,3.992,0,0,0-.4-.59c-.013-.016-.028-.032-.041-.047q-.092-.11-.193-.212c-.035-.036-.072-.071-.109-.106s-.09-.083-.135-.123-.11-.093-.167-.138l-.074-.055A4.021,4.021,0,0,0,9,13.95c-.045,0-.09.007-.135.009q-.145,0-.289.018c-.051.005-.1.011-.153.018a4.126,4.126,0,0,0-.436.081,4.052,4.052,0,0,0,0,7.848.1.1,0,0,1,.023,0,4.291,4.291,0,0,0,.472.09c.1.013.21.016.315.021.07,0,.135.014.208.014.128,0,.261-.009.4-.022a.442.442,0,0,0,.045-.006q.168-.018.333-.051c.045-.009.087-.02.13-.03q.12-.027.239-.062c.063-.019.124-.041.186-.063l.189-.069c.064-.024.117-.052.175-.079.076-.035.151-.069.225-.109h0a5.326,5.326,0,0,0,1.153-.833,1.417,1.417,0,0,0,.241-.3A4.8,4.8,0,0,0,13,18.585c.013-.087.024-.174.031-.262s.011-.162.013-.243c0-.026,0-.05,0-.076C13.05,17.94,13.044,17.881,13.041,17.82Zm-.9.295c0,.037,0,.075-.005.112q-.013.164-.041.327a3.157,3.157,0,0,1-1.581,2.2q-.082.043-.166.082l-.037.018a3.25,3.25,0,0,1-.821.248l-.06.009c-.056.008-.112.015-.167.02q-.11.009-.22.011H8.953a3.157,3.157,0,0,1-.319-.02l-.054-.006a3.33,3.33,0,0,1-.368-.069,3.15,3.15,0,0,1,0-6.1h0A3.259,3.259,0,0,1,9,14.85a3.11,3.11,0,0,1,.385.026c.034,0,.068.01.1.015.1.015.194.035.288.059l.093.024a3.178,3.178,0,0,1,.686.289l.1.063c.071.045.14.09.208.141.036.027.073.053.108.081a3.247,3.247,0,0,1,.253.225c.032.032.061.068.092.1.052.056.1.114.15.175q.05.063.1.129c.045.065.09.132.13.2l.068.112a3.088,3.088,0,0,1,.155.33c.018.045.033.09.049.135.029.083.054.167.076.251.011.045.024.085.033.129a3.172,3.172,0,0,1,.057.369c0,.033,0,.066,0,.1.006.1.008.207,0,.312ZM25.65,9.45H24.235a.439.439,0,0,1-.419-.3,9.373,9.373,0,0,0-.505-1.22.441.441,0,0,1,.086-.508l1-1a1.35,1.35,0,0,0,0-1.908L22.486,2.6a1.35,1.35,0,0,0-1.908,0l-1,1a.441.441,0,0,1-.508.087,9.349,9.349,0,0,0-1.22-.508.439.439,0,0,1-.3-.419V1.35A1.35,1.35,0,0,0,16.2,0H13.5a1.35,1.35,0,0,0-1.35,1.35V2.765a.439.439,0,0,1-.3.419,9.378,9.378,0,0,0-1.22.508.44.44,0,0,1-.508-.086l-1-1a1.353,1.353,0,0,0-1.908,0L5.3,4.512a1.35,1.35,0,0,0,0,1.909L6.779,7.9a.45.45,0,1,0,.637-.635L5.94,5.786a.45.45,0,0,1,0-.636L7.85,3.24a.45.45,0,0,1,.636,0l1.005,1a1.338,1.338,0,0,0,1.546.254,8.514,8.514,0,0,1,1.1-.459,1.339,1.339,0,0,0,.909-1.273V1.35A.45.45,0,0,1,13.5.9h2.7a.45.45,0,0,1,.45.45V2.765a1.338,1.338,0,0,0,.909,1.273,8.487,8.487,0,0,1,1.1.459,1.341,1.341,0,0,0,1.546-.254l1.005-1a.45.45,0,0,1,.636,0l1.91,1.91a.45.45,0,0,1,0,.636l-1,1.005A1.339,1.339,0,0,0,22.5,8.338a8.514,8.514,0,0,1,.459,1.1,1.338,1.338,0,0,0,1.274.909H25.65a.45.45,0,0,1,.45.45v2.7a.45.45,0,0,1-.45.45H24.235a1.338,1.338,0,0,0-1.273.909,8.479,8.479,0,0,1-.459,1.1,1.34,1.34,0,0,0,.254,1.546l1,1.005a.45.45,0,0,1,0,.636L21.85,21.06a.45.45,0,0,1-.636,0l-1.479-1.476a.45.45,0,1,0-.635.637L20.578,21.7a1.35,1.35,0,0,0,1.908,0l1.91-1.909a1.35,1.35,0,0,0,0-1.909l-1-1a.441.441,0,0,1-.087-.508,9.349,9.349,0,0,0,.508-1.22.439.439,0,0,1,.419-.3H25.65A1.35,1.35,0,0,0,27,13.5V10.8a1.35,1.35,0,0,0-1.35-1.35Z" fill="#fff" stroke="#6eb37b" stroke-width="0.056"/>
      <path id="Path_42781" data-name="Path 42781" d="M18.986,8.014a5.856,5.856,0,0,0-8.273,0,.45.45,0,1,0,.636.636A4.95,4.95,0,1,1,18.4,15.6l-.047.047a.45.45,0,1,0,.636.636,5.856,5.856,0,0,0,0-8.273Z" fill="#fff" stroke="#6eb37b" stroke-width="0.056"/>
    </g>
  </g>
</svg>
