<svg xmlns="http://www.w3.org/2000/svg" xmlns:xlink="http://www.w3.org/1999/xlink" width="19"
    height="19" viewBox="0 0 19 19">
    <defs>
        <clipPath id="clip-path">
            <rect id="Rectangle_24034" width="19" height="19" transform="translate(53 721)" />
        </clipPath>
    </defs>
    <g id="Mask_Group_190" transform="translate(-53 -721)" clip-path="url(#clip-path)">
        <g id="svgexport-17_57_" transform="translate(53 722.148)">
            <path id="Path_43115"
                d="M17.33,6.452H16.164a7.239,7.239,0,0,0-13.348,0H1.67A1.672,1.672,0,0,0,0,8.122v2.227a1.672,1.672,0,0,0,1.67,1.67H3.956l-.239-.73a6.132,6.132,0,1,1,11.559-4.1l0,.013a4.822,4.822,0,0,1,.261,1.017,6.127,6.127,0,0,1-.274,3.051l0,.007a6.111,6.111,0,0,1-5.753,4.08,1.67,1.67,0,1,0,1.659,1.67v-.751a7.227,7.227,0,0,0,4.987-4.259H17.33A1.672,1.672,0,0,0,19,10.348V8.122A1.672,1.672,0,0,0,17.33,6.452Z"
                transform="translate(0 -1.994)" />
            <path id="Path_43116"
                d="M7.8,14.775v1.113h5.01a5.009,5.009,0,1,0-3.94-1.915A1.107,1.107,0,0,1,7.8,14.775Zm6.68-4.453h1.113v1.113H14.479Zm-2.227,0h1.113v1.113H12.252Zm-2.227,0h1.113v1.113H10.025Z"
                transform="translate(-3.309 -3.638)" />
        </g>
    </g>
</svg>
