<svg xmlns="http://www.w3.org/2000/svg" xmlns:xlink="http://www.w3.org/1999/xlink" width="19"
    height="19" viewBox="0 0 19 19">
    <defs>
        <clipPath id="clip-path">
            <rect id="Rectangle_23876" width="19" height="19" transform="translate(30 775)"
                fill="#231313" stroke="#707070" stroke-width="1" />
        </clipPath>
    </defs>
    <g id="Mask_Group_151" transform="translate(-30 -775)" clip-path="url(#clip-path)">
        <g id="svgexport-17_43_" transform="translate(30.398 775)">
            <path id="Path_43045"
                d="M13.581,8.672h.1q.266,0,.527.034V2.242A2.244,2.244,0,0,0,11.969,0H2.242A2.244,2.244,0,0,0,0,2.242V15.136a2.244,2.244,0,0,0,2.242,2.242H8.736a5.7,5.7,0,0,1,4.845-8.706ZM8.04,3.66h3.322a.557.557,0,1,1,0,1.113H8.04a.557.557,0,1,1,0-1.113Zm0,2.227h3.322a.557.557,0,0,1,0,1.113H8.04a.557.557,0,0,1,0-1.113ZM6.171,13.718H2.848a.557.557,0,1,1,0-1.113H6.171a.557.557,0,0,1,0,1.113Zm0-2.264H2.848a.557.557,0,1,1,0-1.113H6.171a.557.557,0,0,1,0,1.113Zm0-2.227H2.848a.557.557,0,1,1,0-1.113H6.171a.557.557,0,0,1,0,1.113ZM6.171,7H2.848a.557.557,0,1,1,0-1.113H6.171A.557.557,0,0,1,6.171,7Zm0-2.227H2.848a.557.557,0,1,1,0-1.113H6.171a.557.557,0,0,1,0,1.113Zm1.313,3.9a.557.557,0,0,1,.557-.557h1.6a.557.557,0,0,1,0,1.113H8.04a.557.557,0,0,1-.557-.557Zm0,0"
                fill="#231313" />
            <path id="Path_43046"
                d="M16.877,11.131a4.593,4.593,0,0,0-3.213-1.382h-.083a4.625,4.625,0,1,0,3.3,1.383Zm-1.321,2.491-1.765,2.2a.557.557,0,0,1-.761.1l-1.317-.954a.557.557,0,1,1,.653-.9l.888.643,1.434-1.787a.557.557,0,0,1,.868.7Zm0,0"
                fill="#231313" />
        </g>
    </g>
</svg>
