<svg xmlns="http://www.w3.org/2000/svg" xmlns:xlink="http://www.w3.org/1999/xlink" width="30"
    height="30" viewBox="0 0 30 30">
    <defs>
        <clipPath id="clip-path">
            <rect id="Rectangle_23916" width="30" height="30" fill="#231313" />
        </clipPath>
    </defs>
    <g id="Mask_Group_169" clip-path="url(#clip-path)">
        <g id="svgexport-17_65_" transform="translate(0 6.123)">
            <path id="Path_43080"
                d="M21.387.177c2.6.6,3.6,2.124,4.843,4.218H21.387ZM6.186,4.57a.772.772,0,0,1,.879.82.879.879,0,0,1-.876.879H.879a.879.879,0,0,0,0,1.758h7.91a.879.879,0,1,1,0,1.758H.879a.879.879,0,0,0,0,1.758H2.813V14.18a.879.879,0,0,0,.879.879H5.458a3.37,3.37,0,0,0,6.6,0h8.924a3.37,3.37,0,0,0,6.6,0h1.532A.879.879,0,0,0,30,14.18V8.906c0-2.579-2.72-2.75-2.723-2.754h-6.77a.879.879,0,0,1-.879-.879V0H3.691a.879.879,0,0,0-.879.879V2.813H1.758a.879.879,0,0,0,0,1.758Zm19.24,8.675a1.611,1.611,0,1,1-2.751,1.139A1.612,1.612,0,0,1,25.426,13.245Zm-15.527,0a1.611,1.611,0,1,1-2.751,1.139A1.612,1.612,0,0,1,9.9,13.245Zm0,0"
                fill="#231313" fill-rule="evenodd" />
        </g>
    </g>
</svg>
