<svg xmlns="http://www.w3.org/2000/svg" xmlns:xlink="http://www.w3.org/1999/xlink" width="19"
    height="19" viewBox="0 0 19 19">
    <defs>
        <clipPath id="clip-path">
            <rect id="Rectangle_23881" width="19" height="19" transform="translate(40 138)"
                fill="#231313" />
        </clipPath>
    </defs>
    <g id="Mask_Group_157" transform="translate(-40 -138)" clip-path="url(#clip-path)">
        <g id="svgexport-18_50_" transform="translate(40 140.375)">
            <path id="Path_43053"
                d="M16.823,0H2.177A2.179,2.179,0,0,0,0,2.177v9.9A2.179,2.179,0,0,0,2.177,14.25H16.823A2.179,2.179,0,0,0,19,12.073v-9.9A2.179,2.179,0,0,0,16.823,0ZM5.938,3.167A1.979,1.979,0,1,1,3.958,5.146,1.982,1.982,0,0,1,5.938,3.167ZM9.5,10.49a.594.594,0,0,1-.594.594H2.969a.594.594,0,0,1-.594-.594v-.4A2.179,2.179,0,0,1,4.552,7.917H7.323A2.179,2.179,0,0,1,9.5,10.094Zm6.531.594H11.677a.594.594,0,0,1,0-1.188h4.354a.594.594,0,1,1,0,1.188Zm0-3.167H11.677a.594.594,0,1,1,0-1.187h4.354a.594.594,0,0,1,0,1.188Zm0-3.167H11.677a.594.594,0,0,1,0-1.187h4.354a.594.594,0,0,1,0,1.188Zm0,0"
                fill="#231313" />
        </g>
    </g>
</svg>
