<svg xmlns="http://www.w3.org/2000/svg" xmlns:xlink="http://www.w3.org/1999/xlink" width="70" height="70" viewBox="0 0 70 70">
  <defs>
    <linearGradient id="linear-gradient" x1="0.5" x2="0.5" y2="1" gradientUnits="objectBoundingBox">
      <stop offset="0" stop-color="#98eca8"/>
      <stop offset="1" stop-color="#65846a"/>
    </linearGradient>
    <clipPath id="clip-path">
      <circle id="Ellipse_143"  cx="35" cy="35" r="35" transform="translate(172 189)" fill="url(#linear-gradient)"/>
    </clipPath>
  </defs>
  <g id="Mask_Group_258"  transform="translate(-172 -189)" clip-path="url(#clip-path)">
    <g id="svgexport-19_16_"  transform="translate(184.823 198.767)">
      <path id="Path_43350"  d="M25.931,0A13.306,13.306,0,1,0,39.237,13.306,13.321,13.321,0,0,0,25.931,0Zm0,23.656A10.349,10.349,0,1,1,36.28,13.306,10.361,10.361,0,0,1,25.931,23.656Zm16.556,11.65a18.969,18.969,0,0,0-13.6-5.736H22.974a18.969,18.969,0,0,0-13.6,5.736A19.392,19.392,0,0,0,3.754,48.987a1.479,1.479,0,0,0,1.478,1.478h41.4a1.479,1.479,0,0,0,1.478-1.478A19.392,19.392,0,0,0,42.486,35.305ZM6.776,47.508a16.363,16.363,0,0,1,16.2-14.982h5.914a16.363,16.363,0,0,1,16.2,14.982Z" transform="translate(-3.754 0)" fill="url(#linear-gradient)"/>
    </g>
  </g>
</svg>
