<svg xmlns="http://www.w3.org/2000/svg" xmlns:xlink="http://www.w3.org/1999/xlink" width="39"
    height="39" viewBox="0 0 39 39">
    <defs>
        <clipPath id="clip-path">
            <ellipse id="Ellipse_124" cx="14.5" cy="15" rx="14.5" ry="15"
                transform="translate(0.297)" fill="#6db07a" />
        </clipPath>
    </defs>
    <g id="Group_4950" transform="translate(-267 -878)">
        <circle id="Ellipse_121" cx="19.5" cy="19.5" r="19.5" transform="translate(267 878)"
            fill="#f9f9f9" />
        <g id="Mask_Group_210" transform="translate(271.703 883)" clip-path="url(#clip-path)">
            <g id="svgexport-19_2_" transform="translate(4.767 4.389)">
                <path id="Path_42852"
                    d="M10.423,0A10.425,10.425,0,0,0,1.578,15.94C1.167,17.382.423,20.11.415,20.139a.4.4,0,0,0,.5.488l4.131-1.271A10.423,10.423,0,1,0,10.423,0Zm0,20.044a9.6,9.6,0,0,1-5.1-1.464.4.4,0,0,0-.331-.043l-3.607,1.11q.5-1.832,1.017-3.66a.4.4,0,0,0-.049-.329,9.622,9.622,0,1,1,8.073,4.386Z"
                    fill="#6db07a" />
                <path id="Path_42853"
                    d="M16.9,12.532c-.74-.411-1.37-.823-1.83-1.124-.351-.229-.6-.395-.791-.488A.911.911,0,0,0,13.215,11a.4.4,0,0,0-.05.061,5.635,5.635,0,0,1-1.452,1.627,9.653,9.653,0,0,1-2.465-1.6A5.337,5.337,0,0,1,7.3,8.623c.727-.748.989-1.219.989-1.754a11.344,11.344,0,0,0-1.521-3.09c-.234-.233-.76-.27-1.565-.109a.4.4,0,0,0-.2.109C4.9,3.877,2.621,6.2,3.7,9.017c1.189,3.091,4.241,6.684,8.132,7.268a8.432,8.432,0,0,0,1.245.1,3.69,3.69,0,0,0,4.02-3.436.4.4,0,0,0-.2-.416Zm-4.946,2.96c-4.115-.617-6.706-4.693-7.5-6.763a4.413,4.413,0,0,1,1.032-4.3,3.024,3.024,0,0,1,.741-.051,14.4,14.4,0,0,1,1.26,2.487c0,.21-.069.5-.885,1.32a.4.4,0,0,0-.117.283c0,2.1,4.427,5.011,5.211,5.011.682,0,1.571-1.146,2.077-1.893a.38.38,0,0,1,.149.047c.144.073.394.236.711.443.418.273.973.635,1.628,1.011-.3,1.431-1.129,2.879-4.3,2.4Z"
                    transform="translate(0.331 0.347)" fill="#6db07a" />
            </g>
        </g>
    </g>
</svg>
