<svg xmlns="http://www.w3.org/2000/svg" xmlns:xlink="http://www.w3.org/1999/xlink" width="19"
    height="19" viewBox="0 0 19 19">
    <defs>
        <clipPath id="clip-path">
            <rect id="Rectangle_23882" width="19" height="19" transform="translate(40 278)"
                fill="#231313" />
        </clipPath>
    </defs>
    <g id="Mask_Group_158" transform="translate(-40 -278)" clip-path="url(#clip-path)">
        <g id="svgexport-19_-_2023-05-17T170815.066" transform="translate(39.135 277.082)">
            <path id="Path_43054"
                d="M19.844,16.419a4.763,4.763,0,0,1-1,2.42,3,3,0,0,1-2.386,1.078,15.47,15.47,0,0,1-6.062-1.23A15.587,15.587,0,0,1,.866,4.33,3,3,0,0,1,1.944,1.944a4.763,4.763,0,0,1,2.42-1,2.165,2.165,0,0,1,1.628.433.316.316,0,0,1,.078.074l2.065,2.62a2.165,2.165,0,0,1-.082,2.715l-.623.654-.5.524c.113,1.533,1.706,3.434,3.464,4.663a7.361,7.361,0,0,0,2.464,1.2l.5-.468.636-.606a2.165,2.165,0,0,1,2.723-.1l2.628,2.078.074.074A2.165,2.165,0,0,1,19.844,16.419Z"
                fill="#231313" />
            <path id="Path_43055"
                d="M19.844,16.419a4.763,4.763,0,0,1-1,2.42,3,3,0,0,1-2.386,1.078,15.47,15.47,0,0,1-6.062-1.23V12.626a7.361,7.361,0,0,0,2.464,1.2l.5-.468.636-.606a2.165,2.165,0,0,1,2.723-.1l2.628,2.074.074.074a2.165,2.165,0,0,1,.429,1.624Z"
                fill="#231313" />
        </g>
    </g>
</svg>
